<svg xmlns="http://www.w3.org/2000/svg" width="195" height="95" viewBox="0 0 195 95"><path fill="#f70c36" d="M94.6 93.9v-6l-6.1 6h6.1zM.5.5v6l6-6h-6zm22.1 19L41.8.5h-8.7L22.6 11l-8.2-8L.5 16.8v8.6l13.9-13.8 8.2 7.9zm49.9 55.4l-19.2 19H62l10.5-10.5 8.2 7.9 13.9-13.8V69l-14 13.8-8.1-7.9zm-.1-18.8L34.3 93.9H43l29.5-29.3 8.2 7.9 14-13.9V50L80.6 64l-8.2-7.9zM22.7 38.3L60.9.5h-8.7L22.7 29.8l-8.2-7.9-14 13.9v8.6l14-13.9 8.2 7.8zm49.6-1L23 86.2l-8.2-7.9L.5 92.5V94h7.2l7.1-7.1 7.3 7.1h1.7l48.5-48.1 8.2 7.9 14.1-14v-8.6l-14.1 14-8.2-7.9zm8-29.7L73 .5h-1.8L22.8 48.6l-8.2-7.9-14.1 14v8.6l14.1-14 8.2 7.9 49.4-49 8.2 7.9L94.6 2V.5h-7.2l-7.1 7.1zm-8.1 10.9L22.9 67.4l-8.2-7.9L.5 73.6v8.6L14.7 68l8.2 7.9L72.3 27l8.2 7.9 14.2-14.1v-8.6L80.4 26.4l-8.2-7.9zm102.5 19.2c-3-4.8-8.2-8.1-13.6-8.5-6.8-.5-10.8 2.3-13.7 5.2-2.7-2.8-6.9-5.8-13.8-5.2-3.8.3-7.7 2.2-10.8 5.1-3.1 2.9-4.9 6.8-5.2 10.9-.5 7.7 3.8 12.7 6.9 16.3l.3.4c6.2 7.1 13.8 14.3 20.6 20.4l2.1 1.9 3.9-3.7c6-5.7 12.7-12.1 18.3-18.6l.2-.2c2.1-2.5 4.6-5.3 5.9-8.5 2.3-5.3 1.8-10.8-1.1-15.5zm-4.5 13.1c-.9 2.3-2.9 4.6-4.9 6.8l-.2.2c-5.4 6.2-11.6 12.2-17.7 18-6-5.5-12.6-11.8-17.9-18l-.3-.4c-2.9-3.3-5.8-6.7-5.5-11.9.2-3.3 1.9-5.6 3.3-7 2-1.9 4.6-3.2 7-3.4.5 0 .9-.1 1.3-.1 4.3 0 6.6 2 9.4 5.7l2.3 3 2.8-3.2c2.8-3.2 5.2-5.8 10.7-5.4 3.4.3 6.9 2.5 8.9 5.6 1.9 3.2 2.2 6.8.8 10.1zm-69.8 43.4l.2.2h8.6c-3-3-6-6.1-8.8-9.3v9.1zm93.7.3l.4-.4V85c-2.9 3.3-5.9 6.5-8.9 9.5h8.5zM100.4 1.1V9c3.5-3.1 7.4-5.8 11.5-7.9h-11.5zm93.9 0h-11.5C187 3.2 191 6 194.5 9.2v-8c-.1 0-.2-.1-.2-.1zm-8.8 74c-6.1 7-12.9 13.6-19 19.4h8.8c4.9-4.7 10-9.9 14.8-15.4l.2-.2c1.2-1.4 2.7-3.1 4.2-5.1v-12c-2.6 5.8-6.3 10.1-8.8 13.1l-.2.2zm-76.2.1l-.3-.4c-2.1-2.5-5.9-6.8-8.6-12.8v12c1.5 2 2.9 3.6 3.9 4.8l.3.4c4.6 5.3 9.8 10.5 14.9 15.3h8.9c-6.3-5.9-13.2-12.5-19.1-19.3zm53.8-72.5c-1.2-.1-2.4-.1-3.7-.1-4.2 0-8.2.5-12 1.6-3.8-1.1-7.9-1.7-12-1.7-1.4 0-2.8.1-4.2.2-9.8.9-19.6 5.4-26.9 12.4-1.4 1.4-2.8 2.8-4 4.3V31c2-4.3 4.7-8.2 8.2-11.5 6.3-6.1 14.8-10 23.2-10.7 1.2-.1 2.4-.2 3.6-.2 3.8 0 7.6.6 11.1 1.6l.9.3.9-.3c3.5-1.1 7.2-1.6 11.1-1.6 1.1 0 2.1 0 3.2.1 11.8.9 23.1 7.9 29.5 18.2.9 1.4 1.6 2.9 2.3 4.4V19.6c-7.5-9.6-19.1-16-31.2-16.9zm16.8 67.8l.2-.3c2.7-3.1 5.9-6.9 8.1-12.1 3.8-9.1 3-19.1-2.2-27.5-5.2-8.4-14.4-14-23.9-14.8-.9-.1-1.8-.1-2.6-.1-4.3 0-8.3.8-12 2.5-3.7-1.6-7.7-2.5-12-2.5-1 0-2 0-3 .1-6.8.6-13.7 3.8-18.8 8.7-5.5 5.2-8.8 12.2-9.3 19.6-.9 13.1 6.6 21.7 10.1 25.8l.3.4c6.6 7.6 14.7 15.2 21.7 21.6l2.7 2.4h17l4.6-4.4c6.1-5.7 13.1-12.4 19.1-19.4zm-23.4 15.2l-8.8 8.4-7.1-6.5c-6.9-6.3-14.8-13.6-21.2-21l-.3-.4c-3.5-4-9.4-10.8-8.7-21.5.4-5.9 3-11.5 7.4-15.6 4.2-4 9.7-6.6 15.1-7 .8-.1 1.6-.1 2.5-.1 3.8 0 7.4.8 10.6 2.5l1.4.7 1.4-.7c3.2-1.6 6.7-2.5 10.6-2.5.7 0 1.4 0 2.2.1 7.6.6 15 5.1 19.2 11.9 4.1 6.7 4.8 14.7 1.8 22-1.8 4.3-4.7 7.7-7.1 10.4l-.2.2c-5.9 6.7-12.8 13.3-18.8 19.1z"/></svg>