<svg xmlns="http://www.w3.org/2000/svg" width="440" height="282" viewBox="0 0 440 282"><g fill-rule="evenodd" clip-rule="evenodd"><path fill="#EFD4C5" d="M439.5 56.4c-.4-1.5-1-2.8-1.9-3.8-.8-.9-1.8-1.7-2.8-2.2-.3-.2-.6-.3-.9-.4-.1-.5-.3-1.1-.5-1.6-.5-1.1-1.2-2.2-1.7-2.9-.3-.4-.6-.8-.9-1.3l.1-.4c.2-1.2.6-3.8.9-6.1.3-2.2.6-4.5.7-6.5.1-1.9-.1-3.5-.6-5.8-.5-2.2-1.2-4.8-1.9-7.1-.8-2.4-1.7-4.5-2.1-5.6l-.2-.6V12c.1-.6.2-2 .1-3.3-.1-1.2-.2-2.9-1.2-4.4-.8-1.2-2-2.1-3.8-2.8-1.5-.6-3.2-1-3.9-1.2-.5-.1-.9-.2-1.3-.2-.6 0-1 .2-1.3.3h-.1c-.2-.1-.4-.2-.6-.2-.6-.2-1.3-.2-2.1-.2h-.1c-.9 0-2 0-3.4.3-1.5.3-3.1.9-4.1 1.3-1 .4-1.6.8-2.1 1.3-.3.3-.5.6-.7.9-.3 0-.6.1-.8.1-1 .2-1.7.7-2.8 1.7-.5.5-2.4 2.2-5.3 4.9-.8.8-1.7 1.6-2.6 2.4-1.5 1.5-3.1 3-4.6 4.4-2 1.9-4.1 3.7-6.5 5.7-.3.2-.5.4-.8.6-1.5 1.3-2.7 2.3-3.9 3.5-1.2 1.3-2.3 2.7-3.4 4l-.3.4c-1 1.3-2.2 2.7-3.2 3.8-.9 1-1.7 1.6-2.6 2.1-.9.5-1.8.8-2.5.9h-.4c-.5 0-1-.1-1.7-.3-.8-.2-1.7-.6-2.3-1-.4-.2-.7-.5-1.2-.9l-1.8-1.6-1.4 1.9c-.4.5-.7 1.1-1 1.8-.4-.1-.9-.3-1.5-.4-.3-.1-.5-.1-.8-.2-1.1-.3-2.4-.6-3.7-.8-.8-.1-1.6-.2-2.5-.2-.8 0-1.6.1-2.3.2-1.6.2-2.9.7-3.9 1.1-1.2.4-2.3.9-3.4 1.4l-3.1 1.4 2 1.8c-.7.3-1.4.7-2.3 1.2-1.8 1-3.9 2.2-5.7 3.4-1.5 1-2.8 1.9-4.2 3.1-1.2 1-2.5 2-3.6 3l-3.7 3.2 4 .5c-.5.7-1.1 1.4-1.7 2.2-1.3 1.6-2.7 3.3-3.9 4.8-1.2 1.4-2.3 2.6-3.4 3.6-1.2 1.1-2.2 1.8-3.3 2.5-1 .6-2.2 1.2-3.8 1.7-1.2.4-2.2.8-3.1 1-.7.2-1.4.3-2.2.5l-3.2.6 1.8 2.7c.4.6.8 1.2 1.2 1.7l.6.6-1.2.6-3.4 1.7 3 2s.2.1.2.2c-.3.3-.7.6-1 .9-1.2.9-2.5 1.9-4.2 3.1-1.4 1-3.5 2.5-5.3 3.6-1.6 1-3 1.7-4.3 2.4-2.6 1.2-5.5 2-8 2.3-.8.1-1.5.1-2.2.1h-.9c-.9 0-1.8-.2-2.9-.3l-3.2-.4.8 3.1c.1.6.3 1.3.6 2 .1.3.3.7.5 1l-2.4.3-3 .3 1.2 2.7c.5 1.2 1 2.1 1.8 3.2.9 1.3 2.3 2.9 3.3 3.9 1.2 1.3 2.2 2.3 3.1 3.1 1 .9 2 1.7 3.1 2.4.1.1.3.2.4.3l-.9.6c-1.7 1.2-3.6 2.3-5 3.1-1.7 1-3.3 1.7-4.7 2.3-1.9.8-3.3 1.3-4.5 1.8-1.5.5-3.1.9-4.5 1.2l-4.1 1 3.2 2.7c.6.5 1.4 1.1 2.2 1.8.8.6 2.1 1.5 3.9 2.3.9.5 2 .9 2.9 1.3-.4.5-.9 1.2-1.4 1.9-1 1.4-2.4 3.6-3.9 6.2-1.3 2.3-2.5 4.8-3.7 7.4-1.2 2.7-2.3 5.7-3.3 8.8-1.1 3.1-2 6.3-2.5 8.5-.4 1.7-.6 3.3-.8 5.4l-.6 6.5 4.3-4.8c.9-1 1.6-1.8 2.6-2.6 1.1-.9 2.6-2.1 4-3 1.3-.9 2.3-1.3 3.3-1.8.4-.2.9-.4 1.3-.5.2 1.3.5 3.1.9 5 .7 3 1.5 6 2.5 8.7.9 2.5 2 5 3.6 8.2 1.1 2.1 2.5 5 4.5 8.1 1.8 2.8 4 5.9 6 8.3 2.2 2.7 4.1 4.5 5.3 5.6 1.6 1.4 3 2.6 3.6 3.1l4.2 3.4v-5-1.1c1 .9 2.3 2 3.8 3.2 1.9 1.5 4.1 2.9 6.1 4.2 1.9 1.3 4.2 2.7 6.4 4.1.6.4 1.2.7 1.7 1.1 1.5.9 2.8 1.8 4.1 2.7 1.2.8 2.3 1.5 3.3 2.3.5.4 1.1.8 1.7 1.2.6.4 1.3.9 1.9 1.3 1 .7 1.9 1.3 2.6 1.8 1 .8 1.5 1.2 1.8 1.4l4 3.6-.2-5.5c0-.6 0-1.7-.1-3-.1-.9-.1-1.8-.2-2.7 0-.3-.1-.7-.1-1 .8.3 1.7.8 2.6 1.2 1.6.8 4 2.1 6.5 3.9 2 1.4 3.8 2.9 5.4 4.3.2.1.3.3.5.4.2.1.3.3.5.4 1.5 1.2 2.7 2.2 4.2 3.8 1.8 1.8 4.1 4.3 5.7 6.3 1.7 2.1 2.8 3.8 4.1 5.6 1.2 1.8 2.5 3.7 3.7 5.5l3.3 4.9.7-5.7c.2-1.6.4-3.3.9-4.9.5-1.7 1.3-3.9 2.3-6.2 1-2.3 2.2-4.6 3.7-7.1 1.5-2.7 3.4-5.5 5.2-8 1.6-2.3 3.4-4.7 5.8-7.6 2.2-2.7 4.4-5.2 6.4-7.5 1.7-1.8 3.4-3.7 5-5.4.6-.6 1.2-1.3 1.8-1.9 2.2-2.4 4.3-4.6 5.9-6.4 1.3-1.4 2.3-2.7 3.2-3.8.2.6.4 1.2.5 1.7.1.7.2 1.6.2 2l.5 6.9 4.2-6.7c.8-1.2 2.4-3.7 3.9-6.6 1.6-3 3.1-6 4.3-8.9 1.3-3.1 2.2-5.9 2.9-8.3.8-2.7 1.4-4.8 2-7.4.5-2.7.9-5.7 1.1-7.8 0-.3.1-.6.1-.8.1.1.2.2.3.2.9.7 1.7 1.3 2.4 1.9.6.5 1.2 1.1 1.8 1.8l4 4.1-.4-5.8c-.1-1.7-.2-3.4-.5-5.1-.2-1.7-.6-3.5-1.1-5.2-.5-1.7-1-3.4-1.8-5.2-.8-1.9-1.7-3.8-3.1-6.5-1.4-2.6-3.3-6-4.3-7.9.8-.3 1.7-.7 2.5-1.1 1.3-.7 2.5-1.4 3.6-2.3.8-.7 1.5-1.4 2.1-2.2 1.9-2.3 3.7-6 3.7-6l-4.7.9c-.8.2-1.5.3-2.3.3h-.9c-1 0-1.9-.1-2.8-.2-1.1-.1-2-.4-3.1-.8-1.2-.5-2.4-1.1-3.3-1.8-.9-.6-1.7-1.5-2.5-2.5-.7-.9-1.1-1.6-1.4-2.4l-.3-.9 1.5-.3c1.1-.3 2-.6 2.9-1.1.7-.4 1.3-.8 1.9-1.3l4.6-3.3-5.6-.6c-.8-.1-1.2-.1-1.8-.4-.7-.3-1.5-.9-2-1.4-.5-.5-.8-1.2-1.2-2.2-.3-.9-.5-1.7-.6-3-.1-1.4.1-3.4.4-5.5.3-1.7.8-4.3 1.7-6.7.8-2.1 1.8-4 3-5.8 1.2-1.7 2.7-3.4 4.2-4.7.2-.2.4-.4.6-.5l.1 2.9 3.3-2.7c1.3-1.1 2.6-2.1 3.9-3.3l2.4-2.4 2.2 3.2 1.7-5.1c.3-1 1-3.1 1.5-5 .5-2 .8-3.8.8-5.5 0-1.4-.1-3.1-.5-4.5z"/><path fill="#B54049" d="M373.8 33.1c-1.2 1.5-2.3 2.9-3.4 4s-2 1.9-3.1 2.5c-1.1.6-2.3 1-3.3 1.1-1.1.1-2-.1-3-.4-1-.3-2-.7-2.7-1.1-.6-.3-1-.7-1.5-1.1-.4.6-.7 1.1-.9 1.9-.1.4-.1.8-.2 1.3 0 0-.5 0-1.1-.1-.6-.1-1.3-.4-2.7-.7-1.3-.3-2.8-.8-4.3-1-1.5-.2-2.9-.2-4.2 0-1.3.2-2.4.5-3.5.9s-2.3.9-3.4 1.4c.4.3.7.7 1.1 1 .3.3.6.5.7.7l.1.1-.8.4c-.8.4-2.4 1.1-4.2 2.1-1.8 1-3.9 2.3-5.6 3.3-1.6 1.1-2.8 2-4.1 3-1.2 1-2.5 2-3.7 3.1.8.1 2 .3 2.7.6l-.6.8c-.6.8-1.9 2.4-3.2 4.1-1.3 1.7-2.7 3.4-4 4.9-1.3 1.5-2.5 2.7-3.6 3.7-1.2 1.1-2.3 2-3.7 2.7-1.3.8-2.8 1.4-4.1 1.9-1.3.5-2.4.9-3.4 1.1-.8.2-1.6.4-2.4.5.3.5.7 1 1.1 1.5.4.5.9 1 1.5 1.4.5.3 1 .6 1.5.8-.7.4-1.3.8-2 1.2l-2.4 1.2c.5.3 1 .7 1.6 1 .4.2.8.4 1.2.5l-.5.5c-.5.5-1.6 1.5-2.9 2.5-1.2 1-2.6 2-4.3 3.2-1.7 1.2-3.7 2.6-5.4 3.6-1.7 1.1-3.1 1.8-4.6 2.5-2.6 1.2-5.8 2.1-8.6 2.5-1.3.2-2.5.2-3.6.1-1-.1-2-.2-3.1-.3.1.6.3 1.1.5 1.7.2.6.6 1.2.9 1.7.3.5.7.9 1.1 1.4-.9.3-1.9.6-2.9.8-.9.2-1.9.3-2.8.4.5 1 .9 1.9 1.5 2.8.8 1.1 2 2.5 3.1 3.7 1.1 1.2 2 2.1 3 3 .9.8 1.9 1.6 2.9 2.2 1 .7 2.1 1.3 2.6 1.6l.5.3-.5.4c-.5.4-1.6 1.2-3.1 2.2-1.5 1-3.5 2.3-5.2 3.2-1.7 1-3.3 1.7-4.9 2.4-1.6.7-3.2 1.3-4.7 1.8s-3.1.9-4.6 1.3c.7.6 1.4 1.1 2.1 1.7.9.6 2 1.4 3.6 2.2 1.5.7 3.4 1.5 4.4 1.8l1 .4-.5.6c-.5.6-1.4 1.8-2.5 3.5s-2.5 3.8-3.8 6c-1.3 2.2-2.4 4.6-3.6 7.2-1.1 2.6-2.3 5.6-3.3 8.6s-1.9 6.1-2.4 8.3c-.4 1.8-.6 3.4-.8 5.2.9-1 1.7-1.9 2.8-2.8 1.2-1 2.9-2.2 4.3-3.1 1.4-.9 2.4-1.4 3.6-1.9 1.2-.5 2.5-1 3.2-1.3l.7-.3.2 1.2c.2 1.2.5 3.6 1.1 6.3.6 2.7 1.4 5.7 2.4 8.5s2.2 5.4 3.5 8c1.3 2.6 2.6 5.1 4.4 7.9 1.8 2.8 3.9 5.7 5.8 8.1 1.9 2.3 3.6 4 5.1 5.4 1.5 1.4 2.9 2.5 3.6 3.1l.7.6v-.5c0-.5 0-1.4.1-2.5.1-1 .3-2.2.4-2.7.1-.6.1-.6.4-.2.3.3.9 1 2 2.1 1.1 1 2.6 2.4 4.4 3.8 1.8 1.4 3.8 2.7 5.9 4.1 2.1 1.4 4.3 2.8 6.3 4.1 2.1 1.3 4.1 2.6 5.9 3.8 1.8 1.2 3.4 2.3 5 3.5 1.7 1.1 3.4 2.3 4.5 3.1 1.1.8 1.7 1.3 1.9 1.5s.3.2.3.2v-.6c0-.6 0-1.7-.1-3s-.2-2.7-.3-3.9c-.1-1.2-.2-2.3-.2-2.8v-.5l1 .4c1 .4 2.9 1.2 5 2.2 2.2 1.1 4.6 2.5 6.8 4.1 2.3 1.6 4.4 3.4 6.1 4.8 1.7 1.4 3.1 2.5 4.9 4.3 1.8 1.8 4.1 4.4 5.9 6.5 1.7 2.2 2.9 3.9 4.2 5.8 1.3 1.9 2.6 3.8 3.8 5.7.2-1.8.4-3.5.9-5.2.5-2 1.4-4.2 2.4-6.5s2.2-4.7 3.8-7.3c1.5-2.6 3.4-5.5 5.3-8.2 1.9-2.7 3.9-5.2 5.9-7.7 2.1-2.5 4.2-5.1 6.5-7.6s4.6-5 6.8-7.3c2.2-2.4 4.3-4.6 5.8-6.4 1.6-1.8 2.7-3.1 3.5-4.2.8-1 1.3-1.7 1.5-2l.2-.3.2.5c.2.5.7 1.5 1.1 2.4.4.9.6 1.7.8 2.6.2.9.2 1.8.3 2.2v.5l.8-1.2c.8-1.2 2.3-3.7 3.9-6.4 1.5-2.8 3-5.8 4.2-8.7 1.2-2.9 2.1-5.7 2.9-8.1.8-2.5 1.4-4.6 1.9-7.2.5-2.6.9-5.5 1.1-7.6.2-2.1.4-3.4.4-4l.1-.6c.2.2.4.3.6.5.6.5 1.8 1.4 2.7 2.1 1 .8 1.8 1.4 2.5 2 .7.6 1.3 1.2 1.9 1.9-.1-1.7-.2-3.3-.5-5-.2-1.7-.6-3.3-1-5-.4-1.6-1-3.2-1.7-4.9-.7-1.7-1.6-3.6-3.1-6.3-1.5-2.8-3.5-6.4-4.5-8.2l-1-1.8.8-.3c.8-.3 2.5-.9 3.8-1.6 1.3-.7 2.4-1.4 3.1-2 .8-.7 1.4-1.3 1.8-1.9.4-.5.7-1.1 1.1-1.6-.9.2-1.7.3-2.7.3-1.1.1-2.7 0-4-.2-1.3-.2-2.4-.5-3.6-1-1.2-.5-2.6-1.2-3.8-2-1.2-.9-2.2-1.9-2.9-2.8-.8-1-1.4-1.9-1.8-3-.4-1.1-.6-2.3-.7-2.9l-.1-.6c.2 0 .4-.1.6-.1.6-.1 1.9-.2 2.9-.5 1-.2 1.7-.6 2.4-.9.6-.3 1.1-.7 1.7-1.1-.9-.1-1.6-.2-2.4-.5-.9-.4-2-1.1-2.7-1.9-.8-.8-1.2-1.8-1.6-2.9-.4-1-.7-2.1-.7-3.7-.1-1.6.1-3.6.4-5.9s.9-4.8 1.8-7.1c.8-2.3 1.9-4.4 3.3-6.3 1.4-1.9 3-3.8 4.5-5.1 1.5-1.3 2.8-2.2 3.4-2.6l.6-.4v.4c0 .7.1 1.5.1 2.2 1.3-1 2.5-2.1 3.7-3.2 1.3-1.3 2.7-2.8 3.4-3.5l.7-.8.2.3.8 1.2c.1.1.1.2.2.3l.3-1c.3-1 1-3 1.5-4.9.5-1.8.7-3.5.8-5.1.1-1.6-.1-3.1-.4-4.4-.3-1.2-.8-2.2-1.4-2.9-.6-.8-1.4-1.3-2.1-1.7-.7-.3-1.2-.4-1.5-.5l-.3-.1c-.2-.9-.3-1.7-.7-2.6-.4-.9-.9-1.8-1.5-2.6-.4-.7-.9-1.3-1.4-1.9l.2-1.3c.2-1.3.6-3.8.9-6.1.3-2.3.6-4.4.6-6.2 0-1.8-.1-3.3-.5-5.3s-1.1-4.5-1.9-6.8c-.8-2.3-1.6-4.4-2-5.5s-.4-1-.4-1v-.6c0-.6.1-1.9.1-3.1-.1-1.2-.3-2.4-.9-3.3-.6-.9-1.6-1.5-2.9-2-1.2-.5-2.7-.9-3.5-1.1-.8-.2-1-.2-1.2-.1-.3.1-.6.3-.8.4l-.2.1-.2-.1c-.2-.1-.6-.4-1-.5-.4-.1-.8-.1-1.5-.1s-1.7 0-3 .3-2.8.8-3.7 1.2c-.9.4-1.2.6-1.4.8-.2.2-.4.5-.6.7-.2.3-.3.5-.4.7l.5-.1h-.3c-.3 0-.9 0-1.4.1-.4.1-.7.3-1.8 1.2s-3 2.7-5.2 4.8c-2.2 2.1-4.8 4.6-7.2 6.9-2.4 2.2-4.7 4.2-6.5 5.8-1.8 1.6-3.2 2.7-4.5 4-1.4 1.3-2.5 2.8-3.7 4.3z"/><path fill="#EDC0AD" d="M389.6 21.6c1.4-1.3 3.3-3.2 5-4.9l4.2-4.2c1.1-1.1 1.9-1.8 2.5-2.4.6-.6 1-1 1.5-1.2.4-.3.9-.4 1.1-.5l.2-.1v.4c0 .4.1 1.2.5 2 .3.8.9 1.8 1.4 2.4.6.7 1.2 1.1 1.8 1.4.6.3 1.3.4 2 .5.7.1 1.6.1 2.4.1.8 0 1.6-.1 2-.2.4 0 .4 0 .5.1.1.1.4.3.8.5l1.2.6c.4.2.8.3 1 .4l.2.1V19.3c0 1 0 2.3-.1 3.2 0 .9-.1 1.5-.2 1.9-.1.4-.1.6-.3.8-.2.2-.5.5-.9.8-.4.3-1 .7-1.5 1-.5.4-1 .8-1.5 1.3s-.9 1-1.5 1.8-1.3 1.8-2 2.9c-.7 1.1-1.4 2.4-2.2 3.8-.8 1.4-1.6 3.1-2.7 5.1-1.1 2.1-2.5 4.6-3.6 6.6s-2 3.4-3 5-2 3.3-2.9 4.7c-.9 1.4-1.5 2.4-1.9 3.1-.4.7-.6.9-.7 1.1l-.1.1.7-.4c.7-.4 2-1.1 2.9-1.7.9-.5 1.5-.9 2.5-1.4 1.1-.5 2.6-1.3 4.3-1.9 1.7-.6 3.5-1.2 5.2-1.7 1.7-.5 3.4-.9 5-1.3s3.1-.8 4.7-1.1c1.7-.2 3.5-.3 5.2-.3 1.8.1 3.5.3 4.9.5 1.4.2 2.6.5 3.5.9.9.4 1.6.8 2.1 1.4.5.6.9 1.3 1.2 2.2.2.9.3 1.9.3 2.9-.1 1-.2 2-.3 2.5l-.1.5-.1-.1c-.1-.1-.3-.4-.6-.6-.3-.2-.6-.4-.7-.5l-.1-.1v.3c0 .3-.1 1-.2 1.7-.2.8-.5 1.6-.9 2.5-.4.8-.8 1.6-1.4 2.5-.6.8-1.2 1.7-1.7 2.4s-1 1.2-1.2 1.5l-.2.3-.1-.2c-.1-.2-.3-.7-.4-1-.1-.4-.2-.6-.3-.8-.1-.2-.2-.3-.2-.4l-.1-.1-.4.4c-.4.4-1.3 1.2-2.4 2.2-1.1.9-2.3 1.9-3.8 3.2-1.4 1.3-3 2.8-4.1 4.2-1.2 1.4-1.9 2.6-2.7 4-.4.6-.7 1.3-1 2 .3-1.1.6-1.9.9-2.7.5-1.2 1-2.2 1.7-3.3.7-1.1 1.5-2.2 2.2-3.2.8-1 1.4-1.9 1.8-2.4l.3-.5-.4.4c-.4.4-1.3 1.3-2.6 2.8-1.2 1.5-2.7 3.5-4.5 6.3-1.7 2.7-3.7 6.2-5.1 9.3-1.5 3.1-2.5 5.8-3.3 8.8-.8 2.9-1.5 6-1.9 8.2-.4 2.2-.4 3.5-.2 5.1.2 1.5.5 3.3 1 4.6.4 1.3.9 2.2 1.2 2.7l.2.5-.3-.2c-.3-.2-1-.6-1.7-1s-1.3-.9-2-1.4c-.7-.5-1.5-1.2-1.9-1.5l-.4-.3.2.4c.2.4.5 1.1 1.3 3.1.9 2 2.3 5.2 3.6 8.4 1.3 3.2 2.5 6.5 3.3 9.1.8 2.6 1.2 4.6 1.4 6.9.2 2.3.2 4.9 0 7.1-.2 2.3-.6 4.2-1.2 6.1-.5 1.9-1.2 3.8-2.1 5.9-.9 2.1-2.1 4.5-3.2 6.3-1 1.8-1.9 3.2-2.3 3.8l-.4.7-.1-.4c-.1-.4-.2-1.1-.5-2-.3-.9-.8-2-1.3-3.2-.5-1.1-1.1-2.3-1.8-3.5-.7-1.2-1.5-2.4-1.9-3.1l-.4-.6-.2.9c-.2.9-.6 2.7-1.3 4.6-.6 2-1.5 4.2-2.5 6.4s-2.1 4.4-3.2 6.2c-1.1 1.9-2.1 3.4-3.4 5.2-1.3 1.8-2.8 4-4.7 6.5-1.9 2.5-4.1 5.3-5.8 7.7s-2.8 4.4-3.6 6.3c-.9 1.9-1.5 3.8-1.9 4.7l-.3.9-.6-.9c-.6-.9-1.7-2.7-2.9-4.1-1.2-1.5-2.4-2.7-3.9-3.9-1.5-1.3-3.2-2.6-5.6-4.3-2.4-1.7-5.7-3.8-8.9-5.6-3.3-1.9-6.6-3.6-10.6-5.6-4-2-8.6-4.4-12.2-6.7-3.6-2.3-6.1-4.6-7.9-6.5-1.8-2-2.9-3.6-3.4-4.4l-.5-.8-.1.2c-.1.2-.4.6-.8 1.6s-.9 2.4-1.3 3.7c-.4 1.3-.8 2.4-1.1 3.7-.3 1.4-.6 3-.7 4.7-.2 1.7-.2 3.4-.3 4.2v.9l-.5-.6c-.5-.6-1.4-1.9-2.6-3.5-1.1-1.7-2.4-3.8-3.6-6-1.2-2.2-2.2-4.6-3.2-7.6s-2.1-6.8-2.8-10c-.7-3.3-1.2-6-1.5-8.3-.3-2.2-.4-4-.5-5.6 0-1.6.1-3 .2-4.2.1-1.2.3-2.1.4-2.6l.1-.5-.4.1c-.4.1-1.1.4-1.9.8-.8.4-1.5.8-2.3 1.4-.8.6-1.8 1.3-2.5 2.1-.8.8-1.4 1.5-1.7 2-.3.4-.3.4-.4.4l.2-.8c.2-.8.6-2.4 1.1-4 .5-1.6 1.1-3.2 1.8-4.6.7-1.5 1.3-2.8 2.1-4.3.8-1.6 1.7-3.4 2.8-5.1 1.1-1.8 2.5-3.6 3.6-5 .9-1.1 1.7-1.9 2.3-2.5h.3c1.8-.1 3.4-.3 4.8-.5 1.3-.3 2.3-.6 2.9-.7l.5-.2-.1.2c-.1.2-.4.7-.7 1.2-.3.4-.6.8-.8 1l-.2.2.8-.2c.8-.2 2.4-.6 3.7-1.1s2.6-1 3.9-1.8c1.3-.8 2.8-1.8 4.3-3.1s2.9-2.8 4.1-4.2c1.2-1.4 2-2.7 2.7-3.9.7-1.2 1.2-2.2 1.6-3.3.4-1.1.7-2.1.9-2.7l.2-.5-.3.5c-.3.5-.8 1.6-1.5 2.8-.7 1.2-1.5 2.4-2.4 3.6-.9 1.2-1.9 2.4-3.1 3.6-1.2 1.2-2.5 2.4-3.8 3.3-1.3.9-2.5 1.6-3.6 2.2-1.1.6-2 1-2.4 1.2l-.4.2.1-.3c.1-.3.4-.8.6-1.3.2-.5.4-1 .5-1.2l.1-.2-.5.3c-.5.3-1.6.8-3.5 1.4-2 .6-4.8 1.2-7.4 1.4-2.5.2-4.7 0-6.7-.3s-3.8-.8-5.7-1.5c-1.9-.7-3.9-1.7-5.5-2.8-1.7-1-3-2.1-4.3-3.5-1.3-1.4-2.5-3.1-3.1-4l-.6-.9.4-.1c.4-.1 1.1-.4 2-.7.9-.3 1.9-.6 2.4-.7l.5-.1-.2-.2c-.2-.2-.6-.6-1-1.1-.4-.5-.7-1.1-.9-1.4l-.2-.3.7-.1c.7-.1 2.2-.3 3.9-.8 1.8-.5 3.9-1.3 6-2.4 2.1-1.1 4.3-2.4 6.4-3.8 2.1-1.4 4.2-2.8 6.2-4.3 2-1.6 4-3.3 5.6-4.8 1.6-1.5 2.9-2.6 3.6-3.2l.6-.6h-.2c-.2 0-.6.1-1.2.1-.5 0-1.2-.1-1.5-.1h-.3l.4-.2c.3-.2 1-.7 1.8-1.2.7-.5 1.5-1.2 1.9-1.5l.4-.3h-.3c-.3 0-.8-.1-1.3-.3-.5-.1-1-.4-1.3-.5-.3-.2-.5-.3-.5-.3l-.1-.1.6-.3c.6-.3 1.9-.8 3.5-1.6 1.6-.9 3.5-2.1 5.1-3.3 1.5-1.2 2.7-2.4 4.1-4.1 1.4-1.7 3.1-3.9 4.5-5.8 1.4-1.8 2.6-3.3 3.8-4.4 1.2-1.2 2.3-2.1 2.8-2.5l.6-.4-.2-.1c-.2-.1-.6-.2-1.1-.2-.5-.1-1.1-.1-1.4-.1-.3 0-.3 0 .5-.6s2.3-1.7 3.9-2.7c1.6-1.1 3.4-2.1 5-2.9 1.6-.8 3-1.5 4.5-2.2 1.5-.7 3.2-1.3 4-1.6l.8-.3-.2-.1c-.2-.1-.6-.4-.9-.6-.3-.2-.5-.3-.7-.4l-.1-.1.4-.1c.4-.1 1.2-.2 2.2-.3 1-.1 2.1 0 3.2.2 1 .2 2 .5 3 .8 1 .3 2 .6 3.1.7 1 .2 2 .2 3 0s2-.6 2.5-.9l.5-.2.4.1c.4.1 1.2.3 1.9.4.8.1 1.5.1 2.4-.1.9-.2 2-.5 2.9-1 .9-.5 1.7-1.2 2.5-2.1.8-.9 1.8-2.2 2.9-3.4 1.1-1.3 2.3-2.7 3.4-3.8 1-1.2 1.9-2.1 3-3.2s2.5-2.3 3.5-3.1c1-.8 1.7-1.3 2.4-1.9 1-1.4 1.8-2.2 3.2-3.5zM291 120.7h.2-.2z"/><path fill="#EFD4C5" d="M294.9 120.8h.3c1.2 0 2.3-.1 3.2-.3-.5.7-1 1.5-1.5 2.3-1.1 1.6-2.2 3.2-3.3 5.2-1.1 2-2.3 4.3-2.8 5.5l-.6 1.2 1-.6c1-.6 2.9-1.8 4.7-2.8 1.7-.9 3.3-1.6 4-1.9l.8-.3-.4 1.1c-.4 1.1-1.3 3.3-2 5.7-.7 2.5-1.2 5.3-1.4 8.6-.1 3.3.1 7.1.3 9l.1 1.9.9-1.3c.9-1.3 2.8-3.8 4.7-6 1.9-2.2 3.8-3.9 4.8-4.8l1-.9.2 1.6c.2 1.6.5 4.7 2.2 8.8 1.6 4.1 4.6 9 7.9 13 3.3 4 6.8 7 8.6 8.6l1.8 1.5.2-1c.2-1 .6-2.9 1.1-4.6.5-1.8 1-3.4 1.5-5s1.1-3.3 1.3-4.1l.3-.8.9 1.8c.9 1.8 2.8 5.4 5 8.8 2.3 3.4 5 6.5 7.7 9.1 2.7 2.5 5.3 4.5 6.6 5.5l1.3 1 .6-1.2c.6-1.2 1.8-3.5 3.2-7 1.3-3.5 2.8-8.2 3.5-10.5l.7-2.3.7 1.6c.7 1.6 2 4.7 3.3 7.3 1.3 2.6 2.4 4.7 3 5.8l.6 1.1.5-1.2c.5-1.2 1.5-3.5 3-6.6 1.4-3.1 3.3-7 5.1-11.8 1.8-4.8 3.5-10.3 4.3-13.1l.9-2.8 1.3 1.1c1.3 1.1 3.8 3.3 5.8 5.3s3.5 4 4.2 4.9l.7 1 .5-1.8c.5-1.8 1.4-5.5 1.8-9.4.4-3.9.4-8.1.2-11.5-.2-3.4-.6-6.1-1.6-9.3-1-3.2-2.5-6.9-3.2-8.8l-.8-1.9.9.4c.9.4 2.8 1.1 3.8 1.4l.9.4.1-.7c.1-.7.2-2 .8-4.7.6-2.7 1.7-6.8 3-10.1.8-2.1 1.6-3.8 2.6-5.5-.8 2-1.5 3.9-2 5.9-.8 2.9-1.5 6-1.9 8.2-.4 2.2-.4 3.5-.2 5.1.2 1.5.5 3.3 1 4.6.4 1.3.9 2.2 1.2 2.7l.2.5-.3-.2c-.3-.2-1-.6-1.7-1s-1.3-.9-2-1.4c-.7-.5-1.5-1.2-1.9-1.5l-.4-.3.2.4c.2.4.5 1.1 1.3 3.1.9 2 2.3 5.2 3.6 8.4 1.3 3.2 2.5 6.5 3.3 9.1.8 2.6 1.2 4.6 1.4 6.9.2 2.3.2 4.9 0 7.1-.2 2.3-.6 4.2-1.2 6.1-.5 1.9-1.2 3.8-2.1 5.9-.9 2.1-2.1 4.5-3.2 6.3-1 1.8-1.9 3.2-2.3 3.8l-.4.7-.1-.4c-.1-.4-.2-1.1-.5-2-.3-.9-.8-2-1.3-3.2-.5-1.1-1.1-2.3-1.8-3.5-.7-1.2-1.5-2.4-1.9-3.1l-.4-.6-.2.9c-.2.9-.6 2.7-1.3 4.6-.6 2-1.5 4.2-2.5 6.4s-2.1 4.4-3.2 6.2c-1.1 1.9-2.1 3.4-3.4 5.2-1.3 1.8-2.8 4-4.7 6.5-1.9 2.5-4.1 5.3-5.8 7.7s-2.8 4.4-3.6 6.3c-.9 1.9-1.5 3.8-1.9 4.7l-.3.9-.6-.9c-.6-.9-1.7-2.7-2.9-4.1-1.2-1.5-2.4-2.7-3.9-3.9-1.5-1.3-3.2-2.6-5.6-4.3-2.4-1.7-5.7-3.8-8.9-5.6-3.3-1.9-6.6-3.6-10.6-5.6-4-2-8.6-4.4-12.2-6.7-3.6-2.3-6.1-4.6-7.9-6.5-1.8-2-2.9-3.6-3.4-4.4l-.5-.8-.1.2c-.1.2-.4.6-.8 1.6s-.9 2.4-1.3 3.7c-.4 1.3-.8 2.4-1.1 3.7-.3 1.4-.6 3-.7 4.7-.2 1.7-.2 3.4-.3 4.2v.9l-.5-.6c-.5-.6-1.4-1.9-2.6-3.5-1.1-1.7-2.4-3.8-3.6-6-1.2-2.2-2.2-4.6-3.2-7.6s-2.1-6.8-2.8-10c-.7-3.3-1.2-6-1.5-8.3-.3-2.2-.4-4-.5-5.6 0-1.6.1-3 .2-4.2.1-1.2.3-2.1.4-2.6l.1-.5-.4.1c-.4.1-1.1.4-1.9.8-.8.4-1.5.8-2.3 1.4-.8.6-1.8 1.3-2.5 2.1-.8.8-1.4 1.5-1.7 2-.3.4-.3.4-.4.4l.2-.8c.2-.8.6-2.4 1.1-4 .5-1.6 1.1-3.2 1.8-4.6.7-1.5 1.3-2.8 2.1-4.3.8-1.6 1.7-3.4 2.8-5.1 1.1-1.8 2.5-3.6 3.6-5 .5-1.8 1.3-2.7 1.9-3.2z"/><path fill="#B54049" d="M351.2 51c.7-.4 1.7-.8 2.6-1.2s1.7-.5 2.6-.6c.8-.1 1.7-.2 2.4-.3.7 0 1.3 0 1.9-.1.6 0 1.1-.1 1.6-.3.5-.2 1.1-.4 1.4-.5l.3-.1-.2.2c-.2.2-.7.5-1.3.8-.5.3-1.1.4-1.8.7-.7.2-1.4.6-2 .8-.6.3-1.2.5-1.8.8-.6.3-1.2.8-1.7 1.2-.5.4-.9.8-1.1 1l-.5.5c-.1.1-.1.1-.5.2s-1.3.3-2.2.6l-2.7.9c-.8.4-1.6.8-2.1 1.2-.6.4-1 .8-1.5 1.3s-.9 1-1.3 1.5-.7.9-.9 1.2l-.2.2.2-.4c.2-.4.6-1.3 1.2-2.2.5-.9 1.2-1.8 1.9-2.7.6-.8 1.3-1.5 1.9-2.1.7-.6 1.4-1.2 2.1-1.6.5-.3 1-.6 1.7-1z"/><path fill="#B54049" d="M339.5 53.3c1.5-.8 3-1.4 4.3-1.9 1.3-.5 2.4-1 3.5-1.3 1.1-.3 2.1-.6 3-.8.9-.2 1.6-.3 2-.3l.4-.1-.6.2c-.6.2-1.7.7-2.7 1.3-1 .5-1.9 1.1-2.8 1.9-.9.7-2 1.6-2.8 2.4-.8.8-1.5 1.5-2.1 2.3-.7.8-1.3 1.6-1.9 2.4-.6.8-1.2 1.6-1.7 2.3-.5.7-.8 1.3-1.2 1.9-.4.6-.7 1.1-.9 1.4l-.2.3.3-.3c.3-.3 1-.8 1.7-1.2.7-.4 1.4-.7 1.9-1 .5-.2.7-.4.8-.4l.1-.1-.2.2c-.2.2-.6.7-1 1.2s-.8 1.1-1.2 1.7c-.4.6-.7 1.2-1.1 1.9-.4.7-.7 1.5-1.1 2.4-.4.9-.8 2-1.1 3-.3 1-.5 1.9-.6 2.3l-.1.4.2-.4c.2-.4.6-1.1 1.2-2 .6-.9 1.4-1.8 2.2-2.8.8-.9 1.7-1.9 2.5-2.7.8-.8 1.6-1.5 2.4-2.1.7-.6 1.5-1.1 2.1-1.5.7-.4 1.3-.8 2.3-1.3 1-.5 2.4-1.1 3.8-1.7 1.3-.6 2.5-1.1 3.9-1.7 1.3-.6 2.7-1.4 3.9-2.1 1.2-.7 2.1-1.4 3-2.2.9-.8 1.7-1.6 2.5-2.3.8-.7 1.4-1.4 2-2 .6-.6 1-1.2 1.2-1.5l.2-.3-.2.5c-.2.5-.7 1.4-1.4 2.5-.7 1.2-1.7 2.6-2.5 3.8-.9 1.2-1.7 2.3-2.7 3.6-1 1.2-2.1 2.6-3.1 3.9-1 1.2-2 2.2-2.9 3.1-.9.9-1.7 1.6-2.4 2.2-.7.6-1.3 1-1.9 1.4-.6.4-1.3.7-1.7.9l-.3.2.3-.3c.3-.3.8-.8 1.4-1.3.5-.6 1.1-1.2 1.5-1.9.5-.6.8-1.3 1.2-2 .4-.8.8-1.6 1-2.1l.2-.4-.3.1c-.3.1-1 .4-1.9.8-1 .5-2.2 1.1-3.2 1.7-1 .6-1.8 1.1-2.6 1.6-.8.6-1.5 1.2-2.4 2-.9.9-2 1.9-2.8 2.9-.8.9-1.4 1.7-2.1 2.5-.7.8-1.4 1.5-2.1 2.5-.7 1-1.5 2.1-2.1 3.3-.6 1.2-1.2 2.4-1.7 3.5s-.9 2.1-1.2 3.2c-.3 1.1-.6 2.2-.7 2.8l-.1.6v-.6c0-.6-.1-1.9-.1-3.3s.1-2.9.2-4.2c.1-1.4.2-2.6.4-4s.5-2.9.8-4.2c.3-1.2.6-2.2.7-2.7l.1-.5-.2.2-.9.9c-.4.4-.9.8-1.3 1.3s-.8 1-1 1.3l-.2.3.2-.6c.2-.6.5-1.7.9-2.8.4-1.1.8-2.3 1.4-3.5.5-1.2 1.2-2.6 1.8-3.8.6-1.2 1.3-2.3 1.9-3.3.7-1 1.3-1.9 2-2.8.7-.9 1.3-1.7 1.6-2.1l.3-.4-.4.2c-.4.2-1.3.5-2.1.8-.7.3-1.3.5-1.8.8-.6.3-1.1.6-1.8 1.1-.7.5-1.4 1.1-1.8 1.4l-.4.3.3-.4c.3-.4 1-1.3 1.7-2 .7-.8 1.5-1.4 2.7-2.2.6-.7 2.1-1.5 3.6-2.3zM305.2 98.3c-1.9.6-4.3 1.5-6.7 2.2-2.3.7-4.5 1.2-6.8 1.7-2.2.5-4.5 1.1-6.7 1.6-2.1.5-4.1 1-5.7 1.4-1.6.4-2.8.8-3.5 1.1-.7.3-1 .6-1.1.8-.1.2-.2.3 0 .8.2.4.6 1.2 1.4 2 .9.8 2.2 1.7 3.5 2.5s2.5 1.5 4 2.1c1.4.6 3.1 1.1 4.8 1.4 1.7.3 3.6.3 5.2.2 1.6-.2 3-.6 4-1.1 1-.5 1.7-.9 2.3-1.5.6-.6 1.1-1.2 1.3-1.5.2-.3.2-.3-.1-.5-.3-.2-1-.6-1.3-.8-.3-.2-.3-.2.1-.4s1.3-.5 2.3-.7c1-.3 2.1-.5 3.2-.7 1.1-.2 2.3-.5 2.8-.6l.6-.1-.2-.1c-.2-.1-.5-.4-1-.6l-1.2-.6-.3-.1.5-.1c.5-.1 1.4-.3 2.3-.6.9-.3 1.7-.6 2.3-.9.6-.3 1.1-.5 1.3-.7s.2-.1.2-.1h-2.1c-.6 0-1-.1-1.4-.2-.4-.1-.7-.1-.8-.2h-.1l.4-.3c.4-.3 1.3-.9 2.4-1.7s2.3-1.9 3.5-3c1.2-1.1 2.4-2.2 3.7-3.6 1.2-1.4 2.5-3 3.4-4.6.9-1.5 1.5-3 1.7-3.7l.3-.7-.5.6c-.5.6-1.6 1.9-3.1 3.3-1.5 1.3-3.5 2.7-5.3 3.8-1.8 1.1-3.5 2-5 2.7-1.5.4-2.8.9-4.6 1.5zM375.5 92.5c.5-1.3 1.3-3 2.3-4.7.9-1.6 2-3.2 3.1-4.6 1.1-1.4 2.2-2.8 3.3-4 1.1-1.2 2.3-2.4 3.5-3.4 1.2-1 2.4-1.8 3.1-2.3l.6-.4-.3.4c-.3.4-1 1.2-1.6 2.1-.6.9-1.3 1.9-1.9 3.1-.7 1.1-1.3 2.4-1.9 3.7-.6 1.3-1.1 2.6-1.5 3.9-.4 1.3-.7 2.4-1 3.6-.3 1.2-.5 2.5-.6 3.4-.1 1-.1 1.6-.1 2v.3l.4-.6c.4-.6 1.1-1.7 2.1-3s2.3-2.9 3.5-4.2c1.2-1.3 2.3-2.4 3.2-3.2 1-.9 1.9-1.5 2.3-1.9l.4-.3-.3.5c-.3.5-.8 1.6-1.3 3-.6 1.4-1.2 3.2-1.8 5.1-.5 1.8-1 3.7-1.3 5.5-.3 1.8-.6 3.4-.8 4.9-.2 1.5-.3 3-.3 4.4v4.1l.4-1c.4-1 1.3-3.1 2.3-5.2 1-2.1 2.1-4.1 3.4-6.3 1.3-2.1 2.7-4.4 4.1-6.3 1.4-1.9 2.8-3.5 3.8-4.6 1-1.1 1.7-1.7 2-2l.3-.3-.3.6c-.3.6-1 1.9-1.9 3.8-.9 1.9-2 4.4-2.8 7.1-.9 2.7-1.6 5.4-2 7.8-.4 2.4-.6 4.3-.7 6.1-.1 1.8 0 3.5 0 4.3v.8l-.1-.7c-.1-.7-.4-2-.6-3.6-.2-1.5-.5-3.3-.6-4.7-.1-1.4-.1-2.6 0-3.4v-1.7-.3l-.4.8c-.4.8-1.2 2.5-2 4.5s-1.7 4.4-2.5 6.4c-.7 2-1.3 3.8-1.7 5.7-.5 1.9-.9 4-1.1 5.7-.3 1.8-.5 3.3-.6 4.4-.1 1.1-.1 1.9-.1 2.3v.4l-.3-.9c-.3-.9-.9-2.8-1.3-5-.5-2.1-.8-4.5-1.1-6.8-.3-2.3-.5-4.4-.6-6.5-.1-2 .1-3.9.2-5.8s.2-3.9.4-5.5c.2-1.7.4-3 .5-3.7l.1-.7-.4.6c-.4.6-1.2 1.8-1.9 2.9-.7 1.2-1.4 2.4-1.9 3.3-.5 1-.9 1.7-1.2 2.5-.3.8-.6 1.6-.7 2l-.3 1.1-.1-.5c-.1-.5-.2-1.6-.3-3-.1-1.3-.1-3 0-4.5.1-1.6.2-3.2.5-4.8.2-1.6.5-3.2.8-4.4.2-1.2.4-1.9.5-2.3l.1-.4-.3.8c-.3.8-1 2.3-1.5 3.4s-.8 1.9-1.3 3.3-1.1 3.4-1.6 5.6c-.6 2.2-1.1 4.4-1.7 6.8-.6 2.3-1.3 4.7-1.9 6.6-.6 1.9-1.2 3.5-1.8 5.1-.7 1.7-1.5 3.5-2.3 5.1-.8 1.6-1.5 2.9-2.2 4-.7 1.1-1.3 2-1.6 2.5l-.3.4.1-.4c.1-.4.2-1.3.2-2.2.1-.9 0-1.9 0-2.9v-2.1-.4l-.3.5c-.3.5-.9 1.4-1.7 2.4-.8 1-1.8 2.2-2.9 3.4-1.1 1.2-2.2 2.4-3.6 3.9-1.4 1.4-2.9 3.1-4.5 4.6-1.6 1.5-3.1 2.9-3.9 3.5l-.8.7.1-.4c.1-.4.4-1.1.6-2.3.2-1.2.2-2.9.2-4.6 0-1.7-.2-3.4-.3-4.5-.1-1.1-.2-1.6-.2-1.8v-.2l-.8.1c-.8.1-2.4.3-4.9.4-2.5.1-5.8.1-8.7 0-2.9-.1-5.3-.2-7.9-.6-2.6-.3-5.4-.8-6.8-1.1l-1.4-.3.3-.1c.3-.1.8-.4 1.3-.8s.9-.8 1.1-1l.2-.2h-.6c-.6 0-1.9 0-3.4-.1s-3.2-.2-4.6-.4c-1.5-.2-2.7-.4-3.4-.5l-.6-.1H313c1.9-.1 3.5-.2 4.9-.4 1.4-.2 2.7-.4 3.9-.7 1.2-.3 2.4-.6 3-.8l.6-.2-.1.2c-.1.2-.4.6-.8 1.1-.4.5-.8 1-1 1.3l-.2.3h.9c.9 0 2.7.1 4.7.1 2.1 0 4.5 0 6.6-.1 2.1-.1 4-.3 6.1-.6 2.1-.3 4.5-.7 6.3-1.2 1.8-.5 3.1-1 3.7-1.2l.6-.3.1.4c.1.4.3 1.3.5 2.2.2.9.3 1.7.4 2.4.1.6.1 1.1.2 1.3v.2l.6-.6c.6-.6 1.7-1.7 2.9-3.1 1.3-1.4 2.6-3 3.9-4.6 1.3-1.6 2.4-3.2 3.3-4.5.9-1.3 1.4-2.4 1.9-3.3.5-.9.9-1.8 1.2-2.2l.2-.4.1.3c.1.3.2 1 .3 1.8.1.7.2 1.6.2 2.2 0 .7.1 1.3.1 1.6v.3l.4-1c.4-1 1.3-2.9 2.1-5.4.8-2.4 1.6-5.3 2.3-7.7.7-2.4 1.2-4.3 1.6-5.6.1-1.5.4-2.2 1-3.5zM408.5 59.5c1.1-.4 2.2-.7 3.3-.9 1.1-.3 2.2-.4 3.2-.6.9-.1 1.6-.2 2.4-.2.8 0 1.5.1 1.9.1h.4l-.2.1c-.2.1-.7.2-1.3.5-.6.3-1.3.7-2 1.1-.7.4-1.4.9-2.1 1.5-.7.6-1.4 1.2-1.8 1.6l-.3.3.4-.1c.4-.1 1.2-.2 2-.4s1.6-.4 2.4-.8c.8-.3 1.5-.7 1.8-.8l.4-.2v.2c0 .2-.1.5-.2.9s-.3.8-.5 1.1c-.2.3-.3.6-.4.7-.1.1-.1.1.2 0 .2-.1.7-.2 1.4-.5s1.5-.7 2.3-1.2c.8-.5 1.6-1.2 2-1.5l.4-.3.1.2c.1.2.2.6.4 1 .1.4.2.8.2 1.2.1.4.1.8.1 1v.2l.2-.2 1.1-1.1c.4-.4.6-.7.9-1.2.3-.4.6-1 .8-1.2l.2-.3.1.2c.1.2.4.5.5.9.2.4.3.8.4 1.2 0 .4 0 .8-.1 1.2-.1.4-.3.9-.5 1.3s-.4.9-.7 1.3c-.2.4-.5.8-.6 1l-.1.2.1-.3c.1-.3.2-.8.3-1.3.1-.4.1-.8.1-1.1 0-.3-.1-.6-.1-.8v-.2l-.3.3c-.3.3-.8.9-1.3 1.4-.5.5-1 1-1.5 1.3-.5.4-1 .7-1.3.9l-.3.2V67c0-.4.1-1.1.2-1.7v-1.6c0-.4-.1-.6-.1-.7v-.1l-.5.3c-.5.3-1.6.9-2.5 1.3-.9.4-1.7.8-2.5 1.1-.8.3-1.7.5-2.4.8-.7.2-1.4.3-1.7.4l-.3.1.2-.2 1-1c.4-.4.6-.7.8-1 .2-.3.4-.7.5-.9l.1-.2-.5.1c-.5.1-1.4.3-2.3.5-.9.2-1.7.4-2.4.4-.7.1-1.2.1-1.5.1h-.3l.2-.3c.2-.3.6-.8 1-1.3.5-.6 1-1.2 1.5-1.7l1-1 .2-.2-.8.1c-.8.1-2.3.2-3.8.5s-2.9.7-4.1 1.1c-1.3.4-2.4.8-3.4 1.3s-2 1.1-2.9 1.6c-.9.5-1.7 1.1-2.1 1.3l-.4.3.6-.5c.6-.5 1.7-1.4 2.8-2.2 1.1-.7 2-1.3 3.1-1.8s2.3-1.1 3.5-1.6c1.1 0 2.3-.4 3.4-.8zM410.3 4.4c.9-.1 2.1-.2 3-.3.9-.1 1.4-.1 1.7 0 .3 0 .4.1.4.2.1.1.2.2.3.4.2.1.4.3.5.4.1.1.2 0 .3-.1.1-.1.3-.4.4-.5.1-.2.2-.2.3-.2.1 0 .3 0 .6.1s.9.2 1.5.4 1.2.5 1.7.8c.6.3 1.1.6 1.4 1 .4.4.6.8.7 1.2.1.4.2.9.2 1.4v1.3c0 .4-.1.8-.2 1-.1.3-.2.4-.5.6-.2.2-.5.3-1 .4-.4.1-1 .2-1.3.2h-.3v-.1-.5-.1l.1-.1c.1-.1.4-.2.5-.3.2-.1.2-.3.3-.6 0-.3 0-.7-.1-1.2s-.2-1.1-.3-1.4c-.1-.4-.2-.6-.5-.7-.3-.1-.8-.3-1.1-.3-.3 0-.5 0-.6.1-.1.1-.2.2-.2.4 0 .3.1.6.3 1.3.1.7.3 1.7.4 2.3.1.6.1.9.1 1.2v.9c0 .2 0 .4-.2.7-.2.3-.5.7-.7.9-.2.2-.3.2-.7 0-.4-.1-1-.4-1.5-.7-.5-.2-.8-.5-1-.8-.2-.3-.2-.7-.3-1.3-.1-.6-.2-1.4-.4-2.2-.2-.7-.4-1.4-.5-1.7-.1-.3-.2-.4-.5-.5-.3-.1-.8-.3-1.5-.4-.6-.1-1.3-.1-1.8 0-.5 0-.7.1-.8.2-.1.1-.2.3-.3.6 0 .4-.1 1 0 1.5 0 .5.1.9.2 1.2.1.3.3.6.5.7.2.2.4.3.7.4.3.1.7.2 1.2.2.6.1 1.3.1 1.6.1h.4v.2c0 .2.1.5.1.6v.2H411c-.7 0-1.4-.1-2-.3-.6-.1-1.2-.4-1.7-.8s-1-1.1-1.3-1.8c-.3-.7-.5-1.5-.6-2.1-.1-.7 0-1.2.2-1.7s.6-.9 1-1.3c.4-.3.8-.6 1.2-.8 1.1-.1 1.6-.2 2.5-.3z"/><path fill="#FFF" d="M413.2 51c0-.3-.1-.8-.2-1.3-.1-.4-.2-.8-.3-1.1-.1-.3-.2-.5-.2-.6v-.1l.2.1c.2.1.6.3 1 .7.4.3.8.7 1.2 1.1.4.4.7.7.9 1.1.2.4.4.7.5.9l.1.2-.1.1c-.1.1-.3.3-.5.4-.2.2-.5.3-.8.3-.3.1-.7.1-1 .1-.3 0-.4 0-.5-.1h-.1v-.2c0-.2-.1-.6-.1-.9 0-.3-.1-.4-.1-.7zM430.5 50.5l-.6-1.5c-.2-.5-.4-.9-.5-1.1l-.1-.2v.2c0 .2-.1.6-.2 1.1-.1.4-.2.8-.3 1.3-.1.4-.3.8-.4 1.1-.1.3-.2.4-.2.5v.1l.1.1c.1.1.3.3.6.4.3.1.6.2.9.2.3 0 .5 0 .7-.1.2-.1.4-.2.4-.3l.1-.1-.1-.3c-.1-.3-.2-.9-.4-1.4z"/><path fill="#EDC0AD" d="M426 19.6c-.4-1.1-.9-2.5-1.3-3.6s-.8-2-1-2.4l-.2-.4-.1.1c-.1.1-.2.2-.4.3-.3.1-.7.2-1.1.3-.4.1-.8.1-.9.2-.2 0-.2 0-.2.1s-.1.3-.3.5c-.1.2-.4.5-.7.8-.3.3-.6.6-.8.7-.2.1-.2.2-.2.2v.3c0 .3 0 .9.1 1.8v3.4c0 1.2-.1 2.2-.1 2.8 0 .6 0 .7.1.8.1.1.2.2.6.5.4.3 1 .7 1.6 1.2.5.5 1 1.1 1.3 1.6.4.6.6 1.1.9 1.7.2.6.4 1.2.5 2 .1.8.1 1.8.1 2.6 0 .9-.1 1.6-.2 2.7s-.4 2.6-.6 4c-.2 1.5-.5 3-.7 4.4-.3 1.4-.5 2.6-.7 3.4-.2.8-.3 1.3-.3 1.5v.2h1.7c.5 0 .8.1 1 .1h.2l.2-.8c.2-.8.5-2.3.9-4 .4-1.7.8-3.5 1.2-5.2.4-1.6.7-3.1.9-4.5.3-1.4.5-2.8.6-4.1.1-1.3.2-2.5.2-3.7 0-1.1-.2-2.2-.4-3.2-.2-1.1-.5-2.2-.8-3.3-.5-.9-.8-1.8-1.1-3z"/><path fill="#EFD4C5" d="M426 19.6c-.4-1.1-.9-2.5-1.3-3.6s-.8-2-1-2.4l-.2-.4-.1.1c-.1.1-.2.2-.4.3-.3.1-.7.2-1.1.3-.4.1-.8.1-.9.2-.2 0-.2 0-.2.1s-.1.3-.2.5c.2 0 .5.1.7.2.4.1.6.3 1 .8.3.5.7 1.3 1.2 2.5s1 2.7 1.4 4.2c.4 1.6.8 3.2 1 4.7.2 1.5.4 2.8.3 4.3 0 1.6-.2 3.4-.4 5.2-.2 1.7-.5 3.3-.9 5.2-.4 1.8-.8 4-1.1 5.6-.3 1.6-.5 2.8-.6 3.5 0 .2 0 .3-.1.4.5 0 .8.1 1 .1h.2l.2-.8c.2-.8.5-2.3.9-4 .4-1.7.8-3.5 1.2-5.2.4-1.6.7-3.1.9-4.5.3-1.4.5-2.8.6-4.1.1-1.3.2-2.5.2-3.7 0-1.1-.2-2.2-.4-3.2-.2-1.1-.5-2.2-.8-3.3-.5-.9-.8-1.8-1.1-3z"/><path fill="#B54049" d="M403.9 55.4c.9-.3 1.9-.7 2.8-1 .9-.3 1.8-.6 2.6-.9.8-.3 1.7-.5 2.1-.6l.4-.1v-.3V51c0-.6-.1-1.2-.3-1.8-.2-.6-.4-1.2-.6-1.7-.2-.5-.3-.8-.4-1-.1-.2-.1-.2 0-.3.1 0 .2 0 .5.1s.8.4 1.4.7c.6.3 1.2.8 1.7 1.2.5.4.9.7 1.2 1 .3.3.5.6.8.9.3.3.6.8.8 1l.2.2s.1.1.4.1c.3 0 .8 0 1.2-.1.4-.1.7-.1.9-.2.2 0 .2-.1.4-1 .2-1 .6-2.9 1-5 .4-2.2.8-4.6 1-6.1.2-1.5.3-2.2.4-3.1 0-.9 0-2-.1-2.8-.1-.8-.1-1.2-.3-1.8-.2-.5-.5-1.2-.8-1.7-.3-.5-.6-.9-1-1.3s-.9-.7-1.3-1c-.4-.2-.7-.3-.9-.3h-.5c-.2.1-.7.2-1.1.4-.4.2-.9.5-1.3.9-.5.4-.9.9-1.4 1.4-.5.6-1 1.2-1.7 2.2-.6.9-1.3 2.2-2 3.4-.7 1.2-1.3 2.5-2 3.8-.7 1.3-1.3 2.6-1.9 3.8-.6 1.2-1.2 2.2-1.8 3.2-.6 1-1.3 2-1.9 3.1-.7 1.1-1.3 2.2-1.8 3.1-.5.9-.9 1.6-1.4 2.5-.5.8-1.1 1.8-1.5 2.4-.4.6-.5.8-.6.9l-.1.1.3-.2c.3-.2.9-.5 1.7-.8.7-.4 1.6-.8 2.4-1.1.9-.1 1.6-.4 2.5-.7z"/><path fill="#E04E53" d="M412.3 86.7c-.4.7-.7 1.5-1 2.2-.6 1.5-1.1 3-1.4 4.4-.3 1.4-.5 2.6-.7 4.2-.2 1.6-.3 3.5-.3 5.1 0 1.6.2 2.9.5 4s.7 2 1.1 2.7c.4.7.8 1.1 1.1 1.5.4.4.7.6 1 .8.3.2.6.3.8.4l.2.1h-.2c-.2 0-.6.1-1.1.1-.5 0-1.1.1-1.7 0-.6-.1-1.3-.2-1.7-.2l-.3-.1v.4c0 .4.1 1.3.4 2.4.3 1.1.7 2.5 1.3 3.9.6 1.3 1.3 2.6 2.2 3.6.8 1.1 1.8 2 2.7 2.7.8.7 1.5 1.2 2.4 1.7.8.5 1.7.9 2.7 1.3.9.4 1.8.7 2.8.9 1 .2 2 .3 2.5.4l.5.1-.6.2c-.6.2-1.7.7-2.6 1.1-1 .3-1.8.5-2.7.7-.8.1-1.7.2-2.4.2s-1.3.1-1.6.1h-.3l.3.4c.3.4.9 1.2 1.5 2.1.6 1 1.3 2.1 2.3 3.8 1 1.7 2.4 4.1 3.5 6.1s2 3.6 2.6 5c.7 1.4 1.2 2.6 1.6 3.5.4.9.7 1.6 1 2.3.3.8.5 1.6.6 2.3.1.7.2 1.1.3 1.3v.2l-.3-.3c-.3-.3-.8-.8-1.7-1.4-.8-.7-2-1.4-3.2-2.1-1.2-.7-2.4-1.3-3-1.6l-.6-.3.1.6c.1.6.4 1.8.5 3 .1 1.2.1 2.6.1 4.2-.1 1.7-.3 3.7-.6 6.1-.4 2.4-1 5.3-1.9 8.6-.9 3.3-2.2 7-3.4 9.9-1.2 2.9-2.3 5.1-3 6.5-.8 1.5-1.2 2.2-1.4 2.6l-.2.4-.2-.4c-.2-.4-.5-1.3-1-2.1s-1.1-1.6-1.6-2.2c-.5-.6-.8-.9-.9-1.1l-.2-.2-.3.6c-.3.6-1 1.7-2.2 3.5-1.3 1.7-3.2 4-5 6.2-1.9 2.2-3.7 4.2-5.8 6.4-2.1 2.2-4.4 4.6-6.4 6.5-1.9 2-3.5 3.5-5 5.1-1.5 1.6-3 3.1-4.4 4.8-1.4 1.7-2.8 3.6-4.4 6-1.6 2.4-3.4 5.3-4.7 7.6-1.3 2.2-2.2 3.8-3.2 5.8s-2.2 4.7-2.9 6l-.6 1.3-.5-.8c-.5-.8-1.6-2.4-2.8-4-1.2-1.6-2.5-3.1-4.3-5-1.8-1.8-3.9-3.9-6.1-5.9-2.2-1.9-4.3-3.8-6.5-5.3-2.2-1.6-4.4-2.9-6.9-4.3-2.5-1.3-5.3-2.6-7.2-3.4-1.9-.8-2.9-1.1-3.3-1.3l-.5-.2v.4c0 .4-.1 1.3 0 2.7 0 1.4.1 3.2.1 4.1v.9l-.8-.6c-.8-.6-2.5-1.9-5.2-3.7-2.7-1.8-6.5-4.2-9.5-6-3-1.8-5.1-3-7-4.2-1.9-1.2-3.5-2.5-5-3.9-1.4-1.4-2.7-2.9-3.7-4.3-1-1.5-1.9-2.9-2.3-3.6l-.4-.7-.2.4c-.2.4-.6 1.1-1.1 2.2-.4 1.1-.9 2.5-1.1 3.2l-.2.7-.4-.5c-.4-.5-1.3-1.4-2.8-3.2-1.5-1.8-3.7-4.4-5.6-7.2-1.9-2.8-3.4-5.7-5-9s-3.1-7-4.3-10.7c-1.2-3.7-2-7.3-2.4-9.8-.4-2.5-.5-3.8-.6-4.4v-.6l-.9.3c-.9.3-2.6 1-4 1.5-1.5.5-2.6 1-3.6 1.4-1 .4-1.7.9-2.4 1.3-.6.4-1.1.7-1.3.8l-.2.2.4-1c.4-1 1.1-3 1.8-5 .8-1.9 1.5-3.7 2.5-5.9 1-2.1 2.2-4.6 3.1-6.5.9-1.9 1.6-3.3 2.6-4.9.9-1.6 2.2-3.5 3.4-5.1 1.3-1.7 2.6-3.1 3.3-3.9l.7-.7-.8-.1c-.8-.2-2.5-.5-4.1-.9-1.5-.4-2.9-.9-3.9-1.3s-1.6-.9-2-1.1l-.3-.2.7-.2c.7-.2 2.2-.6 4-1.4 1.8-.8 4-2 5.7-3 1.7-.9 2.8-1.5 4-2.3 1.2-.8 2.4-1.8 3.2-2.5.8-.7 1.3-1.2 1.6-1.4l.2-.2.4.2c.4.2 1.2.5 2.7 1 1.5.4 3.8 1 6 1.2 2.1.3 4 .3 5.8.3-.6.6-1.4 1.4-2.3 2.5-1.2 1.4-2.5 3.2-3.6 5-1.1 1.8-2 3.6-2.8 5.1-.8 1.6-1.5 2.9-2.1 4.3-.7 1.5-1.3 3-1.8 4.6-.5 1.6-.9 3.2-1.1 4l-.2.8.4-.4c.3-.4.9-1.2 1.7-2 .8-.8 1.7-1.5 2.5-2.1.8-.6 1.6-1 2.3-1.4.8-.4 1.5-.7 1.9-.8l.4-.1-.1.5c-.1.5-.2 1.4-.4 2.6-.1 1.2-.2 2.6-.2 4.2s.2 3.3.5 5.6c.3 2.2.8 5 1.5 8.3.7 3.3 1.8 7 2.8 10 1 3 2.1 5.4 3.2 7.6 1.2 2.2 2.4 4.3 3.6 6 1.1 1.7 2.1 2.9 2.6 3.5l.5.6v-.9c0-.9.1-2.6.3-4.2.2-1.7.4-3.4.7-4.7.3-1.4.7-2.5 1.1-3.7.4-1.3 1-2.7 1.3-3.7.4-1 .7-1.4.8-1.6l.1-.2.5.8c.5.8 1.6 2.5 3.4 4.4 1.8 2 4.3 4.2 7.9 6.5 3.6 2.3 8.2 4.7 12.2 6.7s7.3 3.7 10.6 5.6c3.3 1.9 6.5 3.9 8.9 5.6 2.4 1.7 4.1 3.1 5.6 4.3 1.5 1.3 2.7 2.4 3.9 3.9 1.2 1.5 2.3 3.3 2.9 4.1l.6.9.3-.9c.3-.9 1-2.8 1.9-4.7.9-1.9 2-3.9 3.6-6.3s3.9-5.2 5.8-7.7 3.4-4.6 4.7-6.5c1.3-1.8 2.3-3.4 3.4-5.2 1.1-1.9 2.2-4.1 3.2-6.2 1-2.2 1.9-4.4 2.5-6.4.6-2 1.1-3.8 1.3-4.6l.2-.9.4.6c.4.6 1.2 1.9 1.9 3.1.7 1.2 1.2 2.3 1.8 3.5.5 1.1 1 2.3 1.3 3.2.3.9.4 1.7.5 2l.1.4.4-.7c.4-.7 1.3-2 2.3-3.8 1-1.8 2.2-4.2 3.2-6.3.9-2.1 1.6-4 2.1-5.9.5-1.9 1-3.8 1.2-6.1.2-2.3.2-4.9 0-7.1-.2-2.3-.6-4.3-1.4-6.9-.8-2.6-2-5.9-3.3-9.1-1.3-3.2-2.7-6.4-3.6-8.4-.9-2-1.2-2.7-1.3-3.1l-.2-.4.4.3c.4.3 1.1.9 1.9 1.5.7.5 1.4 1 2 1.4.7.4 1.4.8 1.7 1l.3.2-.2-.5c-.2-.5-.7-1.4-1.2-2.7-.4-1.3-.8-3.1-1-4.6-.2-1.5-.1-2.9.2-5.1.4-2.2 1-5.3 1.9-8.2.8-2.9 1.8-5.7 3.3-8.8 1.5-3.1 3.4-6.5 5.1-9.3 1.7-2.7 3.3-4.8 4.5-6.3 1.2-1.5 2.1-2.4 2.6-2.8l.4-.4-.3.5c-.3.5-1 1.4-1.8 2.4s-1.6 2.1-2.2 3.2c-.7 1.1-1.2 2.1-1.7 3.3-.6.7-.9 1.5-1.2 2.6z"/><path fill="#EFD4C5" d="M276.2 112.7c-.8-.6-1.5-1.3-2.2-2-1.3-1.4-2.5-3.1-3.1-4l-.6-.9.4-.1c.4-.1 1.1-.4 2-.7.9-.3 1.9-.6 2.4-.7l.5-.1-.2-.2c-.2-.2-.6-.6-1-1.1-.4-.5-.7-1.1-.9-1.4l-.2-.3.7-.1c.7-.1 2.2-.3 3.9-.8 1.8-.5 3.9-1.3 6-2.4 2.1-1.1 4.3-2.4 6.4-3.8 2.1-1.4 4.2-2.8 6.2-4.3 2-1.6 4-3.3 5.6-4.8 1.6-1.5 2.9-2.6 3.6-3.2l.6-.6h-.2c-.2 0-.6.1-1.2.1-.5 0-1.2-.1-1.5-.1h-.3l.4-.2c.3-.2 1-.7 1.8-1.2.7-.5 1.5-1.2 1.9-1.5l.4-.3h-.3c-.3 0-.8-.1-1.3-.3-.5-.1-1-.4-1.3-.5-.3-.2-.5-.3-.5-.3l-.1-.1.6-.3c.6-.3 1.9-.8 3.5-1.6 1.6-.9 3.5-2.1 5.1-3.3 1.5-1.2 2.7-2.4 4.1-4.1 1.4-1.7 3.1-3.9 4.5-5.8.2-.3.4-.5.6-.8-.6 1.2-1.3 2.5-2.1 3.9-1.3 2-3 4-4.7 5.8-1.7 1.8-3.5 3.4-4.5 4.2l-.9.8h1c.4 0 .9-.1 1.1-.1h.2l-.3.3c-.3.3-.9.8-1.6 1.3-.7.6-1.6 1.2-2.1 1.5l-.5.3h1.8c.6 0 1.1-.1 1.4-.1h.2l-.6.6c-.6.6-1.7 1.9-3 3.1-1.2 1.2-2.5 2.5-4.2 3.9-1.6 1.4-3.6 3.1-6.1 4.8-2.4 1.7-5.3 3.5-7.8 5s-4.8 2.7-6.9 3.7c-2.2.9-4.2 1.6-5.3 1.9l-1 .3.1.2c.1.2.3.7.6 1 .3.4.7.6.9.8s.2.1.2.1l-.6.3c-.6.3-1.8.8-2.9 1.2-1.1.4-2.1.7-2.6.9l-.5.2.2.5c.2.5.6 1.4 1.5 2.7 1.1.7 1.9 1.8 2.7 2.7zM389.6 21.6c1.4-1.3 3.3-3.2 5-4.9l4.2-4.2c1.1-1.1 1.9-1.8 2.5-2.4.6-.6 1-1 1.5-1.2.4-.3.9-.4 1.1-.5l.2-.1v.4c0 .3.1.9.3 1.6-.3.1-.7.3-1.2.6-.7.4-1.4 1-2.3 1.8-.9.9-1.9 2.1-3.7 3.8-1.8 1.7-4.3 4-6.2 5.8-1.9 1.8-3.3 3.2-4.7 4.8-1.5 1.6-3 3.4-4.7 5.3-1.7 2-3.5 4.1-5.4 6.1-1.9 1.9-3.9 3.6-5.3 4.8-1.4 1.2-2.3 1.8-3.5 2.2-1.2.4-2.6.6-4.4.7-1.7.1-3.7 0-5.3-.2-1.6-.2-2.8-.4-3.8-.6-.9-.2-1.5-.5-1.8-.7-.3-.1-.3-.1-.3 0s.1.4.2.6c.1.3.2.6.2.8 0 .2 0 .2-.2.1-.3-.1-.9-.2-1.6-.3-.8-.1-1.7-.2-2.9-.1s-2.7.3-4.2.6-3.1.8-5 1.5c-1.8.7-3.9 1.6-5.8 2.5-1.9.9-3.7 1.8-4.9 2.3-.1.1-.2.1-.3.2.8-.6 2.2-1.6 3.7-2.6 1.6-1.1 3.4-2.1 5-2.9 1.6-.8 3-1.5 4.5-2.2 1.5-.7 3.2-1.3 4-1.6l.8-.3-.2-.1c-.2-.1-.6-.4-.9-.6-.3-.2-.5-.3-.7-.4l-.1-.1.4-.1c.4-.1 1.2-.2 2.2-.3 1-.1 2.1 0 3.2.2 1 .2 2 .5 3 .8 1 .3 2 .6 3.1.7 1 .2 2 .2 3 0s2-.6 2.5-.9l.5-.2.4.1c.4.1 1.2.3 1.9.4.8.1 1.5.1 2.4-.1.9-.2 2-.5 2.9-1 .9-.5 1.7-1.2 2.5-2.1.8-.9 1.8-2.2 2.9-3.4 1.1-1.3 2.3-2.7 3.4-3.8 1-1.2 1.9-2.1 3-3.2s2.5-2.3 3.5-3.1c1-.8 1.7-1.3 2.4-1.9.8-.5 1.6-1.3 3-2.6zM417.7 23.5c0 .3-.1.5-.1.7-.1.4-.1.6-.3.8-.2.2-.5.5-.9.8-.4.3-1 .7-1.5 1-.5.4-1 .8-1.5 1.3s-.9 1-1.5 1.8-1.3 1.8-2 2.9c-.7 1.1-1.4 2.4-2.2 3.8-.8 1.4-1.6 3.1-2.7 5.1-1.1 2.1-2.5 4.6-3.6 6.6s-2 3.4-3 5-2 3.3-2.9 4.7c-.9 1.4-1.5 2.4-1.9 3.1-.4.7-.6.9-.7 1.1l-.1.1.7-.4c.7-.4 2-1.1 2.9-1.7.9-.5 1.5-.9 2.5-1.4 1.1-.5 2.6-1.3 4.3-1.9 1.7-.6 3.5-1.2 5.2-1.7 1.7-.5 3.4-.9 5-1.3s3.1-.8 4.7-1.1c1.7-.2 3.5-.3 5.2-.3 1.8.1 3.5.3 4.9.5 1.4.2 2.6.5 3.5.9.9.4 1.6.8 2.1 1.4.5.6.9 1.3 1.2 2.2.2.9.3 1.9.3 2.9-.1 1-.2 2-.3 2.5l-.1.5-.1-.1c-.1-.1-.3-.4-.6-.6-.3-.2-.6-.4-.7-.5l-.1-.1v.3c0 .3-.1 1-.2 1.7-.2.8-.5 1.6-.9 2.5-.4.8-.8 1.6-1.4 2.5-.6.8-1.2 1.7-1.7 2.4s-1 1.2-1.2 1.5l-.2.3-.1-.2c-.1-.2-.3-.7-.4-1 0-.1-.1-.2-.1-.2.6-.6 1.3-1.4 1.9-2.2.9-1.2 1.6-2.4 2-3.6.5-1.2.7-2.5.9-3.5.1-1 .1-1.7.1-2.4-.1-.7-.2-1.3-.3-1.6l-.1-.3-.1.1c-.1.1-.2.4-.4.7-.2.3-.4.6-.5.8l-.1.2-.1-.3c-.1-.3-.3-.8-.8-1.4-.5-.6-1.3-1.2-2.1-1.6-.7-.4-1.4-.7-2.6-.9-1.2-.2-3-.4-4.6-.4-1.5 0-2.8.2-4.4.4-1.6.2-3.6.5-5.7 1.1-2.1.6-4.4 1.4-6.5 2.1-2.1.7-3.9 1.4-5.8 2.3-1.9.9-3.7 2-5.3 3-1.6 1-2.9 1.7-3.5 2.1l-.6.4.4-.8c.4-.8 1.3-2.3 1.9-3.3.6-1 .9-1.5 1.1-1.7.2-.2.2-.2-.1-.1-.3.1-.8.3-1.1.5-.3.1-.4.2-.4.2l.6-.8c.6-.8 1.8-2.5 3.5-5.2s4-6.3 5.9-9.3c1.9-3 3.3-5.5 4.9-8 1.5-2.5 3.1-5.1 4.4-7 1.3-1.9 2.3-3.1 3.2-3.9.9-.9 1.6-1.4 2.3-1.7.7-.3 1.5-.4 2.1-1.3.1-.4.3-.7.4-1z"/></g><g fill="#B24650"><path d="M55.9 159.3l.1-6.6c.1-4.8-.1-10.4-.4-16.5-.8-14.1-.2-31.5 1.8-51.8l.2-2.4 2.1-1.3c1.3-.8 3.2-2 5.7-3.7.2-.2.8-.8 2.1-2.3 1.7-1.8 3.7-3 6-3.7.2-.1 1.4-.6 4.7-3l9.8-7-.7 4.2c.7-.5 1.4-1 2.3-1.6l7.3-5 .5 8.8c.4 6 1.1 12.4 2.1 19.1 2.5-3.8 5.7-7.7 9.7-11.9 7.3-7.6 15.4-14.3 24-20l4.6-3 2.6 4.8c.1.1.3.5.6 1l.1.2c.7 1.2 1.1 2.5 1.1 3.8v.5c0 .3 0 .5-.1.9h4.7l-2.3 5.4 6.8 2.2-7.3 5.8c-13.5 10.7-16.8 16.2-17.5 18.4.1 0 .2.1.3.1 2.6.9 5.2 1.8 7.8 2.6l.4.1.3.2c4.4 2.2 7.1 5.9 8 10.5.2 1.2.3 2.6.2 4.1-.3 9.3-6.6 19.8-19.3 31.9l-2.1 2-2.8-.8c-.8-.2-1.6-.6-2.2-1.1l-3.9.7-.4-1.5-2.8.9 1.2-2.3-15.3 1.8 11.9-10.5c7.3-6.5 9.6-9.9 10.3-11.3-1.6-.5-3.1-.9-4.6-1.4-1.2-.4-2.3-1-3.2-1.9l-1.5.7-2.1-.9c-.2-.1-.4-.2-.6-.2.6 2.3 1.2 4.5 1.9 6.7l1.1 3.7-3 1.8c-.3.9-.5 1.3-.6 1.6l.7.4-1.3.9c-.4.8-.9 1.5-1.5 2.1-.4.8-1 1.4-1.8 2l-.7.4-.8.2c-.8.2-1.6.3-2.5.1-.9.7-2 1.5-3.3 2.4l-5.4 4-2.2-6.4c-1.1-3-2.1-6.1-3.1-9.4-1.6 1.2-3.3 2.5-5.2 4-.3 3.9-.5 7.7-.7 11.5l-.1 2.1-1.6 1.4c-.6.6-1.4 1-2.2 1.2-.3.7-.7 1.3-1.2 1.8l-2.1 2.2v.1l-.5.4-3.6 3.8-.1-.2-.6 1.3-.3-1.6c-.1 0-.2.1-.2.1l-9.3 2.4zM75 140.5zm43.8-18.3zm-.5-1.2zm7.9-25.5zm-.6-1.4zM73.7 71zm58.7-10.4zM163.6 226.6l-.7-1.7c-1.8.1-3.1.1-4.1 0l-3.9-.2-.8-3.8c-4.5-21.1-7.5-42.7-9.2-64.3l-.2-2.4 1.8-1.6c.2-.2.5-.5.9-.8 0-.6 0-1.3.1-2.2l.1-3.5 3.3-1.1c.2-.1.4-.1.6-.2l-.1-.2 5.4-1.7 2.8-1c.1-.1.3-.1.5-.2l1.9-.8 2.4-9.3 4.1 11.3.5-.3v1.7l.8 2.2c1.5 4.1 3 8 4.4 11.5v-10.2l2-1.5c.3-.2.6-.4.8-.6.1-.5.1-1.1.2-1.8l.4-3.8 3.8-.6c.3 0 1.7-.3 9-2.3l6.8-1.8-.2 3.3 2.5-1.7-1 10.4c-1.9 21.2-2.2 40.6-.9 57.6l.2 2.4-1.7 1.6c-.7.7-1.7 1.6-3.1 2.8l-.5.4.6 3.9-3-.1-1.1 5.8-3.1-3.3-.5 2.4-1.4-4.4-.8-.9-4-.2-.6-4.6c-2.6-2.7-5.1-5.3-7.3-7.7.4 3.1.9 6.3 1.4 9.7l.4 2.4-1.7 1.8c-1.2 1.2-2 2.2-2.6 2.8l-.7.8 1 3.8-4.3.1-1.2 2.1z"/><path d="M118.9 244.7l-.9-4.9-2.3 3-2.7-9.5c-7.5-26.1-13.2-49.2-16.9-68.5l-.6-3 2.4-1.9c.8-.6 1.6-1.3 2.4-2.1l.5.4.2-.9 7.7-7 .8 1.4 7.9-6.4.7 3.4.6-.7c.9-1.1 2.1-1.8 3.4-2.2.4-.1.8-.2 1.3-.2v-.1c.3-.9.8-1.9 1.4-2.8l-4.8-7.4 10.7 3.3c1.2-2.8 1.9-3.9 2.6-4.6l7.1-7.4 1.4 10.2c4.6 32.5 8.8 56.9 12.4 72.3l.5 2.1-1.2 1.8c-.9 1.4-1.8 2.7-2.9 4l-5 6.5-2 4.1-.3-.9-1.3 2.3-2-5.2-3.7 1.1-1.5-5.3c-1.1 1.5-2.2 3.1-3.3 4.8 0 .1 0 .1.1.2l1.3 3.5-3 2.2c-.1.1-.6.5-1.6 1.4l-3.5 3.3-.6.9-1.1 3.7-.8-.6-3.4 5.7z"/><path d="M74.5 252.3L73 252l-2-.4-1.6-2.5-1.9-.3-.7.8c-4-2.4-7.5-6.1-10.4-11.1l-1.7-1.9.7.1c-4.4-8.3-6.7-18.2-6.8-29.5-.1-11 1.7-21.1 5.5-30.3 4.2-9.9 9.9-16.6 17.1-20l-2.7-3.4 7.2 1.8c3.9-.9 7.8-.5 11.6 1.1l1.2.5 2.2 2.9.9-3 5.9 7.4c2 2.5 3.8 5.4 5.3 8.6 1.2 2.5 2.2 5.1 3 7.9 3.6 12.5 3.7 26.1.1 40.4-3.8 15.4-10.6 25.4-20.1 29.7-3.5 1.5-7.3 2-11.3 1.5zm6-63.2c-.5-.1-1 0-1.7.3-3.5 1.5-5.9 5.9-7.2 13-1.4 7.6-.7 14.2 2.1 19.5 1 2 2.3 3.4 3.6 4.1.7.4 1.5.6 2.7 0 3.4-1.5 5.8-5.7 7.1-12.5 1.5-7.6.9-14-1.8-19.5-1.1-2.2-2.3-3.7-3.7-4.5-.4-.2-.7-.4-1.1-.4zM155.6 141.7l-2.7-1.1c-.8-.3-1.5-.8-2.1-1.3l-3.9.3-.3-1.5-2.9.7 1.4-2.2-15.4.4 12.8-9.4c7.9-5.8 10.5-9 11.3-10.3l-4.5-1.8c-1.2-.5-2.2-1.2-3-2.1l-1.6.6-2-1.1c-3.3-1.8-5.4-3.2-6.8-4.4-2.9-2.5-4.6-5.7-4.9-9.2-.1-1-.1-1.9 0-3v-.2c1.1-8.2 7-16.9 18.2-26.7 8-6.9 16.6-12.9 25.8-17.8l4.8-2.6 2.1 5c.1.1.3.5.5 1l.1.2c.6 1.3.9 2.6.8 3.9v.6c0 .3-.1.5-.2.9l4.6.4-2.8 5.2 6.5 2.8-7.8 5.1c-14.5 9.4-18.2 14.6-19.1 16.7.1 0 .2.1.2.1l7.5 3.3.3.2.3.2c4.2 2.6 6.6 6.5 7 11.2.1 1.3.1 2.7-.1 4.1-1.1 9.3-8.4 19.1-22.1 30l-2 1.8zm-1.4-25.3zm10.2-24.7s0 .1 0 0c0 .1 0 0 0 0zm-.4-1.4zm9.8-32.8z"/><path d="M45.8 282l-3.1-4.3-3.4 2.1-2.6-4.3c-14.2-23.3-26.1-44.8-35.4-63.7L0 209.3l1.4-2.3c.7-1.1 1.5-2 2.5-2.6.3-.2.7-.4 1.1-.5 0-.2.1-.4.1-.6l.3-1.4c-.1-1.2.2-2.3.6-3.3l.9-4.6 1.8 1.8c.5-.2.9-.4 1.5-.6.4-3.7.8-5 1.4-6l5-9.5L18 183l9.1-12.5 1.3-1.8.2 2.4c.4-.4.7-.9 1.2-1.4l6-7.1 1.8 6.3 2.3-1.8 2.1 7.2c2.3 7.9 4.4 14.8 6.2 20.7l3.4-4 2.4 9.2c.4 1.4.9 3.9 1.6 7.5l.4 2.2-.4.6c.4 1.2.9 2.9 1.6 5l.7 2.2-1.1 1.7c1.1 2.8 2.5 6.5 4.1 11l.2.5c.3 1.5 1.4 4.6 4.4 11l1.1 2.3-1.3 2.2c-.6 1.1-1.4 2.2-2.3 3.2l-2.2 2.5-.7-.2-.3 5.6-3.4-1.2-3.2 7.9-1-2-.1.3c-.4 1.4-1 3.1-1.9 5.1l-3.1 6.8-1.3 7.6zM188.6 222.6l4.4-13.4 1.1-.5-.6-9.2 3.2-.5c.1-6.8.3-13.8.6-20.9l-8 5.5 3.4-17.9-.5-5.1 1.4-2.3-1.3-2.2-.6-8.1 2.7-1.6c10.2-5.9 20.3-8.4 30-7.4 13.3 1.4 19 8.3 21.4 13.9l-2.5 1.9 2.5.3-.3 3 2.4 3.5v1.5c.2 5.1-.7 10.5-2.6 16.1l.2 4-1.1-1.5c0 .1 0 .1-.1.2-4.2 10.9-10.8 20.2-19.5 27.5-8.9 7.4-18.5 11.7-28.7 12.6H195l-6.4.6zm33.4-51.2c-.6 3.4-1.2 7-1.7 10.8 1.1-2.3 1.8-4.6 2-6.9.1-.7.1-1.3.1-1.9-.1-.8-.1-1.4-.4-2z"/><path d="M238.9 202.6l.7-6.7c1.7-17 3.9-31.5 6.7-43l.9-3.8 3.9-.1h.8l7.2-.3 1.1-1.2.2 1.1 2.6-.1.2 1.1c.8-.1 1.6-.1 2.5-.1l6.4.1-.8 3 3 .3-2.5 6.2c-4.4 11-7.6 20.5-9.6 28.3-.2.8-.6 1.9-1.1 3.3-.2.5-.4.9-.5 1.1-.5 1.8-.8 3.7-.9 5.5l-.4 4-4 .5c-.7.1-1.7.1-2.9.1H250l-.5-.6-2.9 1.7-1.7-1.7-6 1.3z"/><path d="M231 223.8l.1-.7h-.1l1-7.8-7.6-2.5 8.4-3.3 1.2-9 25.3.5-.3 3.2.2-.1-1.2 10.1.2.2-.9 9zM216.4 143.2l2.9-10.6c4.2-15.3 8-28 11.3-37.9-2.3.6-4.5 1.2-6.7 1.8l-13.6 3.8 8.3-11.5c.6-.8 1-1.5 1.4-2.2l-1-.1 1.4-.7c.1-.1.1-.2.1-.3l-.7-.6-7.7-.6 10.8-5.1c0-.1.1-.1.1-.2.4-1 .7-1.8 1.1-2.6 0-.3 0-.6-.1-1l-.2-4.1 4-1c2.6-.6 10-2.2 22.7-4.7 9.1-1.8 16.8-3.1 23-3.7l5.4-.5v2.8l4.1-.4-2.9 7.6c-.6 1.6-1.6 4.1-2.9 7.3l-.3.7c-.2.6-.5 1.3-.8 2l.2.4-1.4 1.8-.2.3h-.1l-.3.4c-.1.1-.7.9-1.8 2.4l-1.5 2h-2.5c-2.2 0-4.6.1-7.3.3-4.7 9-9.5 19.5-14.3 31.4-.4 1.1-1 2.3-2 3.9-.8 1.3-1 1.9-1.1 2.1l-3 9.7-2.5.8c-1.6.5-2.8.8-3.8 1l-3.1.6-.7-1c-.2.1-.3.3-.5.4l-3.8 3-.4-.9-2.4 3.1.2-3.4-7.4 3.5zm63.4-74.1v0z"/><path d="M167.9 144l2.5-10.5c.3-1.2.7-2.3 1.2-3.4l-1.2-.8 2.6-4.2c.1-.1.2-.3.2-.4v-.4l-.4-3.6 2-1c.3-2.2.5-4.4.9-6.6l-11.3 3.8 9.4-12.8c.3-.3.6-.8.9-1.2l-1-1.1.6-2.5c.2-.9.5-2.2.9-3.8l.1-.4-4 1.4 3-13 .1-.1-5.9.2 6.6-4.4-.9-1.9.8-.1 1.8-7.5 2.1-1.1c1.8-.9 4.6-2.3 8.1-3.9l.2-.1c6.8-2.9 15.7-5.8 26.6-8.7l2.9-.8 1.2 1.3c4.2-1 9-2 14.3-3l12-2.3-6.9 10.1s-.2.2-.4.9l3.8-.6-5.9 9.4c-1.2 1.9-2 3.3-2.5 4.2l-1.1 2.1-1.2.3-2.4 6.2c-1.2 3.2-2.5 6.9-3.7 10.9l-.8 2.7-2.8.7c-5.4 1.3-11.5 3-18 5-.5 1.7-1 3.5-1.5 5.4 4.1-1.5 8.1-2.8 12.2-4l11.5-3.4-1.7 3.2 1.5-.4-3.8 9.6c-.2.4-.2.4-.3.8l-.8 3.8.2.3-1.1 1.6-.1.2h-.1l-.5.7c-.1.2-.4.7-.9 1.7l-1.1 2.1-2.3.5c-6.3 1.3-12.2 3.1-17.5 5.3l-.6.2-.2 1.9-3.7.6c-.3 0-.9.2-2.3.6l-2.1.6c-3 1.4-6.2 3-9.6 4.7l-9.6 5z"/></g><g fill="#E2575B"><path d="M59.1 155.5v-2.6c.1-4.9-.1-10.5-.4-16.7-.8-13.9-.2-31.2 1.8-51.4l.1-1 .8-.5c1.3-.8 3.3-2.1 6-3.8 0 0 .5-.4 2.5-2.7 1.3-1.4 2.8-2.3 4.6-2.8.4-.1 1.7-.6 5.5-3.4l3.9-2.8-.7 4.4c.1-.1.2-.2.2-.3l.1-.1c.2-.2.5-.4.9-.7l1.3-.9c1.2-1 3.1-2.3 5.5-4l2.9-2 .2 3.5c.5 8.7 1.8 18.1 3.7 28.1 2.2-5.7 6.7-12.1 13.3-19.1 7.1-7.4 15.1-14 23.5-19.6l1.8-1.2 1 1.9c.1.2.3.6.8 1.2.5.8.7 1.6.8 2.4v.2c0 .5-.2 1.2-1.4 4.1h4.4l-1.8 4.2 4.6 1.5-2.9 2.3c-15.4 12.1-18.8 18.5-18.9 21.6 0 .8.8 1.4 2.5 2 2.6.9 5.2 1.8 7.8 2.6l.2.1c3.6 1.8 5.8 4.7 6.4 8.4.2 1 .2 2.2.2 3.5-.2 8.4-6.4 18.4-18.4 29.8l-.8.8-1.1-.3c-1.1-.3-1.6-1-1.9-1.5-.3 0-.7.1-1.1.2l-1.8.3-.8-2.8-9.6 1.1 4.8-4.2c10.4-9.2 11.6-13 11.7-14.2 0-.4.1-1.1-1.8-2-1.8-.5-3.5-1.1-5.3-1.6-1.4-.4-2.4-1.3-3.2-2.6-.3.1-.9.3-1.7.7l-.8.4-.8-.4c-2.6-1.1-4.4-2-5.7-2.8l-.4.3c1 4.4 2.2 8.6 3.4 12.6l.4 1.5-1.9 1.1c-.5 1.4-.7 2.2-.9 2.6-.5 1-1.1 1.9-1.8 2.7-.1.4-.4.8-.9 1.1l-.6.3c-.7.2-1.4.1-2.2-.3-1.1.8-2.7 1.9-4.6 3.3l-2.2 1.6-.9-2.5c-1.5-4.2-2.9-8.6-4.4-13.3-2.6 1.9-5.9 4.4-9.7 7.4-.4 4.4-.6 8.7-.8 12.9v.8l-.6.6c-.3.3-.7.5-1.2.6-.4.1-.9.1-1.3 0-.3 1.3-.6 2-1.1 2.6l-2.4 2.5v-.1c-.4.5-.5.6-.6.7l-.6.6-.2.2c-.8.7-1.5 1.1-2.3 1.3-.4.1-.8.1-1.3.1l-.1.3-3.7 1.2zm20-53.9c-.5 3.6-.9 6.8-1.3 9.5 1.1-.9 2.1-1.7 3.1-2.5-.7-2.3-1.3-4.7-1.8-7zM157.7 222l-.3-1.5c-4.4-21-7.5-42.5-9.1-63.9l-.1-1 .7-.7c.4-.4 1-1 1.8-1.7 0-.6 0-1.7.1-3.4v-1.4l1.3-.4c.9-.3 2.3-.8 4.1-1.4l4.8-1.7c.2-.1.3-.1.5-.2l2.8-1.1v1.9l.9-3.6 2.2 6c3.9 10.7 7.5 19.5 10.7 26-.1-1.9-.2-3.9-.3-6.1-.2-4.7-.2-10.4-.2-17.1v-1l.8-.6c.7-.5 1.3-1 1.8-1.5.1-.8.2-1.8.4-3.1l.1-1.5 1.5-.3c.6-.1 2.6-.6 9.3-2.4l2.7-.7-.2 2.8c-.1.9-.1 1.7-.2 2.4l2.4-1.6-.4 4.2c-2 21.4-2.3 40.9-.9 58.1l.1.9-.7.7c-.7.7-1.7 1.5-3 2.7l-1.8 1.5.3 1.9-2-.1-.5 2.6-2.6-2.7-2.7-.1-.4-3.1c-5.7-5.8-10.5-11.1-14.2-15.7.5 5.7 1.4 12.3 2.5 19.5l.1 1-.7.7c-1.2 1.3-2.1 2.3-2.7 3l-1.7 2 .4 1.6-2.5.1c-1.7.1-3 .1-3.9 0h-1.2zM117.2 236.4l-1.1-3.8c-7.5-26.1-13.1-49-16.8-68.3l-.2-1.2 1-.8c.9-.7 1.8-1.4 2.6-2.3l.6-.5.7.4.2-1.1 4.2-3.8.9 1.6c0-.1.1-.2.1-.3l.2-.5 6.2-5 .6 3.2c.1.6.2 1.1.3 1.6l2.3-1.7.3 3.5c1.7 17.5 3.4 31.5 5.1 41.7 1.6-2.2 3.6-4.8 5.9-7.8-3.1-10.5-6.3-23.8-9.5-39.6l-.2-1 .6-.7c.5-.6 1.2-1 1.9-1.2.5-.1 1.1-.1 1.8-.1h.4c.1-.1.6-.6 1.1-2.1.7-1.8 1.4-3 2.3-3.7l-1.5-2.3 3.9 1.2 1.9-.5c.1-.2.2-.5.3-.8 1.3-3.1 1.9-4 2.3-4.5l2.8-3 .6 4.1c4.6 32.6 8.8 57 12.5 72.6l.2.8-.5.7c-.8 1.3-1.7 2.6-2.7 3.8l-2.3 3-.4-1.2-1.2 2.4-.1-.5-1.7 2.9-.7-1.8-3.5 1-2.4-8.3c-2.5 3.2-5.1 6.9-7.7 10.9.1.6.3 1.2.5 1.7l.5 1.4-1.2.9c-.4.3-1 .9-1.9 1.6l-1.4 1.3-.6-.6c-.3.5-.7 1.1-1.1 1.8l-2.7 4.5-.6-3.2-.3-.3-2.5 3.9zm15.2-93z"/><path d="M75.2 249.4c-.4-.1-.9-.1-1.3-.2l-.8-.2-1.6-2.6-1.1-.2-1.1 1.3-.7-.4c-4-2.4-7.4-6.3-10.2-11.6-4.2-7.9-6.4-17.4-6.5-28.3-.1-10.5 1.6-20.3 5.3-29.1 4-9.5 9.4-15.8 16.3-18.7 4.4-1.9 8.8-2 13.1-.2l.5.2 5.2 6.8 1-3.2 2.4 2.9c1.9 2.3 3.5 5 5 8 1.1 2.3 2.1 4.8 2.9 7.5 3.5 12 3.5 25 .1 38.8-3.6 14.4-9.8 23.8-18.5 27.7-3.4 1.5-6.7 2-10 1.5zm16.9-83.1l-1.2.4 1.1.1.1-.5zm-18.8 75.4l-4.5-1.7-1.9-2.3 4.4.7 2 3.3zm7.9-55.5c-1-.2-2.2 0-3.3.5-4.5 2-7.5 7.1-9 15.2-1.5 8.3-.7 15.5 2.3 21.4 1.3 2.5 3 4.4 4.9 5.4 1.7.9 3.5 1 5.4.1 4.3-1.9 7.3-6.9 8.8-14.7 1.6-8.1.9-15.3-2.1-21.4-1.3-2.7-3-4.7-4.9-5.8-.7-.3-1.4-.6-2.1-.7zM155.3 138.4l-1.1-.4c-1.1-.4-1.5-1.1-1.7-1.7-.3 0-.6 0-1.1.1l-1.8.2-.5-2.9-9.7.2 5.1-3.8c11.2-8.3 12.8-11.9 12.9-13.1.1-.4.2-1.1-1.6-2.1l-5.1-2.1c-1.3-.6-2.3-1.5-2.9-2.9-.4.1-1 .3-1.7.5l-.8.3-.8-.4c-3-1.7-5.1-3-6.2-4-2.4-2-3.7-4.5-3.9-7.2-.1-.8-.1-1.6 0-2.4 1-7.4 6.8-15.8 17.2-24.9 7.8-6.7 16.3-12.6 25.2-17.4l1.9-1 .9 2c.1.2.3.6.6 1.3.4.9.6 1.7.5 2.5v.2c-.1.5-.3 1.2-1.8 4l4.3.4-2.2 4.1 4.4 1.9-3.1 2C166 82.4 162 88.4 161.6 91.5c-.1.7.7 1.5 2.3 2.2 2.5 1.1 5.1 2.3 7.6 3.3l.2.1c3.4 2.2 5.3 5.2 5.7 9 .1 1 0 2.2-.1 3.5-1 8.3-8.1 17.8-21 28l-1 .8z"/><path d="M40.4 275.8l-1-1.7c-14.2-23.3-26-44.6-35.3-63.5l-.5-1 .6-.9c.4-.7.9-1.2 1.5-1.6.4-.3.9-.4 1.6-.6.1 0 .2 0 .2-.1.1-.2.4-.9.7-2.6l.3-1.8v-.3c-.1-2 .9-2.9 1.6-3.3.6-.3 1.3-.6 2.2-.7.2 0 .4-.1.5-.1.1-.2.3-.8.4-2.1.4-3.5.8-4.5 1.1-5.1l2-3.8 1.6 4c2.8 6.7 6.8 16.4 12.1 28.8.7-1.2 1.6-2.5 2.4-3.8-3.7-7.8-7.9-17.5-12.4-28.8l-.4-1 7.7-10.5.8 1s.2.2.4.5l.2-1 .3-.4c.7-.9 1.7-2.1 3.1-3.8l2.4-2.8 1 3.6c.1.4.3 1 .5 1.6l2.3-1.8.8 2.9c3 10.2 5.6 18.9 7.9 25.8l3.2-3.7 1 3.7c.4 1.4.9 3.8 1.6 7.3l.2.9-.5.7c-.1.1-.2.2-.2.3l.4.3.2.6c.4 1.2 1 3 1.7 5.3l.3.9-.5.8c-.2.3-.5.7-.7 1 1.2 3 2.8 7.1 4.7 12.4v.2c.6 2.4 2.1 6.3 4.6 11.7l.4.9-.5.9c-.5.9-1.2 1.8-1.9 2.7l-.9 1-1.3-.4c-.2-.1-.3-.1-1.2-.6l-.4 5.8-2.3-.8c-.1.2-.1.3-.2.5l-1.6 4-2-3.8c-2.1-4-5.2-10-9.1-17.8-.7 1.3-1.6 2.9-2.7 4.9 3.2 6.9 6.6 13.6 9.9 20l.4.7-.2.7c-.3 1.2-.9 2.7-1.8 4.6l-2.3 5.1-.3-1.3-.8 4.5-.7-.9v.1l-3.1 1.7zM193.1 219.3l2.6-7.8 1.8-.8-.5-8.6 3-.5c0-9.5.3-19.3.9-29.2-1 .6-2 1.3-3.1 2l-4 2.7 1.8-9.3h-.1l.2-.1.3-1.7-.4-4.5 1.8-2.9-1.8-3.1-.4-5.5 1.1-.6c9.6-5.6 19.1-8 28.1-7.1 9.5 1 15.9 5.1 19 12.1l.3.7-.6.5-.4 3.5 2.6 3.6v.6c.2 5.5-.9 11.4-3.3 17.6-4 10.4-10.3 19.3-18.6 26.3-8.4 7-17.5 11-27.1 11.9l-3.2.2zm26.9-52.4c-1.5 7.7-2.8 16.5-3.9 26.4 1.8-1.7 3.4-3.6 4.8-5.7 2.7-3.9 4.2-7.9 4.6-11.8.1-.8.1-1.7.1-2.4-.2-3.7-2-5.8-5.6-6.5zM242.5 199l.3-2.7c1.7-16.9 3.9-31.2 6.7-42.5l.4-1.5h1.5c.7 0 1.8 0 3.1-.1h.2l.7-.1 5.2-.2.2 1.5c1.5-.5 3.1-.7 5-.7h2.5l-.7 2.8 2.5.2-1 2.5c-4.4 11.1-7.7 20.8-9.7 28.7-.2.7-.5 1.7-1 2.8-.5 1.1-.6 1.4-.6 1.5-.5 2-.8 4-1 6l-.2 1.6-1.6.2c-.6.1-1.5.1-2.6.1h-1l-.6-.8c-.2-.3-.5-.6-.7-.9-.7.6-1.3 1-1.8 1.3l-1.3.8-1.2-1.2c-.3.1-.5.1-.8.2l-2.5.5zM234.6 220.9l.9-7.2h.1l1.3-10 19.3.4-.4 4-.1 1.4-.4 3.6-1.1 1.1 1 1.3-.5 5.1-20.1.3zM221.2 137.8l1.2-4.2c5-18.2 9.4-32.6 13.1-43-4.1 1-8.2 2.1-12.2 3.2l-5.5 1.5 3.3-4.6c1.1-1.6 2-3 2.5-4.2l.2-.6 1-.7-1.4-1.1 1.4-1.6c.2-.2.6-.7 1.1-2.3.4-1.2.9-2.1 1.4-2.9-.1-.5-.1-1.2-.1-1.9l-.1-1.6 1.6-.4c2.5-.6 10.1-2.2 22.6-4.7 9-1.8 16.6-3 22.7-3.6l2.2-.2v2.5c.1.1.2.2.3.4l2.1-.2-1 3c-.6 1.6-1.6 4.1-2.9 7.3l-.3.6c-.2.6-.4 1.2-.8 1.8l-.5 1h-.3l.2.4-.7 1c-.1.1-2.1 2.8-2.1 2.8l-.3.4h-1c-2.7 0-5.8.1-9.1.4-5 9.4-10.1 20.6-15.2 33.2-.3.8-.9 1.9-1.7 3.4-.9 1.5-1.3 2.3-1.4 2.7l-2.6 8.3-1 .3c-1.4.5-2.5.8-3.4.9l-1.3.2-.7-1c-.2-.3-.4-.7-.6-1.1-.8.6-1.8 1.5-3.1 2.5l-1.5 1.2-1.2-1.4c-.3.1-.6.3-1 .4l-3.9 1.9z"/><path d="M172.5 138.5l1-4.2c.5-2 1.2-3.6 2.3-5l-1.2-.8 1-1.7c.3-.5.6-.9.9-1.3-.1-.4-.2-.9-.3-1.4l-.2-1.4 1.6-.8c.5-4.3 1.1-8.7 1.7-13.1l-.9.3-6 2 3.8-5.1c.6-.8 1.3-1.8 2.3-3.2-.3-.3-.6-.6-.8-.9l-.7-.8.2-1c.2-.9.5-2.2.9-3.9l.2-.9.8-.4c.8-.5 1.8-1 2.9-1.6.2-1.3.5-2.7.8-4.1-1.3.5-2.5 1-3.7 1.4l-3.5 1.3 1.6-6.9 2.5-3.1-.9-1.9h.1c0-.1-.1-.2-.1-.3l-.5-1.1.8-.9s.2-.4.5-1.7c0-.1 0-.2.1-.3h-1.1l.9-3.8.8-.4c1.8-.9 4.5-2.2 8-3.9 6.7-2.8 15.5-5.7 26.3-8.6l1.2-.3L217 60c4.5-1.1 9.8-2.2 15.9-3.4l4.8-.9-2.8 4c-.2.4-.6 1.1-1.1 2.8-.4 1.6-.9 2.8-1.5 3.7h.2l2.2-.4-2.3 3.8c-1.2 1.9-2.1 3.4-2.6 4.4l-.4.8-.9.2c-8 1.7-15.2 3.5-21.5 5.4-.3.8-.7 1.8-1.1 3 2-.7 4.5-1.5 7.3-2.5l3.3-1.2-.4 2.1c2.1-.5 4.3-1.1 6.6-1.6l3.7-.9-1.4 3.5c-1.3 3.3-2.5 7-3.7 11.1L221 95l-1.1.3c-5.9 1.5-12.5 3.3-19.7 5.5-1.1 3.7-2.3 8-3.5 12.7 5.8-2.3 11.6-4.3 17.4-6l4.6-1.4-1.6 2.9 2.5-.7-1.6 4c-.2.5-.3.7-.4 1.3l-.4 1.8h-.2l-.7 2.3h-.1l.2.4-.7 1c-.3.4-.7 1.1-1.1 2l-.4.9-.9.2c-6.5 1.4-12.5 3.2-18 5.5l-2.2.9-.2 1.4-1.5.2c-.6.1-1.5.3-2.6.6l-1.2.3-.1-.1c-3.4 1.5-7.1 3.3-11 5.3l-4 2.2z"/></g><g fill="#EACDBD"><path d="M61.4 152.6l.2-.1c.4-1.5.7-2.2 1-2.3.1 0 .2.3.4.9.2.6.6.9 1.1.7.4-.1.9-.4 1.5-.9l-.6-3.7 1.8-3.4.8 1.4-.5.9c.1 1.8-.1 3.1-.6 4 .1-.1.6-.6 1.4-1.6.8-1 1.3-1.5 1.4-1.5.1 0 .1 0 .1.2.3-.3.5-1 .7-2.2.2-1.2.5-1.8.9-1.9.2-.1.5.1.8.5.3.4.6.5.9.5.1 0 .2-.1.4-.2.2-4.6.5-9.2.9-13.9 5.4-4.3 9.6-7.5 12.8-9.6 1.7 5.7 3.4 11 5.1 15.9 2.3-1.7 4.1-2.9 5.3-3.7-.1 0-.1-.1 0-.2.2-.1.5.1 1 .3.5.3.9.4 1.1.3.2-.1.2-.2 0-.3.9-.8 1.5-1.7 2-2.7.2-.4.5-1.4 1.1-3.1l1.2-.7c-1.4-4.5-2.6-9.2-3.7-14.1l1.2-.7c0-.9 0-1.7.1-2.3.5.6 1.1 1.1 1.8 1.6 1.1.8 3.1 1.9 6.1 3.2 1.2-.5 2-.9 2.6-1 .6-.1 1.2.2 1.6.9.5 1 1.2 1.6 2.1 1.9 1.7.5 3.5 1.1 5.3 1.6 2.2.9 3.2 2.2 3.1 3.9-.1 3.3-4.2 8.5-12.3 15.7l4.6-.5.3-.5.6-.2 1.7-1.6 2-1-3.1 3.6-.8.3.6 2.1c1-.2 1.8-.3 2.3-.2.3 0 .5.1.7.3.1.2.2.4.2.7 0 .3.3.4.7.6 11.6-11.1 17.5-20.6 17.8-28.5.1-1.1 0-2.1-.2-3-.6-3.1-2.3-5.5-5.3-7-2.6-.9-5.2-1.7-7.9-2.6-2.6-.9-3.9-2.2-3.8-4 .2-5.2 6.7-13 19.6-23.1l-2.9-1-1.8 2.5-1.9.1.9-1.6.6-.2 1.6-1.7 1-.4 1-2.3h-4.4c1.6-3.6 2.4-5.7 2.5-6.2 0-.5-.2-.9-.5-1.4-.5-.7-.7-1.2-.8-1.3-8.4 5.5-16.1 12-23.2 19.3-8 8.4-12.7 15.8-14 22.1-.7.4-1.3.8-1.7 1.1-2.5-12-4.1-23.1-4.7-33.4-2.6 1.8-4.5 3.2-5.7 4.2l.4.4-.1.9.9 2.4-.7 3.3-2.7-3.8.7-2.7c-.3.2-.6.4-.7.5-.8.9-1.4 1.6-1.6 2.2-1.2.8-2.1 1.4-2.8 1.8.2-1.7.4-3.3.7-5-3.1 2.2-5.1 3.4-6.2 3.7-1.4.4-2.7 1.1-3.6 2.2-1.5 1.7-2.5 2.7-2.9 3-2.7 1.7-4.7 3-6 3.9-2 20.1-2.6 37.1-1.8 51 .2 6.1.3 11.7.3 16.7zm63.1-23.6c1-.8 1.7-1.5 2.1-2.1l-1.3 2.3-1.2.6.4-.8zm-.8 3.7l-2 2.3-1.3.4.5-1 .4-.2 1-1 1.4-.5zm4.4-58.5l.4-.1 1.3-1.1 1.6-.6-2.5 2.6-1.5.3.7-1.1zm-3.6 4.6l.3-.1.9-.9 1-.4-1.7 1.9-1.1.2.6-.7zm-38.3 2.3l.8.6v.6l.6 1.5-.4 2.2-1.7-2.4.7-2.5zm-7.4 9.5c1.4 6.2 2.9 12.4 4.5 18.5-2.4 1.8-5.1 4-7.9 6.6.6-5.7 1.7-14.1 3.4-25.1zM68.9 136l.5 1.1-.2.6c.1 1.2-.2 2.6-.9 4.2l-.6-3.4 1.2-2.5zm-2.9-2.6l.3.6-.3.5v1.2l-.6 1.6-.3-2.3.9-1.6zM192 148c0-1.5.1-3.5.2-6-5.4 1.4-8.5 2.2-9.4 2.4-.2 1.7-.3 3-.5 3.9-.7.6-1.5 1.3-2.5 2.1 0 6.7 0 12.4.2 17 .3 6.7.6 11.8.9 15.2-4.2-6.8-9.3-18.1-15.1-34.3-.4 1.6-.7 2.8-1 3.6v-.4c-1 .6-1.7 1.1-2.1 1.4-.2-2.8-.2-5.1-.2-6.6-1.4.6-2.4 1-3.1 1.2l.4.7-.2.9.3 2.7-.6 3.1-1.6-5.1.7-2.1c-2.5.9-4.3 1.5-5.5 1.9-.1 2.7-.1 4.1-.1 4.2-1.1 1.1-1.9 1.8-2.5 2.3 1.6 21.6 4.7 42.8 9.1 63.6h3.7c-.3-1.3-.7-2.6-1-4 1-2.2 1.5-3.3 1.5-3.5.8 2 1.4 3.5 1.8 4.4.6-.8 1.6-1.8 2.8-3.1-1.6-10.4-2.6-19.2-3-26.5 4 5.8 10.2 12.9 18.6 21.4l.3 2.1 1.9.1.4.5.1-.4 1.3.1c-.2-1.7-.5-3-.7-3.9l1-2-.7-2.3 1.1-3.1.9 1.6-.2.9.4 2.6-.2 1c.4 1.3.7 2.1.9 2.5 1.3-1.1 2.2-2 2.9-2.6-1.4-17.3-1.1-36.8.9-58.5-.8.4-1.5.8-2.1 1zm-34.3 14.6l-1.2-3.7.8-2.2.6 1.1-.1.6.3 1.9-.4 2.3zm27.5 39l-1.1-3.4.8-2.2.6 1.1-.2.5.3 1.8-.4 2.2zM135.4 141.1c-.7 1.8-1.4 2.7-2.2 2.9-.3.1-.7.1-1.1-.1l.2.3-.1 1 .6 2.8-.3 3.5-2.2-5.4.6-2.3c-.8.2-1.7 1.3-2.4 3.3-.8 2-1.6 3.1-2.5 3.4-.2.1-.6.1-1.1 0-.5-.1-.9-.1-1.1 0-.3.1-.6.3-.9.6 3.3 16.4 6.6 29.8 9.7 40.4-4.1 5.5-7.2 9.6-9.3 12.4-1.9-10.5-3.8-25.9-5.9-46.5-.7.5-1.4.9-2.2 1.3-.1-1.1-.3-2.6-.7-4.5-1.9 1.5-2.9 2.4-3.2 2.6-.8 1.8-1.3 3.2-1.6 4.2l-1.8-3.1-1.8 1.7-.2.9.8 2.9-.3 3.4-2.2-5.3v-.1c-.9.9-1.8 1.7-2.8 2.4 3.7 19.4 9.3 42.2 16.8 68.1l1.4-1.8 1.4 1 .6-2.1.3 1.9c1.1-1.8 1.9-3.1 2.5-4l1 1c.9-.8 1.6-1.4 2-1.8-.3-.9-.5-1.8-.7-2.9 3.7-5.8 7.2-10.7 10.7-14.7l2.9 10 .5-.2c-.1-3-.2-6.1-.2-9.1 1.1 3.4 2.1 6 2.8 7.9l1.1-1.9-.7-2 .4-2.5.9 1.1-.1.7.4 1.4 1.1-2.3.7 2.3c.9-1.2 1.8-2.4 2.6-3.7-3.7-15.6-7.9-39.7-12.5-72.8-.4.3-1 1.5-1.9 3.7zm-27 27.6l.4-2.1.7.9-.1.6.5 1.6-.1 1.9-1.4-2.9zm37.1 34.4l.8 1.1-.1.7.5 1.9-.2 2.3-1.6-3.6.6-2.4zm-3.6-3.7l.6.8-.1.6.4 1.4v1.9l-1.4-2.8.5-1.9zM98.8 174.7c-1.4-2.9-3-5.4-4.7-7.7l-.5 1.6-4.6-.4 1.4 1.8-1.7 1.5.8 1.5 1.5.2 1.2 2.1-1 .1-.3-.5-1.5-.6-.5-.5-3.7 2-2.1 4 .7-4.9 1.5-2.2-.2-.3-2.2-1.1-2-2.4 4.5.9.9 1.5.4-.7-1.3-4.6 1-.3-.4-.5-2.1-1.1-2-2.5 4.5 1.1 1.5 2.5 1.1-.4-3.2-4.2c-3.8-1.6-7.6-1.5-11.5.2-6.3 2.8-11.4 8.7-15.2 17.7-3.6 8.5-5.3 18-5.2 28.3.1 10.6 2.3 19.7 6.3 27.3 2.7 5 5.8 8.6 9.5 10.8l-1.4-1.5 4.4.7 1.7 2.6c3.4.7 6.7.4 9.8-1 8.1-3.7 13.9-12.4 17.4-26.3 3.3-13.5 3.3-26 0-37.7-.8-2.4-1.7-4.8-2.8-7zm-8.8 3.8l.9 1.5-.8.1-.2-.4-1-.4-1-1.2 2.1.4zm-8.7-5.9l1.1 2-1 .2-.3-.5-1.5-.7-1.3-1.6 3 .6zm-9.7 68.7l-.5-.7-2.2-.8-2-2.4 4.5.8 1.8 2.9-1.6.2zm2-6.2l-.3-.4-1.2-.5-1.1-1.3 2.5.4 1 1.7-.9.1zm3.1 6.8l-.3-.3-1.2-.5-1.1-1.3 2.5.4 1 1.7h-.9zm15.7-27.7c-1.7 8.5-5 13.9-10 16.1-2.5 1.1-4.9 1.1-7.2-.2-2.3-1.2-4.2-3.3-5.7-6.2-3.3-6.3-4.1-13.9-2.5-22.7 1.6-8.9 5-14.4 10.1-16.7 2.6-1.1 5-1 7.3.3s4.2 3.6 5.7 6.6c3.3 6.7 4 14.2 2.3 22.8z"/><path d="M136.5 98.7c.2 2.2 1.3 4.2 3.3 5.9 1 .9 2.9 2.1 5.8 3.7 1.2-.4 2.1-.7 2.7-.7.6-.1 1.1.3 1.5 1 .4 1 1.1 1.7 1.9 2.1 1.7.7 3.4 1.4 5.2 2.1 2.1 1.1 3 2.5 2.7 4.2-.4 3.2-4.9 8.1-13.7 14.5l4.6-.1.3-.5.6-.1 1.8-1.4 2.1-.8-3.4 3.3-.9.1.4 2.1c1-.1 1.8-.1 2.3 0 .3 0 .5.2.6.4.1.2.1.5.2.7 0 .3.2.5.6.6 12.6-10 19.3-18.9 20.3-26.7.2-1.1.2-2.1.1-3-.3-3.2-1.8-5.6-4.7-7.4-2.5-1.1-5-2.2-7.6-3.3-2.5-1.1-3.7-2.6-3.5-4.3.7-5.2 7.9-12.3 21.6-21.3l-2.8-1.2-2 2.3h-1.9l1-1.6.6-.1 1.7-1.5 1.1-.3 1.2-2.2-4.3-.4c1.9-3.4 2.9-5.4 3-5.9 0-.5-.1-.9-.3-1.4-.4-.7-.6-1.2-.7-1.4-8.9 4.8-17.1 10.5-24.8 17.2-10.1 8.9-15.6 16.7-16.5 23.6-.1.4-.1 1.1-.1 1.8zm23.2 26.2c1-.7 1.8-1.4 2.3-1.9l-1.5 2.2-1.2.5.4-.8zm-1.2 3.6l-2.2 2.1-1.3.3.6-.9.4-.1 1.1-.9 1.4-.5zm9.8-57.9h.4l1.4-1 1.6-.4-2.7 2.4-1.6.1.9-1.1zm-4.1 4.3h.3l1-.8 1.1-.3-1.9 1.7-1.1.1.6-.7zM51.6 218.2c.5-.6 1-1.2 1.4-1.8-.7-2.3-1.3-4-1.7-5.2l-1.6-1.1c.4-.4.9-1.1 1.6-1.9-.7-3.5-1.2-5.9-1.6-7.2l-3 3.5c-2.6-7.4-5.6-17.1-9.1-29.2-.5.4-1.2 1.1-2 2-.7-2.1-1.3-3.6-1.6-4.6-1.3 1.6-2.3 2.8-3 3.7l-.8 4.7c-.7-.8-1.5-1.7-2.4-2.7l-2.2 3 .9.6.3 1.2 1.8 3 1 4.1L25 185l-.2-2.8-2.6 3.6c4.8 11.9 9 21.8 12.8 29.7-3 4.8-4.7 7.5-5 8.1-6-14.2-10.6-25-13.6-32.4-.3.5-.6 2-.9 4.4-.2 2-.6 3.1-1.2 3.5-.3.2-.8.3-1.4.4-.7.1-1.1.2-1.4.4-.5.3-.7.8-.6 1.5l.5.3.2.9 1.4 1.9.9 2.8-3.2-3.2c-.4 2.2-.9 3.5-1.6 3.9-.2.1-.5.2-1 .3-.4.1-.8.2-1 .3-.3.2-.6.5-.9.9 9.3 19 21.1 40.2 35.2 63.3l.2-.1c-1.3-4.5-2.2-7.9-2.8-10.2 1.3 2.2 2.9 4.5 4.7 7 .3-1.5.7-3 1.2-4.6l-1.8-1.8-.5-3.6 1.6.9.2 1 1.6 2.3.4 1.5c.8-1.8 1.4-3.2 1.6-4.3-3.5-6.7-7-13.7-10.4-21 2.6-4.9 4.3-7.9 5.1-9 4.7 9.4 8.3 16.4 10.6 21 .4-1 .7-1.8 1-2.3l1.6.5.3-5.6-1.5-1.6-.3-2.9 1.2.8.1.8c.9 1.3 1.4 2.2 1.4 2.7 1.6 1 2.5 1.5 2.6 1.6.7-.8 1.2-1.5 1.7-2.3-2.6-5.5-4.2-9.5-4.8-12-1.9-5.9-3.5-10.4-4.8-13.4zm-19.7-30.6l1.2.9.2.8 1.3 2.1.7 2.9-3.1-3.6-.3-3.1zm2 10.9l-.2-2.2.9.7.2.6.9 1.4.4 1.9-2.2-2.4zm2.1 53.4l.2.8 1.3 1.9.7 2.6-3-3.1-.4-3 1.2.8zM240.7 159.3l.5-4.8.4.4c-2.8-6.4-8.6-10-17.4-10.9-8.6-.9-17.6 1.4-26.9 6.8l.3 3.8 2.2 3.8-2 3.4.4 4 2-1.5 2.8-.4-3.9 4-1.3-.1-.9 4.8c2.4-1.6 4.6-3 6.4-4-.8 11.9-1.2 23.4-1.2 34.5l-2.9.5.3 5.1.1-.1.7-.1 1.7-1.3 2.4-.3-3.1 3.2-1.6-.1.1 1.7-2.2.9-1.3 4c9.2-.8 17.9-4.6 26-11.4 8.1-6.8 14.1-15.3 18-25.4 2.3-5.9 3.3-11.5 3.2-16.8l-2.8-3.7zm-37.5 0l-2-.2.7-1.2.6.1 1.4-1 1.9-.2-2.6 2.5zm4.1-4.3l-1.4-.1.5-.8.4-.1 1-.7 1.3-.1-1.8 1.8zm-1.2 54.8l-1.7-.1.6-.8.4-.1 1.2-.8 1.5-.2-2 2zm16.6-21.4c-2.5 3.7-5.5 6.8-9 9.3 1.3-12.8 2.9-23.9 4.9-33.3 5.8.5 8.8 3.3 9.1 8.5.1.9 0 1.8-.1 2.7-.4 4.3-2 8.6-4.9 12.8zm15.1-24.7l.3-2.6.9.8v.7l.8 1.8.1 2.4-2.1-3.1zM259.5 155.9c-.2-1-.3-1.8-.4-2.3l-2.6.1-.4 2.3-1.5 2.4.1-4.5c-1.4 0-2.4.1-3.2.1-2.8 11.3-5 25.4-6.6 42.3.4-.1 1-.2 1.7-.5l.9.9c.4-.2.9-.6 1.7-1.2.7-.6 1.3-1 1.7-1.2.5.9 1 1.8 1.7 2.6 1 0 1.8 0 2.4-.1.2-2.1.5-4.1 1.1-6.3 0-.1.2-.7.7-1.8.5-1.1.8-1.9.9-2.6 2-8 5.3-17.7 9.8-28.9l-2.2-.2c.3-1.2.5-2 .7-2.6-2.7-.1-4.8.4-6.5 1.5zm-2.4 4.4l-.4 1.5-.9 1.6.1-3.3 1.2-1.4.2 1.2-.2.4zm.4 6.5l-.3 1.4-.8 1.3v-2.8l1.1-1.1.3 1-.3.2zM251.8 213.7l1.8-1.9.2-1.5-2.1.5-2.4-.7 4.2-1.7.4.2.3-2.9-15.4-.3-1.3 9.8 2.3-.9 1.7.9-1 .7-.4-.2-1.6.3-1-.2-.3 2.7 16.1-.2.3-2.5-1.8-2.1zm-9.4-1.3l-.4-.1-1.1.2-1.2-.4 2.2-.8 1.3.6-.8.5zM229.7 77.7c-.6.6-1.1 1.5-1.6 2.9s-1 2.4-1.5 3c.5.4 1 .9 1.4 1.3l2.7-1.3 3 .9-1.6 1.2-.9-.2-2.7.8-1.7-.2-1.2.8c-.6 1.4-1.5 2.9-2.7 4.6 5.3-1.5 10.6-2.8 15.9-4.2-4 10.5-8.7 26-14.3 46.4 1-.5 1.8-.8 2.4-1.1l.9 1c1.6-1.3 2.8-2.3 3.6-2.9v-1l2.6-2.4.4 1.7-.6.7-.3 1c.3.8.6 1.5.9 1.9.7-.1 1.8-.4 3.1-.8l2.3-7.4c.3-.7.8-1.7 1.6-3s1.3-2.3 1.6-3.1c5.3-13.2 10.6-24.6 15.8-34.4 3.9-.3 7.3-.5 10.4-.5 1.1-1.5 1.7-2.2 1.8-2.4-.3-.7-.6-1.3-.7-2l1.9-.2c.3-.6.5-1.2.7-1.7l.3-.6c1.3-3.2 2.2-5.6 2.8-7.2-.5.1-.7-.1-.7-.5s-.1-.6-.3-.6l-.5-.1v-1.6c-6 .6-13.6 1.8-22.5 3.6-12.5 2.5-20 4.1-22.5 4.7 0 1.4.1 2.3.2 2.9zm2.3 45.9l-.5 1.8-1.5 1.9.2-3.6 2-1.8.2 1.2-.4.5zm3.9-5.5l-.3 1.4-1.1 1.4.2-2.7 1.4-1.4.2.9-.4.4zm3.9-36l1.2.4-.7.5-.4-.1-1.1.4-1.4-.1 2.4-1.1zm-4.6-3.1l2.1.7-1.1.9-.6-.2-1.9.6-2.1-.2 3.6-1.8z"/><path d="M178.6 88.6c2.3-.8 4.7-1.8 7.2-2.9-.7 3-1.3 5.9-1.7 8.7-1.4.7-2.6 1.4-3.7 2-.4 1.7-.7 3.1-.9 4 .6.7 1.2 1.3 2 1.9-1.5 2.1-2.6 3.7-3.4 4.7 1.1-.4 2.4-.9 4.1-1.7-1 6-1.8 11.9-2.4 17.7l-1.3.6c.1.9.3 1.5.5 2-.4.4-.9 1.1-1.4 2 .6.4 1.2.7 1.6.7v.4c-1.7 1.3-2.9 3.2-3.5 5.7 4.4-2.3 8.6-4.2 12.4-5.9l.3.3c1.2-.4 2.2-.6 2.9-.7l.1-1.1c1.5-.6 2.5-1.1 3.3-1.4 5.6-2.3 11.7-4.1 18.3-5.6.5-1 .9-1.7 1.2-2.2-.4-.7-.6-1.2-.8-1.5l1.5-.4.4-1.5h-.5l-2.4 1.1-2.9.2 4.6-2.9 1.7.3c.2-1 .4-1.3.7-2-1.3.3-2.3.5-2.9.6.6-1.1 1-2 1.4-2.6-7 2.1-13.9 4.5-20.9 7.4 1.7-6.8 3.3-12.6 4.9-17.6 7.6-2.4 14.5-4.3 20.8-5.9 1.2-4.2 2.5-8 3.8-11.3-3.3.8-6.6 1.6-9.6 2.4l.3-1.7c-4.9 1.7-8.7 3-11.2 3.8 1.3-3.9 2.2-6.5 2.8-7.8 6.6-2 14.1-3.9 22.5-5.7.6-1.1 1.5-2.6 2.7-4.6-1.3.2-2.3.4-2.9.6.6-.9 1.3-1.8 2-2.9l-1.4.7h-1.9l2.9-1.9 1.1.2c.5-.7.9-1.8 1.4-3.4.4-1.5.9-2.7 1.4-3.4-6.5 1.3-12.2 2.5-16.9 3.7l-1.1-1.2c-10.7 2.8-19.3 5.7-25.9 8.4-3.5 1.6-6.1 2.9-7.9 3.8l-.1.5h1.5c-.3.4-.7 1.3-1 2.7-.3 1.3-.6 2.2-1 2.6.4 1.1.8 1.8 1 2.4l2.2-1.5 1.9.4-.8.9h-.6l-1.7.7-.9.1.2.4c-1.4 1.6-2.4 2.9-3 3.7l-1 3zm25.5 28.9l1.7.3-.8 1.1-.5.1-1.5.7-1.7-.2 2.8-2zm-17.8-39.6l4.6-3.1 2.9.5-1.4 1.4h-.8l-2.5 1.1-2.8.1z"/></g></svg>