<?xml version="1.0" encoding="utf-8"?>
<!-- Generator: Adobe Illustrator 19.2.1, SVG Export Plug-In . SVG Version: 6.00 Build 0)  -->
<svg version="1.1" id="Layer_1" xmlns="http://www.w3.org/2000/svg" xmlns:xlink="http://www.w3.org/1999/xlink" x="0px" y="0px"
	 width="440px" height="282px" viewBox="0 0 440 282" enable-background="new 0 0 440 282" xml:space="preserve">
<g>
	<path fill-rule="evenodd" clip-rule="evenodd" fill="#EFD4C5" d="M439.5,56.4c-0.4-1.5-1-2.8-1.9-3.8c-0.8-0.9-1.8-1.7-2.8-2.2
		c-0.3-0.2-0.6-0.3-0.9-0.4c-0.1-0.5-0.3-1.1-0.5-1.6c-0.5-1.1-1.2-2.2-1.7-2.9c-0.3-0.4-0.6-0.8-0.9-1.3l0.1-0.4
		c0.2-1.2,0.6-3.8,0.9-6.1c0.3-2.2,0.6-4.5,0.7-6.5c0.1-1.9-0.1-3.5-0.6-5.8c-0.5-2.2-1.2-4.8-1.9-7.1c-0.8-2.4-1.7-4.5-2.1-5.6
		l-0.2-0.6l0-0.1c0.1-0.6,0.2-2,0.1-3.3c-0.1-1.2-0.2-2.9-1.2-4.4c-0.8-1.2-2-2.1-3.8-2.8c-1.5-0.6-3.2-1-3.9-1.2
		c-0.5-0.1-0.9-0.2-1.3-0.2c-0.6,0-1,0.2-1.3,0.3c0,0-0.1,0-0.1,0c-0.2-0.1-0.4-0.2-0.6-0.2C415,0,414.3,0,413.5,0l-0.1,0
		c-0.9,0-2,0-3.4,0.3c-1.5,0.3-3.1,0.9-4.1,1.3c-1,0.4-1.6,0.8-2.1,1.3c-0.3,0.3-0.5,0.6-0.7,0.9c-0.3,0-0.6,0.1-0.8,0.1
		c-1,0.2-1.7,0.7-2.8,1.7c-0.5,0.5-2.4,2.2-5.3,4.9c-0.8,0.8-1.7,1.6-2.6,2.4c-1.5,1.5-3.1,3-4.6,4.4c-2,1.9-4.1,3.7-6.5,5.7
		c-0.3,0.2-0.5,0.4-0.8,0.6c-1.5,1.3-2.7,2.3-3.9,3.5c-1.2,1.3-2.3,2.7-3.4,4l-0.3,0.4c-1,1.3-2.2,2.7-3.2,3.8
		c-0.9,1-1.7,1.6-2.6,2.1c-0.9,0.5-1.8,0.8-2.5,0.9c-0.1,0-0.3,0-0.4,0c-0.5,0-1-0.1-1.7-0.3c-0.8-0.2-1.7-0.6-2.3-1
		c-0.4-0.2-0.7-0.5-1.2-0.9l-1.8-1.6l-1.4,1.9c-0.4,0.5-0.7,1.1-1,1.8c-0.4-0.1-0.9-0.3-1.5-0.4c-0.3-0.1-0.5-0.1-0.8-0.2
		c-1.1-0.3-2.4-0.6-3.7-0.8c-0.8-0.1-1.6-0.2-2.5-0.2c-0.8,0-1.6,0.1-2.3,0.2c-1.6,0.2-2.9,0.7-3.9,1.1c-1.2,0.4-2.3,0.9-3.4,1.4
		l-3.1,1.4l2,1.8c-0.7,0.3-1.4,0.7-2.3,1.2c-1.8,1-3.9,2.2-5.7,3.4c-1.5,1-2.8,1.9-4.2,3.1c-1.2,1-2.5,2-3.6,3l-3.7,3.2l4,0.5
		c-0.5,0.7-1.1,1.4-1.7,2.2c-1.3,1.6-2.7,3.3-3.9,4.8c-1.2,1.4-2.3,2.6-3.4,3.6c-1.2,1.1-2.2,1.8-3.3,2.5c-1,0.6-2.2,1.2-3.8,1.7
		c-1.2,0.4-2.2,0.8-3.1,1c-0.7,0.2-1.4,0.3-2.2,0.5l-3.2,0.6l1.8,2.7c0.4,0.6,0.8,1.2,1.2,1.7c0.2,0.2,0.4,0.4,0.6,0.6
		c-0.4,0.2-0.8,0.4-1.2,0.6l-3.4,1.7l3,2c0,0,0.2,0.1,0.2,0.2c-0.3,0.3-0.7,0.6-1,0.9c-1.2,0.9-2.5,1.9-4.2,3.1
		c-1.4,1-3.5,2.5-5.3,3.6c-1.6,1-3,1.7-4.3,2.4c-2.6,1.2-5.5,2-8,2.3c-0.8,0.1-1.5,0.1-2.2,0.1c-0.3,0-0.6,0-0.9,0
		c-0.9,0-1.8-0.2-2.9-0.3l-3.2-0.4l0.8,3.1c0.1,0.6,0.3,1.3,0.6,2c0.1,0.3,0.3,0.7,0.5,1c-0.8,0.1-1.6,0.2-2.4,0.3l-3,0.3l1.2,2.7
		c0.5,1.2,1,2.1,1.8,3.2c0.9,1.3,2.3,2.9,3.3,3.9c1.2,1.3,2.2,2.3,3.1,3.1c1,0.9,2,1.7,3.1,2.4c0.1,0.1,0.3,0.2,0.4,0.3
		c-0.3,0.2-0.6,0.4-0.9,0.6c-1.7,1.2-3.6,2.3-5,3.1c-1.7,1-3.3,1.7-4.7,2.3c-1.9,0.8-3.3,1.3-4.5,1.8c-1.5,0.5-3.1,0.9-4.5,1.2
		l-4.1,1l3.2,2.7c0.6,0.5,1.4,1.1,2.2,1.8c0.8,0.6,2.1,1.5,3.9,2.3c0.9,0.5,2,0.9,2.9,1.3c-0.4,0.5-0.9,1.2-1.4,1.9
		c-1,1.4-2.4,3.6-3.9,6.2c-1.3,2.3-2.5,4.8-3.7,7.4c-1.2,2.7-2.3,5.7-3.3,8.8c-1.1,3.1-2,6.3-2.5,8.5c-0.4,1.7-0.6,3.3-0.8,5.4
		l-0.6,6.5l4.3-4.8c0.9-1,1.6-1.8,2.6-2.6c1.1-0.9,2.6-2.1,4-3c1.3-0.9,2.3-1.3,3.3-1.8c0.4-0.2,0.9-0.4,1.3-0.5
		c0.2,1.3,0.5,3.1,0.9,5c0.7,3,1.5,6,2.5,8.7c0.9,2.5,2,5,3.6,8.2c1.1,2.1,2.5,5,4.5,8.1c1.8,2.8,4,5.9,6,8.3
		c2.2,2.7,4.1,4.5,5.3,5.6c1.6,1.4,3,2.6,3.6,3.1l4.2,3.4l0-5c0-0.3,0-0.6,0-1.1c1,0.9,2.3,2,3.8,3.2c1.9,1.5,4.1,2.9,6.1,4.2
		c1.9,1.3,4.2,2.7,6.4,4.1c0.6,0.4,1.2,0.7,1.7,1.1c1.5,0.9,2.8,1.8,4.1,2.7c1.2,0.8,2.3,1.5,3.3,2.3c0.5,0.4,1.1,0.8,1.7,1.2
		c0.6,0.4,1.3,0.9,1.9,1.3c1,0.7,1.9,1.3,2.6,1.8c1,0.8,1.5,1.2,1.8,1.4l4,3.6l-0.2-5.5c0-0.6,0-1.7-0.1-3c-0.1-0.9-0.1-1.8-0.2-2.7
		c0-0.3-0.1-0.7-0.1-1c0.8,0.3,1.7,0.8,2.6,1.2c1.6,0.8,4,2.1,6.5,3.9c2,1.4,3.8,2.9,5.4,4.3c0.2,0.1,0.3,0.3,0.5,0.4
		c0.2,0.1,0.3,0.3,0.5,0.4c1.5,1.2,2.7,2.2,4.2,3.8c1.8,1.8,4.1,4.3,5.7,6.3c1.7,2.1,2.8,3.8,4.1,5.6l0,0c1.2,1.8,2.5,3.7,3.7,5.5
		l3.3,4.9l0.7-5.7c0.2-1.6,0.4-3.3,0.9-4.9c0.5-1.7,1.3-3.9,2.3-6.2c1-2.3,2.2-4.6,3.7-7.1c1.5-2.7,3.4-5.5,5.2-8
		c1.6-2.3,3.4-4.7,5.8-7.6c2.2-2.7,4.4-5.2,6.4-7.5c1.7-1.8,3.4-3.7,5-5.4c0.6-0.6,1.2-1.3,1.8-1.9c2.2-2.4,4.3-4.6,5.9-6.4
		c1.3-1.4,2.3-2.7,3.2-3.8c0.2,0.6,0.4,1.2,0.5,1.7c0.1,0.7,0.2,1.6,0.2,2l0.5,6.9l4.2-6.7c0.8-1.2,2.4-3.7,3.9-6.6
		c1.6-3,3.1-6,4.3-8.9c1.3-3.1,2.2-5.9,2.9-8.3c0.8-2.7,1.4-4.8,2-7.4c0.5-2.7,0.9-5.7,1.1-7.8c0-0.3,0.1-0.6,0.1-0.8
		c0.1,0.1,0.2,0.2,0.3,0.2c0.9,0.7,1.7,1.3,2.4,1.9c0.6,0.5,1.2,1.1,1.8,1.8l4,4.1l-0.4-5.8c-0.1-1.7-0.2-3.4-0.5-5.1
		c-0.2-1.7-0.6-3.5-1.1-5.2c-0.5-1.7-1-3.4-1.8-5.2c-0.8-1.9-1.7-3.8-3.1-6.5c-1.4-2.6-3.3-6-4.3-7.9c0.8-0.3,1.7-0.7,2.5-1.1
		c1.3-0.7,2.5-1.4,3.6-2.3c0.8-0.7,1.5-1.4,2.1-2.2c1.9-2.3,3.7-6,3.7-6l-4.7,0.9c-0.8,0.2-1.5,0.3-2.3,0.3c-0.3,0-0.6,0-0.9,0
		c-1,0-1.9-0.1-2.8-0.2c-1.1-0.1-2-0.4-3.1-0.8c-1.2-0.5-2.4-1.1-3.3-1.8c-0.9-0.6-1.7-1.5-2.5-2.5c-0.7-0.9-1.1-1.6-1.4-2.4
		c-0.1-0.3-0.2-0.6-0.3-0.9c0.5-0.1,1-0.2,1.5-0.3c1.1-0.3,2-0.6,2.9-1.1c0.7-0.4,1.3-0.8,1.9-1.3l4.6-3.3l-5.6-0.6
		c-0.8-0.1-1.2-0.1-1.8-0.4c-0.7-0.3-1.5-0.9-2-1.4c-0.5-0.5-0.8-1.2-1.2-2.2c-0.3-0.9-0.5-1.7-0.6-3c-0.1-1.4,0.1-3.4,0.4-5.5
		c0.3-1.7,0.8-4.3,1.7-6.7c0.8-2.1,1.8-4,3-5.8c1.2-1.7,2.7-3.4,4.2-4.7c0.2-0.2,0.4-0.4,0.6-0.5l0.1,2.9l3.3-2.7
		c1.3-1.1,2.6-2.1,3.9-3.3c0.8-0.8,1.7-1.7,2.4-2.4l2.2,3.2l1.7-5.1c0.3-1,1-3.1,1.5-5c0.5-2,0.8-3.8,0.8-5.5
		C440,59.5,439.9,57.8,439.5,56.4z"/>
	<path fill-rule="evenodd" clip-rule="evenodd" fill="#B54049" d="M373.8,33.1c-1.2,1.5-2.3,2.9-3.4,4c-1.1,1.1-2,1.9-3.1,2.5
		c-1.1,0.6-2.3,1-3.3,1.1c-1.1,0.1-2-0.1-3-0.4c-1-0.3-2-0.7-2.7-1.1c-0.6-0.3-1-0.7-1.5-1.1c-0.4,0.6-0.7,1.1-0.9,1.9
		c-0.1,0.4-0.1,0.8-0.2,1.3c0,0-0.5,0-1.1-0.1c-0.6-0.1-1.3-0.4-2.7-0.7c-1.3-0.3-2.8-0.8-4.3-1c-1.5-0.2-2.9-0.2-4.2,0
		c-1.3,0.2-2.4,0.5-3.5,0.9c-1.1,0.4-2.3,0.9-3.4,1.4c0.4,0.3,0.7,0.7,1.1,1c0.3,0.3,0.6,0.5,0.7,0.7c0.1,0.1,0.1,0.1,0.1,0.1
		s0,0-0.8,0.4c-0.8,0.4-2.4,1.1-4.2,2.1c-1.8,1-3.9,2.3-5.6,3.3c-1.6,1.1-2.8,2-4.1,3c-1.2,1-2.5,2-3.7,3.1c0.8,0.1,2,0.3,2.7,0.6
		c0,0,0,0-0.6,0.8c-0.6,0.8-1.9,2.4-3.2,4.1c-1.3,1.7-2.7,3.4-4,4.9c-1.3,1.5-2.5,2.7-3.6,3.7c-1.2,1.1-2.3,2-3.7,2.7
		c-1.3,0.8-2.8,1.4-4.1,1.9c-1.3,0.5-2.4,0.9-3.4,1.1c-0.8,0.2-1.6,0.4-2.4,0.5c0.3,0.5,0.7,1,1.1,1.5c0.4,0.5,0.9,1,1.5,1.4
		c0.5,0.3,1,0.6,1.5,0.8c-0.7,0.4-1.3,0.8-2,1.2c-0.8,0.4-1.6,0.8-2.4,1.2c0.5,0.3,1,0.7,1.6,1c0.4,0.2,0.8,0.4,1.2,0.5
		c0,0,0,0-0.5,0.5c-0.5,0.5-1.6,1.5-2.9,2.5c-1.2,1-2.6,2-4.3,3.2c-1.7,1.2-3.7,2.6-5.4,3.6c-1.7,1.1-3.1,1.8-4.6,2.5
		c-2.6,1.2-5.8,2.1-8.6,2.5c-1.3,0.2-2.5,0.2-3.6,0.1c-1-0.1-2-0.2-3.1-0.3c0.1,0.6,0.3,1.1,0.5,1.7c0.2,0.6,0.6,1.2,0.9,1.7
		c0.3,0.5,0.7,0.9,1.1,1.4c-0.9,0.3-1.9,0.6-2.9,0.8c-0.9,0.2-1.9,0.3-2.8,0.4c0.5,1,0.9,1.9,1.5,2.8c0.8,1.1,2,2.5,3.1,3.7
		c1.1,1.2,2,2.1,3,3c0.9,0.8,1.9,1.6,2.9,2.2c1,0.7,2.1,1.3,2.6,1.6c0.5,0.3,0.5,0.3,0.5,0.3s0,0-0.5,0.4c-0.5,0.4-1.6,1.2-3.1,2.2
		c-1.5,1-3.5,2.3-5.2,3.2c-1.7,1-3.3,1.7-4.9,2.4c-1.6,0.7-3.2,1.3-4.7,1.8c-1.5,0.5-3.1,0.9-4.6,1.3c0.7,0.6,1.4,1.1,2.1,1.7
		c0.9,0.6,2,1.4,3.6,2.2c1.5,0.7,3.4,1.5,4.4,1.8c1,0.4,1,0.4,1,0.4s0,0-0.5,0.6c-0.5,0.6-1.4,1.8-2.5,3.5c-1.1,1.7-2.5,3.8-3.8,6
		c-1.3,2.2-2.4,4.6-3.6,7.2c-1.1,2.6-2.3,5.6-3.3,8.6c-1,3-1.9,6.1-2.4,8.3c-0.4,1.8-0.6,3.4-0.8,5.2c0.9-1,1.7-1.9,2.8-2.8
		c1.2-1,2.9-2.2,4.3-3.1c1.4-0.9,2.4-1.4,3.6-1.9c1.2-0.5,2.5-1,3.2-1.3c0.7-0.3,0.7-0.3,0.7-0.3s0,0,0.2,1.2s0.5,3.6,1.1,6.3
		c0.6,2.7,1.4,5.7,2.4,8.5c1,2.8,2.2,5.4,3.5,8c1.3,2.6,2.6,5.1,4.4,7.9c1.8,2.8,3.9,5.7,5.8,8.1c1.9,2.3,3.6,4,5.1,5.4
		c1.5,1.4,2.9,2.5,3.6,3.1c0.7,0.6,0.7,0.6,0.7,0.6l0,0c0,0,0,0,0-0.5c0-0.5,0-1.4,0.1-2.5c0.1-1,0.3-2.2,0.4-2.7
		c0.1-0.6,0.1-0.6,0.4-0.2c0.3,0.3,0.9,1,2,2.1c1.1,1,2.6,2.4,4.4,3.8c1.8,1.4,3.8,2.7,5.9,4.1c2.1,1.4,4.3,2.8,6.3,4.1
		c2.1,1.3,4.1,2.6,5.9,3.8c1.8,1.2,3.4,2.3,5,3.5c1.7,1.1,3.4,2.3,4.5,3.1c1.1,0.8,1.7,1.3,1.9,1.5s0.3,0.2,0.3,0.2s0,0,0-0.6
		c0-0.6,0-1.7-0.1-3c-0.1-1.3-0.2-2.7-0.3-3.9c-0.1-1.2-0.2-2.3-0.2-2.8c0-0.5,0-0.5,0-0.5s0,0,1,0.4c1,0.4,2.9,1.2,5,2.2
		c2.2,1.1,4.6,2.5,6.8,4.1c2.3,1.6,4.4,3.4,6.1,4.8c1.7,1.4,3.1,2.5,4.9,4.3c1.8,1.8,4.1,4.4,5.9,6.5c1.7,2.2,2.9,3.9,4.2,5.8
		c1.3,1.9,2.6,3.8,3.8,5.7c0.2-1.8,0.4-3.5,0.9-5.2c0.5-2,1.4-4.2,2.4-6.5c1-2.3,2.2-4.7,3.8-7.3c1.5-2.6,3.4-5.5,5.3-8.2
		c1.9-2.7,3.9-5.2,5.9-7.7c2.1-2.5,4.2-5.1,6.5-7.6c2.3-2.5,4.6-5,6.8-7.3c2.2-2.4,4.3-4.6,5.8-6.4c1.6-1.8,2.7-3.1,3.5-4.2
		c0.8-1,1.3-1.7,1.5-2c0.2-0.3,0.2-0.3,0.2-0.3s0,0,0.2,0.5c0.2,0.5,0.7,1.5,1.1,2.4c0.4,0.9,0.6,1.7,0.8,2.6
		c0.2,0.9,0.2,1.8,0.3,2.2c0,0.5,0,0.5,0,0.5s0,0,0.8-1.2c0.8-1.2,2.3-3.7,3.9-6.4c1.5-2.8,3-5.8,4.2-8.7c1.2-2.9,2.1-5.7,2.9-8.1
		c0.8-2.5,1.4-4.6,1.9-7.2c0.5-2.6,0.9-5.5,1.1-7.6c0.2-2.1,0.4-3.4,0.4-4c0.1-0.6,0.1-0.6,0.1-0.6c0.2,0.2,0.4,0.3,0.6,0.5
		c0.6,0.5,1.8,1.4,2.7,2.1c1,0.8,1.8,1.4,2.5,2c0.7,0.6,1.3,1.2,1.9,1.9c-0.1-1.7-0.2-3.3-0.5-5c-0.2-1.7-0.6-3.3-1-5
		c-0.4-1.6-1-3.2-1.7-4.9c-0.7-1.7-1.6-3.6-3.1-6.3c-1.5-2.8-3.5-6.4-4.5-8.2c-1-1.8-1-1.8-1-1.8s0,0,0.8-0.3
		c0.8-0.3,2.5-0.9,3.8-1.6c1.3-0.7,2.4-1.4,3.1-2c0.8-0.7,1.4-1.3,1.8-1.9c0.4-0.5,0.7-1.1,1.1-1.6c-0.9,0.2-1.7,0.3-2.7,0.3
		c-1.1,0.1-2.7,0-4-0.2c-1.3-0.2-2.4-0.5-3.6-1c-1.2-0.5-2.6-1.2-3.8-2c-1.2-0.9-2.2-1.9-2.9-2.8c-0.8-1-1.4-1.9-1.8-3
		c-0.4-1.1-0.6-2.3-0.7-2.9c-0.1-0.6-0.1-0.6-0.1-0.6c0.2,0,0.4-0.1,0.6-0.1c0.6-0.1,1.9-0.2,2.9-0.5c1-0.2,1.7-0.6,2.4-0.9
		c0.6-0.3,1.1-0.7,1.7-1.1c-0.9-0.1-1.6-0.2-2.4-0.5c-0.9-0.4-2-1.1-2.7-1.9c-0.8-0.8-1.2-1.8-1.6-2.9c-0.4-1-0.7-2.1-0.7-3.7
		c-0.1-1.6,0.1-3.6,0.4-5.9s0.9-4.8,1.8-7.1c0.8-2.3,1.9-4.4,3.3-6.3c1.4-1.9,3-3.8,4.5-5.1c1.5-1.3,2.8-2.2,3.4-2.6
		c0.6-0.4,0.6-0.4,0.6-0.4s0,0,0,0.4c0,0.7,0.1,1.5,0.1,2.2c1.3-1,2.5-2.1,3.7-3.2c1.3-1.3,2.7-2.8,3.4-3.5c0.7-0.8,0.7-0.8,0.7-0.8
		s0,0,0.2,0.3c0.2,0.3,0.6,0.9,0.8,1.2c0.1,0.1,0.1,0.2,0.2,0.3c0,0,0,0,0.3-1c0.3-1,1-3,1.5-4.9c0.5-1.8,0.7-3.5,0.8-5.1
		c0.1-1.6-0.1-3.1-0.4-4.4c-0.3-1.2-0.8-2.2-1.4-2.9c-0.6-0.8-1.4-1.3-2.1-1.7c-0.7-0.3-1.2-0.4-1.5-0.5c-0.3-0.1-0.3-0.1-0.3-0.1
		c-0.2-0.9-0.3-1.7-0.7-2.6c-0.4-0.9-0.9-1.8-1.5-2.6c-0.4-0.7-0.9-1.3-1.4-1.9c0,0,0,0,0.2-1.3c0.2-1.3,0.6-3.8,0.9-6.1
		c0.3-2.3,0.6-4.4,0.6-6.2c0-1.8-0.1-3.3-0.5-5.3c-0.4-2-1.1-4.5-1.9-6.8c-0.8-2.3-1.6-4.4-2-5.5s-0.4-1-0.4-1s0,0,0-0.6
		c0-0.6,0.1-1.9,0.1-3.1c-0.1-1.2-0.3-2.4-0.9-3.3c-0.6-0.9-1.6-1.5-2.9-2c-1.2-0.5-2.7-0.9-3.5-1.1c-0.8-0.2-1-0.2-1.2-0.1
		c-0.3,0.1-0.6,0.3-0.8,0.4c-0.2,0.1-0.2,0.1-0.2,0.1s0,0-0.2-0.1c-0.2-0.1-0.6-0.4-1-0.5c-0.4-0.1-0.8-0.1-1.5-0.1
		c-0.7,0-1.7,0-3,0.3c-1.3,0.3-2.8,0.8-3.7,1.2c-0.9,0.4-1.2,0.6-1.4,0.8c-0.2,0.2-0.4,0.5-0.6,0.7c-0.2,0.3-0.3,0.5-0.4,0.7
		C404.4,6,404.4,6,404.4,6s0,0-0.3,0c-0.3,0-0.9,0-1.4,0.1c-0.4,0.1-0.7,0.3-1.8,1.2s-3,2.7-5.2,4.8c-2.2,2.1-4.8,4.6-7.2,6.9
		c-2.4,2.2-4.7,4.2-6.5,5.8c-1.8,1.6-3.2,2.7-4.5,4C376.1,30.1,375,31.6,373.8,33.1L373.8,33.1z"/>
	<path fill-rule="evenodd" clip-rule="evenodd" fill="#EDC0AD" d="M389.6,21.6c1.4-1.3,3.3-3.2,5-4.9c1.7-1.7,3.1-3.1,4.2-4.2
		c1.1-1.1,1.9-1.8,2.5-2.4c0.6-0.6,1-1,1.5-1.2c0.4-0.3,0.9-0.4,1.1-0.5c0.2-0.1,0.2-0.1,0.2-0.1s0,0,0,0.4c0,0.4,0.1,1.2,0.5,2
		c0.3,0.8,0.9,1.8,1.4,2.4c0.6,0.7,1.2,1.1,1.8,1.4c0.6,0.3,1.3,0.4,2,0.5c0.7,0.1,1.6,0.1,2.4,0.1c0.8,0,1.6-0.1,2-0.2
		c0.4,0,0.4,0,0.5,0.1c0.1,0.1,0.4,0.3,0.8,0.5c0.4,0.2,0.8,0.4,1.2,0.6c0.4,0.2,0.8,0.3,1,0.4c0.2,0.1,0.2,0.1,0.2,0.1s0,0,0,0.4
		c0,0.4,0,1.2,0,2.3c0,1,0,2.3-0.1,3.2c0,0.9-0.1,1.5-0.2,1.9c-0.1,0.4-0.1,0.6-0.3,0.8c-0.2,0.2-0.5,0.5-0.9,0.8
		c-0.4,0.3-1,0.7-1.5,1c-0.5,0.4-1,0.8-1.5,1.3c-0.5,0.5-0.9,1-1.5,1.8c-0.6,0.8-1.3,1.8-2,2.9c-0.7,1.1-1.4,2.4-2.2,3.8
		c-0.8,1.4-1.6,3.1-2.7,5.1c-1.1,2.1-2.5,4.6-3.6,6.6c-1.1,2-2,3.4-3,5c-1,1.6-2,3.3-2.9,4.7c-0.9,1.4-1.5,2.4-1.9,3.1
		c-0.4,0.7-0.6,0.9-0.7,1.1c-0.1,0.1-0.1,0.1-0.1,0.1s0,0,0.7-0.4c0.7-0.4,2-1.1,2.9-1.7c0.9-0.5,1.5-0.9,2.5-1.4
		c1.1-0.5,2.6-1.3,4.3-1.9c1.7-0.6,3.5-1.2,5.2-1.7c1.7-0.5,3.4-0.9,5-1.3c1.6-0.4,3.1-0.8,4.7-1.1c1.7-0.2,3.5-0.3,5.2-0.3
		c1.8,0.1,3.5,0.3,4.9,0.5c1.4,0.2,2.6,0.5,3.5,0.9c0.9,0.4,1.6,0.8,2.1,1.4c0.5,0.6,0.9,1.3,1.2,2.2c0.2,0.9,0.3,1.9,0.3,2.9
		c-0.1,1-0.2,2-0.3,2.5c-0.1,0.5-0.1,0.5-0.1,0.5s0,0-0.1-0.1c-0.1-0.1-0.3-0.4-0.6-0.6c-0.3-0.2-0.6-0.4-0.7-0.5
		c-0.1-0.1-0.1-0.1-0.1-0.1s0,0,0,0.3c0,0.3-0.1,1-0.2,1.7c-0.2,0.8-0.5,1.6-0.9,2.5c-0.4,0.8-0.8,1.6-1.4,2.5
		c-0.6,0.8-1.2,1.7-1.7,2.4c-0.5,0.7-1,1.2-1.2,1.5c-0.2,0.3-0.2,0.3-0.2,0.3s0,0-0.1-0.2c-0.1-0.2-0.3-0.7-0.4-1
		c-0.1-0.4-0.2-0.6-0.3-0.8c-0.1-0.2-0.2-0.3-0.2-0.4c-0.1-0.1-0.1-0.1-0.1-0.1s0,0-0.4,0.4c-0.4,0.4-1.3,1.2-2.4,2.2
		c-1.1,0.9-2.3,1.9-3.8,3.2c-1.4,1.3-3,2.8-4.1,4.2c-1.2,1.4-1.9,2.6-2.7,4c-0.4,0.6-0.7,1.3-1,2c0.3-1.1,0.6-1.9,0.9-2.7
		c0.5-1.2,1-2.2,1.7-3.3c0.7-1.1,1.5-2.2,2.2-3.2c0.8-1,1.4-1.9,1.8-2.4c0.3-0.5,0.3-0.5,0.3-0.5s0,0-0.4,0.4
		c-0.4,0.4-1.3,1.3-2.6,2.8c-1.2,1.5-2.7,3.5-4.5,6.3c-1.7,2.7-3.7,6.2-5.1,9.3c-1.5,3.1-2.5,5.8-3.3,8.8c-0.8,2.9-1.5,6-1.9,8.2
		c-0.4,2.2-0.4,3.5-0.2,5.1c0.2,1.5,0.5,3.3,1,4.6c0.4,1.3,0.9,2.2,1.2,2.7c0.2,0.5,0.2,0.5,0.2,0.5s0,0-0.3-0.2
		c-0.3-0.2-1-0.6-1.7-1c-0.7-0.4-1.3-0.9-2-1.4c-0.7-0.5-1.5-1.2-1.9-1.5c-0.4-0.3-0.4-0.3-0.4-0.3s0,0,0.2,0.4
		c0.2,0.4,0.5,1.1,1.3,3.1c0.9,2,2.3,5.2,3.6,8.4c1.3,3.2,2.5,6.5,3.3,9.1c0.8,2.6,1.2,4.6,1.4,6.9c0.2,2.3,0.2,4.9,0,7.1
		c-0.2,2.3-0.6,4.2-1.2,6.1c-0.5,1.9-1.2,3.8-2.1,5.9c-0.9,2.1-2.1,4.5-3.2,6.3c-1,1.8-1.9,3.2-2.3,3.8c-0.4,0.7-0.4,0.7-0.4,0.7
		s0,0-0.1-0.4c-0.1-0.4-0.2-1.1-0.5-2c-0.3-0.9-0.8-2-1.3-3.2c-0.5-1.1-1.1-2.3-1.8-3.5c-0.7-1.2-1.5-2.4-1.9-3.1
		c-0.4-0.6-0.4-0.6-0.4-0.6s0,0-0.2,0.9c-0.2,0.9-0.6,2.7-1.3,4.6c-0.6,2-1.5,4.2-2.5,6.4c-1,2.2-2.1,4.4-3.2,6.2
		c-1.1,1.9-2.1,3.4-3.4,5.2c-1.3,1.8-2.8,4-4.7,6.5c-1.9,2.5-4.1,5.3-5.8,7.7s-2.8,4.4-3.6,6.3c-0.9,1.9-1.5,3.8-1.9,4.7
		c-0.3,0.9-0.3,0.9-0.3,0.9s0,0-0.6-0.9c-0.6-0.9-1.7-2.7-2.9-4.1c-1.2-1.5-2.4-2.7-3.9-3.9c-1.5-1.3-3.2-2.6-5.6-4.3
		c-2.4-1.7-5.7-3.8-8.9-5.6c-3.3-1.9-6.6-3.6-10.6-5.6c-4-2-8.6-4.4-12.2-6.7c-3.6-2.3-6.1-4.6-7.9-6.5c-1.8-2-2.9-3.6-3.4-4.4
		c-0.5-0.8-0.5-0.8-0.5-0.8s0,0-0.1,0.2c-0.1,0.2-0.4,0.6-0.8,1.6c-0.4,1-0.9,2.4-1.3,3.7c-0.4,1.3-0.8,2.4-1.1,3.7
		c-0.3,1.4-0.6,3-0.7,4.7c-0.2,1.7-0.2,3.4-0.3,4.2c0,0.9,0,0.9,0,0.9s0,0-0.5-0.6c-0.5-0.6-1.4-1.9-2.6-3.5c-1.1-1.7-2.4-3.8-3.6-6
		c-1.2-2.2-2.2-4.6-3.2-7.6c-1-3-2.1-6.8-2.8-10c-0.7-3.3-1.2-6-1.5-8.3c-0.3-2.2-0.4-4-0.5-5.6c0-1.6,0.1-3,0.2-4.2
		c0.1-1.2,0.3-2.1,0.4-2.6c0.1-0.5,0.1-0.5,0.1-0.5s0,0-0.4,0.1c-0.4,0.1-1.1,0.4-1.9,0.8c-0.8,0.4-1.5,0.8-2.3,1.4
		c-0.8,0.6-1.8,1.3-2.5,2.1c-0.8,0.8-1.4,1.5-1.7,2c-0.3,0.4-0.3,0.4-0.4,0.4c0,0,0,0,0.2-0.8c0.2-0.8,0.6-2.4,1.1-4
		c0.5-1.6,1.1-3.2,1.8-4.6c0.7-1.5,1.3-2.8,2.1-4.3c0.8-1.6,1.7-3.4,2.8-5.1c1.1-1.8,2.5-3.6,3.6-5c0.9-1.1,1.7-1.9,2.3-2.5l0,0
		c0.1,0,0.2,0,0.3,0c1.8-0.1,3.4-0.3,4.8-0.5c1.3-0.3,2.3-0.6,2.9-0.7c0.5-0.2,0.5-0.2,0.5-0.2s0,0-0.1,0.2
		c-0.1,0.2-0.4,0.7-0.7,1.2c-0.3,0.4-0.6,0.8-0.8,1c-0.2,0.2-0.2,0.2-0.2,0.2s0,0,0.8-0.2c0.8-0.2,2.4-0.6,3.7-1.1s2.6-1,3.9-1.8
		c1.3-0.8,2.8-1.8,4.3-3.1c1.5-1.3,2.9-2.8,4.1-4.2c1.2-1.4,2-2.7,2.7-3.9c0.7-1.2,1.2-2.2,1.6-3.3c0.4-1.1,0.7-2.1,0.9-2.7
		c0.2-0.5,0.2-0.5,0.2-0.5s0,0-0.3,0.5c-0.3,0.5-0.8,1.6-1.5,2.8c-0.7,1.2-1.5,2.4-2.4,3.6c-0.9,1.2-1.9,2.4-3.1,3.6
		c-1.2,1.2-2.5,2.4-3.8,3.3c-1.3,0.9-2.5,1.6-3.6,2.2c-1.1,0.6-2,1-2.4,1.2c-0.4,0.2-0.4,0.2-0.4,0.2s0,0,0.1-0.3
		c0.1-0.3,0.4-0.8,0.6-1.3c0.2-0.5,0.4-1,0.5-1.2c0.1-0.2,0.1-0.2,0.1-0.2c0,0,0,0-0.5,0.3c-0.5,0.3-1.6,0.8-3.5,1.4
		c-2,0.6-4.8,1.2-7.4,1.4c-2.5,0.2-4.7,0-6.7-0.3c-2-0.3-3.8-0.8-5.7-1.5c-1.9-0.7-3.9-1.7-5.5-2.8c-1.7-1-3-2.1-4.3-3.5
		c-1.3-1.4-2.5-3.1-3.1-4c-0.6-0.9-0.6-0.9-0.6-0.9s0,0,0.4-0.1c0.4-0.1,1.1-0.4,2-0.7c0.9-0.3,1.9-0.6,2.4-0.7
		c0.5-0.1,0.5-0.1,0.5-0.1s0,0-0.2-0.2c-0.2-0.2-0.6-0.6-1-1.1c-0.4-0.5-0.7-1.1-0.9-1.4c-0.2-0.3-0.2-0.3-0.2-0.3s0,0,0.7-0.1
		c0.7-0.1,2.2-0.3,3.9-0.8c1.8-0.5,3.9-1.3,6-2.4c2.1-1.1,4.3-2.4,6.4-3.8c2.1-1.4,4.2-2.8,6.2-4.3c2-1.6,4-3.3,5.6-4.8
		c1.6-1.5,2.9-2.6,3.6-3.2c0.6-0.6,0.6-0.6,0.6-0.6l0,0c0,0,0,0-0.2,0c-0.2,0-0.6,0.1-1.2,0.1c-0.5,0-1.2-0.1-1.5-0.1
		c-0.3,0-0.3,0-0.3,0s0,0,0.4-0.2c0.3-0.2,1-0.7,1.8-1.2c0.7-0.5,1.5-1.2,1.9-1.5c0.4-0.3,0.4-0.3,0.4-0.3s0,0-0.3,0
		c-0.3,0-0.8-0.1-1.3-0.3c-0.5-0.1-1-0.4-1.3-0.5c-0.3-0.2-0.5-0.3-0.5-0.3c-0.1-0.1-0.1-0.1-0.1-0.1s0,0,0.6-0.3
		c0.6-0.3,1.9-0.8,3.5-1.6c1.6-0.9,3.5-2.1,5.1-3.3c1.5-1.2,2.7-2.4,4.1-4.1c1.4-1.7,3.1-3.9,4.5-5.8c1.4-1.8,2.6-3.3,3.8-4.4
		c1.2-1.2,2.3-2.1,2.8-2.5c0.6-0.4,0.6-0.4,0.6-0.4s0,0-0.2-0.1c-0.2-0.1-0.6-0.2-1.1-0.2c-0.5-0.1-1.1-0.1-1.4-0.1
		c-0.3,0-0.3,0,0.5-0.6c0.8-0.6,2.3-1.7,3.9-2.7c1.6-1.1,3.4-2.1,5-2.9c1.6-0.8,3-1.5,4.5-2.2c1.5-0.7,3.2-1.3,4-1.6
		c0.8-0.3,0.8-0.3,0.8-0.3s0,0-0.2-0.1c-0.2-0.1-0.6-0.4-0.9-0.6c-0.3-0.2-0.5-0.3-0.7-0.4c-0.1-0.1-0.1-0.1-0.1-0.1s0,0,0.4-0.1
		c0.4-0.1,1.2-0.2,2.2-0.3c1-0.1,2.1,0,3.2,0.2c1,0.2,2,0.5,3,0.8c1,0.3,2,0.6,3.1,0.7c1,0.2,2,0.2,3,0c1-0.2,2-0.6,2.5-0.9
		c0.5-0.2,0.5-0.2,0.5-0.2s0,0,0.4,0.1c0.4,0.1,1.2,0.3,1.9,0.4c0.8,0.1,1.5,0.1,2.4-0.1c0.9-0.2,2-0.5,2.9-1
		c0.9-0.5,1.7-1.2,2.5-2.1c0.8-0.9,1.8-2.2,2.9-3.4c1.1-1.3,2.3-2.7,3.4-3.8c1-1.2,1.9-2.1,3-3.2c1.1-1.1,2.5-2.3,3.5-3.1
		c1-0.8,1.7-1.3,2.4-1.9C387.4,23.7,388.2,22.9,389.6,21.6L389.6,21.6z M291,120.7c0.1,0,0.1,0,0.2,0
		C291.1,120.7,291,120.7,291,120.7L291,120.7z"/>
	<path fill-rule="evenodd" clip-rule="evenodd" fill="#EFD4C5" d="M294.9,120.8c0.1,0,0.2,0,0.3,0c1.2,0,2.3-0.1,3.2-0.3
		c-0.5,0.7-1,1.5-1.5,2.3c-1.1,1.6-2.2,3.2-3.3,5.2c-1.1,2-2.3,4.3-2.8,5.5c-0.6,1.2-0.6,1.2-0.6,1.2s0,0,1-0.6
		c1-0.6,2.9-1.8,4.7-2.8c1.7-0.9,3.3-1.6,4-1.9c0.8-0.3,0.8-0.3,0.8-0.3s0,0-0.4,1.1c-0.4,1.1-1.3,3.3-2,5.7
		c-0.7,2.5-1.2,5.3-1.4,8.6c-0.1,3.3,0.1,7.1,0.3,9c0.1,1.9,0.1,1.9,0.1,1.9s0,0,0.9-1.3c0.9-1.3,2.8-3.8,4.7-6
		c1.9-2.2,3.8-3.9,4.8-4.8c1-0.9,1-0.9,1-0.9s0,0,0.2,1.6s0.5,4.7,2.2,8.8c1.6,4.1,4.6,9,7.9,13c3.3,4,6.8,7,8.6,8.6
		c1.8,1.5,1.8,1.5,1.8,1.5s0,0,0.2-1c0.2-1,0.6-2.9,1.1-4.6c0.5-1.8,1-3.4,1.5-5c0.5-1.6,1.1-3.3,1.3-4.1c0.3-0.8,0.3-0.8,0.3-0.8
		s0,0,0.9,1.8c0.9,1.8,2.8,5.4,5,8.8c2.3,3.4,5,6.5,7.7,9.1c2.7,2.5,5.3,4.5,6.6,5.5c1.3,1,1.3,1,1.3,1s0,0,0.6-1.2
		c0.6-1.2,1.8-3.5,3.2-7c1.3-3.5,2.8-8.2,3.5-10.5c0.7-2.3,0.7-2.3,0.7-2.3s0,0,0.7,1.6c0.7,1.6,2,4.7,3.3,7.3
		c1.3,2.6,2.4,4.7,3,5.8c0.6,1.1,0.6,1.1,0.6,1.1s0,0,0.5-1.2c0.5-1.2,1.5-3.5,3-6.6c1.4-3.1,3.3-7,5.1-11.8
		c1.8-4.8,3.5-10.3,4.3-13.1c0.9-2.8,0.9-2.8,0.9-2.8s0,0,1.3,1.1c1.3,1.1,3.8,3.3,5.8,5.3c2,2,3.5,4,4.2,4.9c0.7,1,0.7,1,0.7,1
		s0,0,0.5-1.8c0.5-1.8,1.4-5.5,1.8-9.4c0.4-3.9,0.4-8.1,0.2-11.5c-0.2-3.4-0.6-6.1-1.6-9.3c-1-3.2-2.5-6.9-3.2-8.8
		c-0.8-1.9-0.8-1.9-0.8-1.9s0,0,0.9,0.4c0.9,0.4,2.8,1.1,3.8,1.4c0.9,0.4,0.9,0.4,0.9,0.4s0,0,0.1-0.7c0.1-0.7,0.2-2,0.8-4.7
		c0.6-2.7,1.7-6.8,3-10.1c0.8-2.1,1.6-3.8,2.6-5.5c-0.8,2-1.5,3.9-2,5.9c-0.8,2.9-1.5,6-1.9,8.2c-0.4,2.2-0.4,3.5-0.2,5.1
		c0.2,1.5,0.5,3.3,1,4.6c0.4,1.3,0.9,2.2,1.2,2.7c0.2,0.5,0.2,0.5,0.2,0.5s0,0-0.3-0.2c-0.3-0.2-1-0.6-1.7-1c-0.7-0.4-1.3-0.9-2-1.4
		c-0.7-0.5-1.5-1.2-1.9-1.5c-0.4-0.3-0.4-0.3-0.4-0.3s0,0,0.2,0.4c0.2,0.4,0.5,1.1,1.3,3.1c0.9,2,2.3,5.2,3.6,8.4
		c1.3,3.2,2.5,6.5,3.3,9.1c0.8,2.6,1.2,4.6,1.4,6.9c0.2,2.3,0.2,4.9,0,7.1c-0.2,2.3-0.6,4.2-1.2,6.1c-0.5,1.9-1.2,3.8-2.1,5.9
		c-0.9,2.1-2.1,4.5-3.2,6.3c-1,1.8-1.9,3.2-2.3,3.8c-0.4,0.7-0.4,0.7-0.4,0.7s0,0-0.1-0.4c-0.1-0.4-0.2-1.1-0.5-2
		c-0.3-0.9-0.8-2-1.3-3.2c-0.5-1.1-1.1-2.3-1.8-3.5c-0.7-1.2-1.5-2.4-1.9-3.1c-0.4-0.6-0.4-0.6-0.4-0.6s0,0-0.2,0.9
		c-0.2,0.9-0.6,2.7-1.3,4.6c-0.6,2-1.5,4.2-2.5,6.4c-1,2.2-2.1,4.4-3.2,6.2c-1.1,1.9-2.1,3.4-3.4,5.2c-1.3,1.8-2.8,4-4.7,6.5
		c-1.9,2.5-4.1,5.3-5.8,7.7s-2.8,4.4-3.6,6.3c-0.9,1.9-1.5,3.8-1.9,4.7c-0.3,0.9-0.3,0.9-0.3,0.9s0,0-0.6-0.9
		c-0.6-0.9-1.7-2.7-2.9-4.1c-1.2-1.5-2.4-2.7-3.9-3.9c-1.5-1.3-3.2-2.6-5.6-4.3c-2.4-1.7-5.7-3.8-8.9-5.6c-3.3-1.9-6.6-3.6-10.6-5.6
		c-4-2-8.6-4.4-12.2-6.7c-3.6-2.3-6.1-4.6-7.9-6.5c-1.8-2-2.9-3.6-3.4-4.4c-0.5-0.8-0.5-0.8-0.5-0.8s0,0-0.1,0.2
		c-0.1,0.2-0.4,0.6-0.8,1.6c-0.4,1-0.9,2.4-1.3,3.7c-0.4,1.3-0.8,2.4-1.1,3.7c-0.3,1.4-0.6,3-0.7,4.7c-0.2,1.7-0.2,3.4-0.3,4.2
		c0,0.9,0,0.9,0,0.9s0,0-0.5-0.6c-0.5-0.6-1.4-1.9-2.6-3.5c-1.1-1.7-2.4-3.8-3.6-6c-1.2-2.2-2.2-4.6-3.2-7.6c-1-3-2.1-6.8-2.8-10
		c-0.7-3.3-1.2-6-1.5-8.3c-0.3-2.2-0.4-4-0.5-5.6c0-1.6,0.1-3,0.2-4.2c0.1-1.2,0.3-2.1,0.4-2.6c0.1-0.5,0.1-0.5,0.1-0.5s0,0-0.4,0.1
		c-0.4,0.1-1.1,0.4-1.9,0.8c-0.8,0.4-1.5,0.8-2.3,1.4c-0.8,0.6-1.8,1.3-2.5,2.1c-0.8,0.8-1.4,1.5-1.7,2c-0.3,0.4-0.3,0.4-0.4,0.4
		c0,0,0,0,0.2-0.8c0.2-0.8,0.6-2.4,1.1-4c0.5-1.6,1.1-3.2,1.8-4.6c0.7-1.5,1.3-2.8,2.1-4.3c0.8-1.6,1.7-3.4,2.8-5.1
		c1.1-1.8,2.5-3.6,3.6-5C293.5,122.2,294.3,121.3,294.9,120.8L294.9,120.8z"/>
	<path fill-rule="evenodd" clip-rule="evenodd" fill="#B54049" d="M351.2,51c0.7-0.4,1.7-0.8,2.6-1.2s1.7-0.5,2.6-0.6
		c0.8-0.1,1.7-0.2,2.4-0.3c0.7,0,1.3,0,1.9-0.1c0.6,0,1.1-0.1,1.6-0.3c0.5-0.2,1.1-0.4,1.4-0.5c0.3-0.1,0.3-0.1,0.3-0.1s0,0-0.2,0.2
		c-0.2,0.2-0.7,0.5-1.3,0.8c-0.5,0.3-1.1,0.4-1.8,0.7c-0.7,0.2-1.4,0.6-2,0.8c-0.6,0.3-1.2,0.5-1.8,0.8c-0.6,0.3-1.2,0.8-1.7,1.2
		c-0.5,0.4-0.9,0.8-1.1,1c-0.3,0.3-0.4,0.4-0.5,0.5c-0.1,0.1-0.1,0.1-0.5,0.2c-0.4,0.1-1.3,0.3-2.2,0.6c-0.9,0.3-1.8,0.6-2.7,0.9
		c-0.8,0.4-1.6,0.8-2.1,1.2c-0.6,0.4-1,0.8-1.5,1.3c-0.5,0.5-0.9,1-1.3,1.5c-0.4,0.5-0.7,0.9-0.9,1.2c-0.2,0.2-0.2,0.2-0.2,0.2
		s0,0,0.2-0.4c0.2-0.4,0.6-1.3,1.2-2.2c0.5-0.9,1.2-1.8,1.9-2.7c0.6-0.8,1.3-1.5,1.9-2.1c0.7-0.6,1.4-1.2,2.1-1.6
		C350,51.7,350.5,51.4,351.2,51L351.2,51z"/>
	<path fill-rule="evenodd" clip-rule="evenodd" fill="#B54049" d="M339.5,53.3c1.5-0.8,3-1.4,4.3-1.9c1.3-0.5,2.4-1,3.5-1.3
		c1.1-0.3,2.1-0.6,3-0.8c0.9-0.2,1.6-0.3,2-0.3c0.4-0.1,0.4-0.1,0.4-0.1s0,0-0.6,0.2s-1.7,0.7-2.7,1.3c-1,0.5-1.9,1.1-2.8,1.9
		c-0.9,0.7-2,1.6-2.8,2.4c-0.8,0.8-1.5,1.5-2.1,2.3c-0.7,0.8-1.3,1.6-1.9,2.4c-0.6,0.8-1.2,1.6-1.7,2.3c-0.5,0.7-0.8,1.3-1.2,1.9
		c-0.4,0.6-0.7,1.1-0.9,1.4c-0.2,0.3-0.2,0.3-0.2,0.3s0,0,0.3-0.3c0.3-0.3,1-0.8,1.7-1.2c0.7-0.4,1.4-0.7,1.9-1
		c0.5-0.2,0.7-0.4,0.8-0.4c0.1-0.1,0.1-0.1,0.1-0.1s0,0-0.2,0.2c-0.2,0.2-0.6,0.7-1,1.2c-0.4,0.5-0.8,1.1-1.2,1.7
		c-0.4,0.6-0.7,1.2-1.1,1.9c-0.4,0.7-0.7,1.5-1.1,2.4c-0.4,0.9-0.8,2-1.1,3c-0.3,1-0.5,1.9-0.6,2.3c-0.1,0.4-0.1,0.4-0.1,0.4
		s0,0,0.2-0.4c0.2-0.4,0.6-1.1,1.2-2c0.6-0.9,1.4-1.8,2.2-2.8c0.8-0.9,1.7-1.9,2.5-2.7c0.8-0.8,1.6-1.5,2.4-2.1
		c0.7-0.6,1.5-1.1,2.1-1.5c0.7-0.4,1.3-0.8,2.3-1.3c1-0.5,2.4-1.1,3.8-1.7c1.3-0.6,2.5-1.1,3.9-1.7c1.3-0.6,2.7-1.4,3.9-2.1
		c1.2-0.7,2.1-1.4,3-2.2c0.9-0.8,1.7-1.6,2.5-2.3c0.8-0.7,1.4-1.4,2-2c0.6-0.6,1-1.2,1.2-1.5c0.2-0.3,0.2-0.3,0.2-0.3s0,0-0.2,0.5
		c-0.2,0.5-0.7,1.4-1.4,2.5c-0.7,1.2-1.7,2.6-2.5,3.8c-0.9,1.2-1.7,2.3-2.7,3.6c-1,1.2-2.1,2.6-3.1,3.9c-1,1.2-2,2.2-2.9,3.1
		c-0.9,0.9-1.7,1.6-2.4,2.2c-0.7,0.6-1.3,1-1.9,1.4c-0.6,0.4-1.3,0.7-1.7,0.9c-0.3,0.2-0.3,0.2-0.3,0.2s0,0,0.3-0.3
		c0.3-0.3,0.8-0.8,1.4-1.3c0.5-0.6,1.1-1.2,1.5-1.9c0.5-0.6,0.8-1.3,1.2-2c0.4-0.8,0.8-1.6,1-2.1c0.2-0.4,0.2-0.4,0.2-0.4
		s0,0-0.3,0.1c-0.3,0.1-1,0.4-1.9,0.8c-1,0.5-2.2,1.1-3.2,1.7c-1,0.6-1.8,1.1-2.6,1.6c-0.8,0.6-1.5,1.2-2.4,2
		c-0.9,0.9-2,1.9-2.8,2.9c-0.8,0.9-1.4,1.7-2.1,2.5c-0.7,0.8-1.4,1.5-2.1,2.5c-0.7,1-1.5,2.1-2.1,3.3c-0.6,1.2-1.2,2.4-1.7,3.5
		c-0.5,1.1-0.9,2.1-1.2,3.2c-0.3,1.1-0.6,2.2-0.7,2.8c-0.1,0.6-0.1,0.6-0.1,0.6s0,0,0-0.6c0-0.6-0.1-1.9-0.1-3.3
		c0-1.4,0.1-2.9,0.2-4.2c0.1-1.4,0.2-2.6,0.4-4c0.2-1.4,0.5-2.9,0.8-4.2c0.3-1.2,0.6-2.2,0.7-2.7c0.1-0.5,0.1-0.5,0.1-0.5
		s0,0-0.2,0.2c-0.2,0.2-0.5,0.5-0.9,0.9c-0.4,0.4-0.9,0.8-1.3,1.3c-0.4,0.5-0.8,1-1,1.3c-0.2,0.3-0.2,0.3-0.2,0.3s0,0,0.2-0.6
		c0.2-0.6,0.5-1.7,0.9-2.8c0.4-1.1,0.8-2.3,1.4-3.5c0.5-1.2,1.2-2.6,1.8-3.8c0.6-1.2,1.3-2.3,1.9-3.3c0.7-1,1.3-1.9,2-2.8
		c0.7-0.9,1.3-1.7,1.6-2.1c0.3-0.4,0.3-0.4,0.3-0.4s0,0-0.4,0.2c-0.4,0.2-1.3,0.5-2.1,0.8c-0.7,0.3-1.3,0.5-1.8,0.8
		c-0.6,0.3-1.1,0.6-1.8,1.1c-0.7,0.5-1.4,1.1-1.8,1.4c-0.4,0.3-0.4,0.3-0.4,0.3s0,0,0.3-0.4c0.3-0.4,1-1.3,1.7-2
		c0.7-0.8,1.5-1.4,2.7-2.2C336.5,54.9,338,54.1,339.5,53.3L339.5,53.3z"/>
	<path fill-rule="evenodd" clip-rule="evenodd" fill="#B54049" d="M305.2,98.3c-1.9,0.6-4.3,1.5-6.7,2.2c-2.3,0.7-4.5,1.2-6.8,1.7
		c-2.2,0.5-4.5,1.1-6.7,1.6c-2.1,0.5-4.1,1-5.7,1.4c-1.6,0.4-2.8,0.8-3.5,1.1c-0.7,0.3-1,0.6-1.1,0.8c-0.1,0.2-0.2,0.3,0,0.8
		c0.2,0.4,0.6,1.2,1.4,2c0.9,0.8,2.2,1.7,3.5,2.5s2.5,1.5,4,2.1c1.4,0.6,3.1,1.1,4.8,1.4c1.7,0.3,3.6,0.3,5.2,0.2
		c1.6-0.2,3-0.6,4-1.1c1-0.5,1.7-0.9,2.3-1.5c0.6-0.6,1.1-1.2,1.3-1.5c0.2-0.3,0.2-0.3-0.1-0.5c-0.3-0.2-1-0.6-1.3-0.8
		c-0.3-0.2-0.3-0.2,0.1-0.4c0.4-0.2,1.3-0.5,2.3-0.7c1-0.3,2.1-0.5,3.2-0.7c1.1-0.2,2.3-0.5,2.8-0.6c0.6-0.1,0.6-0.1,0.6-0.1
		s0,0-0.2-0.1c-0.2-0.1-0.5-0.4-1-0.6c-0.4-0.2-1-0.5-1.2-0.6c-0.3-0.1-0.3-0.1-0.3-0.1s0,0,0.5-0.1c0.5-0.1,1.4-0.3,2.3-0.6
		c0.9-0.3,1.7-0.6,2.3-0.9c0.6-0.3,1.1-0.5,1.3-0.7s0.2-0.1,0.2-0.1s0,0-0.4,0c-0.4,0-1.1,0-1.7,0c-0.6,0-1-0.1-1.4-0.2
		c-0.4-0.1-0.7-0.1-0.8-0.2c-0.1,0-0.1,0-0.1,0s0,0,0.4-0.3c0.4-0.3,1.3-0.9,2.4-1.7s2.3-1.9,3.5-3c1.2-1.1,2.4-2.2,3.7-3.6
		c1.2-1.4,2.5-3,3.4-4.6c0.9-1.5,1.5-3,1.7-3.7c0.3-0.7,0.3-0.7,0.3-0.7s0,0-0.5,0.6c-0.5,0.6-1.6,1.9-3.1,3.3
		c-1.5,1.3-3.5,2.7-5.3,3.8c-1.8,1.1-3.5,2-5,2.7C308.3,97.2,307,97.7,305.2,98.3L305.2,98.3z"/>
	<path fill-rule="evenodd" clip-rule="evenodd" fill="#B54049" d="M375.5,92.5c0.5-1.3,1.3-3,2.3-4.7c0.9-1.6,2-3.2,3.1-4.6
		c1.1-1.4,2.2-2.8,3.3-4c1.1-1.2,2.3-2.4,3.5-3.4c1.2-1,2.4-1.8,3.1-2.3c0.6-0.4,0.6-0.4,0.6-0.4l0,0c0,0,0,0-0.3,0.4
		c-0.3,0.4-1,1.2-1.6,2.1c-0.6,0.9-1.3,1.9-1.9,3.1c-0.7,1.1-1.3,2.4-1.9,3.7c-0.6,1.3-1.1,2.6-1.5,3.9c-0.4,1.3-0.7,2.4-1,3.6
		c-0.3,1.2-0.5,2.5-0.6,3.4c-0.1,1-0.1,1.6-0.1,2c0,0.3,0,0.3,0,0.3s0,0,0.4-0.6c0.4-0.6,1.1-1.7,2.1-3c1-1.3,2.3-2.9,3.5-4.2
		c1.2-1.3,2.3-2.4,3.2-3.2c1-0.9,1.9-1.5,2.3-1.9c0.4-0.3,0.4-0.3,0.4-0.3s0,0-0.3,0.5c-0.3,0.5-0.8,1.6-1.3,3
		c-0.6,1.4-1.2,3.2-1.8,5.1c-0.5,1.8-1,3.7-1.3,5.5c-0.3,1.8-0.6,3.4-0.8,4.9c-0.2,1.5-0.3,3-0.3,4.4c0,1.4,0,2.7,0,3.4
		c0,0.7,0,0.7,0,0.7s0,0,0.4-1c0.4-1,1.3-3.1,2.3-5.2c1-2.1,2.1-4.1,3.4-6.3c1.3-2.1,2.7-4.4,4.1-6.3c1.4-1.9,2.8-3.5,3.8-4.6
		c1-1.1,1.7-1.7,2-2c0.3-0.3,0.3-0.3,0.3-0.3s0,0-0.3,0.6c-0.3,0.6-1,1.9-1.9,3.8c-0.9,1.9-2,4.4-2.8,7.1c-0.9,2.7-1.6,5.4-2,7.8
		c-0.4,2.4-0.6,4.3-0.7,6.1c-0.1,1.8,0,3.5,0,4.3c0,0.8,0,0.8,0,0.8s0,0-0.1-0.7c-0.1-0.7-0.4-2-0.6-3.6c-0.2-1.5-0.5-3.3-0.6-4.7
		c-0.1-1.4-0.1-2.6,0-3.4c0-0.9,0-1.4,0-1.7c0-0.3,0-0.3,0-0.3s0,0-0.4,0.8c-0.4,0.8-1.2,2.5-2,4.5c-0.8,2-1.7,4.4-2.5,6.4
		c-0.7,2-1.3,3.8-1.7,5.7c-0.5,1.9-0.9,4-1.1,5.7c-0.3,1.8-0.5,3.3-0.6,4.4c-0.1,1.1-0.1,1.9-0.1,2.3c0,0.4,0,0.4,0,0.4s0,0-0.3-0.9
		c-0.3-0.9-0.9-2.8-1.3-5c-0.5-2.1-0.8-4.5-1.1-6.8c-0.3-2.3-0.5-4.4-0.6-6.5c-0.1-2,0.1-3.9,0.2-5.8c0.1-1.9,0.2-3.9,0.4-5.5
		c0.2-1.7,0.4-3,0.5-3.7c0.1-0.7,0.1-0.7,0.1-0.7s0,0-0.4,0.6c-0.4,0.6-1.2,1.8-1.9,2.9c-0.7,1.2-1.4,2.4-1.9,3.3
		c-0.5,1-0.9,1.7-1.2,2.5c-0.3,0.8-0.6,1.6-0.7,2C379,108,379,108,379,108s0,0-0.1-0.5c-0.1-0.5-0.2-1.6-0.3-3c-0.1-1.3-0.1-3,0-4.5
		c0.1-1.6,0.2-3.2,0.5-4.8c0.2-1.6,0.5-3.2,0.8-4.4c0.2-1.2,0.4-1.9,0.5-2.3c0.1-0.4,0.1-0.4,0.1-0.4s0,0-0.3,0.8
		c-0.3,0.8-1,2.3-1.5,3.4c-0.5,1.1-0.8,1.9-1.3,3.3c-0.5,1.4-1.1,3.4-1.6,5.6c-0.6,2.2-1.1,4.4-1.7,6.8c-0.6,2.3-1.3,4.7-1.9,6.6
		c-0.6,1.9-1.2,3.5-1.8,5.1c-0.7,1.7-1.5,3.5-2.3,5.1c-0.8,1.6-1.5,2.9-2.2,4c-0.7,1.1-1.3,2-1.6,2.5c-0.3,0.4-0.3,0.4-0.3,0.4
		s0,0,0.1-0.4c0.1-0.4,0.2-1.3,0.2-2.2c0.1-0.9,0-1.9,0-2.9c0-0.9,0-1.7,0-2.1c0-0.4,0-0.4,0-0.4s0,0-0.3,0.5
		c-0.3,0.5-0.9,1.4-1.7,2.4c-0.8,1-1.8,2.2-2.9,3.4c-1.1,1.2-2.2,2.4-3.6,3.9c-1.4,1.4-2.9,3.1-4.5,4.6c-1.6,1.5-3.1,2.9-3.9,3.5
		c-0.8,0.7-0.8,0.7-0.8,0.7s0,0,0.1-0.4c0.1-0.4,0.4-1.1,0.6-2.3c0.2-1.2,0.2-2.9,0.2-4.6c0-1.7-0.2-3.4-0.3-4.5
		c-0.1-1.1-0.2-1.6-0.2-1.8c0-0.2,0-0.2,0-0.2s0,0-0.8,0.1c-0.8,0.1-2.4,0.3-4.9,0.4c-2.5,0.1-5.8,0.1-8.7,0
		c-2.9-0.1-5.3-0.2-7.9-0.6c-2.6-0.3-5.4-0.8-6.8-1.1c-1.4-0.3-1.4-0.3-1.4-0.3s0,0,0.3-0.1c0.3-0.1,0.8-0.4,1.3-0.8
		c0.5-0.4,0.9-0.8,1.1-1c0.2-0.2,0.2-0.2,0.2-0.2s0,0-0.6,0c-0.6,0-1.9,0-3.4-0.1c-1.5-0.1-3.2-0.2-4.6-0.4
		c-1.5-0.2-2.7-0.4-3.4-0.5c-0.6-0.1-0.6-0.1-0.6-0.1s0,0,1.1,0c1.1,0,3.2,0,5.1,0c1.9-0.1,3.5-0.2,4.9-0.4c1.4-0.2,2.7-0.4,3.9-0.7
		c1.2-0.3,2.4-0.6,3-0.8c0.6-0.2,0.6-0.2,0.6-0.2s0,0-0.1,0.2c-0.1,0.2-0.4,0.6-0.8,1.1c-0.4,0.5-0.8,1-1,1.3
		c-0.2,0.3-0.2,0.3-0.2,0.3s0,0,0.9,0c0.9,0,2.7,0.1,4.7,0.1c2.1,0,4.5,0,6.6-0.1c2.1-0.1,4-0.3,6.1-0.6c2.1-0.3,4.5-0.7,6.3-1.2
		c1.8-0.5,3.1-1,3.7-1.2c0.6-0.3,0.6-0.3,0.6-0.3s0,0,0.1,0.4c0.1,0.4,0.3,1.3,0.5,2.2c0.2,0.9,0.3,1.7,0.4,2.4
		c0.1,0.6,0.1,1.1,0.2,1.3c0,0.2,0,0.2,0,0.2s0,0,0.6-0.6c0.6-0.6,1.7-1.7,2.9-3.1c1.3-1.4,2.6-3,3.9-4.6c1.3-1.6,2.4-3.2,3.3-4.5
		c0.9-1.3,1.4-2.4,1.9-3.3c0.5-0.9,0.9-1.8,1.2-2.2c0.2-0.4,0.2-0.4,0.2-0.4c0,0,0,0,0.1,0.3c0.1,0.3,0.2,1,0.3,1.8
		c0.1,0.7,0.2,1.6,0.2,2.2c0,0.7,0.1,1.3,0.1,1.6c0,0.3,0,0.3,0,0.3s0,0,0.4-1c0.4-1,1.3-2.9,2.1-5.4c0.8-2.4,1.6-5.3,2.3-7.7
		c0.7-2.4,1.2-4.3,1.6-5.6C374.6,94.5,374.9,93.8,375.5,92.5L375.5,92.5z"/>
	<path fill-rule="evenodd" clip-rule="evenodd" fill="#B54049" d="M408.5,59.5c1.1-0.4,2.2-0.7,3.3-0.9c1.1-0.3,2.2-0.4,3.2-0.6
		c0.9-0.1,1.6-0.2,2.4-0.2c0.8,0,1.5,0.1,1.9,0.1c0.4,0,0.4,0,0.4,0s0,0-0.2,0.1c-0.2,0.1-0.7,0.2-1.3,0.5c-0.6,0.3-1.3,0.7-2,1.1
		c-0.7,0.4-1.4,0.9-2.1,1.5c-0.7,0.6-1.4,1.2-1.8,1.6c-0.3,0.3-0.3,0.3-0.3,0.3s0,0,0.4-0.1c0.4-0.1,1.2-0.2,2-0.4
		c0.8-0.2,1.6-0.4,2.4-0.8c0.8-0.3,1.5-0.7,1.8-0.8c0.4-0.2,0.4-0.2,0.4-0.2s0,0,0,0.2c0,0.2-0.1,0.5-0.2,0.9
		c-0.1,0.4-0.3,0.8-0.5,1.1c-0.2,0.3-0.3,0.6-0.4,0.7c-0.1,0.1-0.1,0.1,0.2,0c0.2-0.1,0.7-0.2,1.4-0.5c0.7-0.3,1.5-0.7,2.3-1.2
		c0.8-0.5,1.6-1.2,2-1.5c0.4-0.3,0.4-0.3,0.4-0.3s0,0,0.1,0.2c0.1,0.2,0.2,0.6,0.4,1c0.1,0.4,0.2,0.8,0.2,1.2c0.1,0.4,0.1,0.8,0.1,1
		c0,0.2,0,0.2,0,0.2s0,0,0.2-0.2c0.2-0.2,0.7-0.7,1.1-1.1c0.4-0.4,0.6-0.7,0.9-1.2c0.3-0.4,0.6-1,0.8-1.2c0.2-0.3,0.2-0.3,0.2-0.3
		s0,0,0.1,0.2c0.1,0.2,0.4,0.5,0.5,0.9c0.2,0.4,0.3,0.8,0.4,1.2c0,0.4,0,0.8-0.1,1.2c-0.1,0.4-0.3,0.9-0.5,1.3
		c-0.2,0.4-0.4,0.9-0.7,1.3c-0.2,0.4-0.5,0.8-0.6,1c-0.1,0.2-0.1,0.2-0.1,0.2s0,0,0.1-0.3c0.1-0.3,0.2-0.8,0.3-1.3
		c0.1-0.4,0.1-0.8,0.1-1.1c0-0.3-0.1-0.6-0.1-0.8c0-0.2,0-0.2,0-0.2s0,0-0.3,0.3c-0.3,0.3-0.8,0.9-1.3,1.4c-0.5,0.5-1,1-1.5,1.3
		c-0.5,0.4-1,0.7-1.3,0.9c-0.3,0.2-0.3,0.2-0.3,0.2s0,0,0-0.4c0-0.4,0.1-1.1,0.2-1.7c0-0.6,0-1.2,0-1.6c0-0.4-0.1-0.6-0.1-0.7
		c0-0.1,0-0.1,0-0.1s0,0-0.5,0.3c-0.5,0.3-1.6,0.9-2.5,1.3c-0.9,0.4-1.7,0.8-2.5,1.1c-0.8,0.3-1.7,0.5-2.4,0.8
		c-0.7,0.2-1.4,0.3-1.7,0.4c-0.3,0.1-0.3,0.1-0.3,0.1s0,0,0.2-0.2c0.2-0.2,0.7-0.7,1-1c0.4-0.4,0.6-0.7,0.8-1
		c0.2-0.3,0.4-0.7,0.5-0.9c0.1-0.2,0.1-0.2,0.1-0.2s0,0-0.5,0.1c-0.5,0.1-1.4,0.3-2.3,0.5c-0.9,0.2-1.7,0.4-2.4,0.4
		c-0.7,0.1-1.2,0.1-1.5,0.1c-0.3,0-0.3,0-0.3,0s0,0,0.2-0.3c0.2-0.3,0.6-0.8,1-1.3c0.5-0.6,1-1.2,1.5-1.7c0.5-0.5,0.8-0.8,1-1
		c0.2-0.2,0.2-0.2,0.2-0.2s0,0-0.8,0.1c-0.8,0.1-2.3,0.2-3.8,0.5c-1.5,0.3-2.9,0.7-4.1,1.1c-1.3,0.4-2.4,0.8-3.4,1.3
		c-1,0.5-2,1.1-2.9,1.6c-0.9,0.5-1.7,1.1-2.1,1.3c-0.4,0.3-0.4,0.3-0.4,0.3s0,0,0.6-0.5c0.6-0.5,1.7-1.4,2.8-2.2
		c1.1-0.7,2-1.3,3.1-1.8c1.1-0.5,2.3-1.1,3.5-1.6C406.2,60.3,407.4,59.9,408.5,59.5L408.5,59.5z"/>
	<path fill-rule="evenodd" clip-rule="evenodd" fill="#B54049" d="M410.3,4.4c0.9-0.1,2.1-0.2,3-0.3c0.9-0.1,1.4-0.1,1.7,0
		c0.3,0,0.4,0.1,0.4,0.2c0.1,0.1,0.2,0.2,0.3,0.4c0.2,0.1,0.4,0.3,0.5,0.4c0.1,0.1,0.2,0,0.3-0.1c0.1-0.1,0.3-0.4,0.4-0.5
		c0.1-0.2,0.2-0.2,0.3-0.2c0.1,0,0.3,0,0.6,0.1c0.3,0.1,0.9,0.2,1.5,0.4c0.6,0.2,1.2,0.5,1.7,0.8c0.6,0.3,1.1,0.6,1.4,1
		c0.4,0.4,0.6,0.8,0.7,1.2c0.1,0.4,0.2,0.9,0.2,1.4c0,0.5,0,0.9,0,1.3c0,0.4-0.1,0.8-0.2,1c-0.1,0.3-0.2,0.4-0.5,0.6
		c-0.2,0.2-0.5,0.3-1,0.4c-0.4,0.1-1,0.2-1.3,0.2c-0.3,0-0.3,0-0.3,0s0,0,0-0.1c0-0.1,0-0.4,0-0.5c0-0.1,0-0.1,0-0.1s0,0,0.1-0.1
		c0.1-0.1,0.4-0.2,0.5-0.3c0.2-0.1,0.2-0.3,0.3-0.6c0-0.3,0-0.7-0.1-1.2c-0.1-0.5-0.2-1.1-0.3-1.4c-0.1-0.4-0.2-0.6-0.5-0.7
		c-0.3-0.1-0.8-0.3-1.1-0.3c-0.3,0-0.5,0-0.6,0.1c-0.1,0.1-0.2,0.2-0.2,0.4c0,0.3,0.1,0.6,0.3,1.3c0.1,0.7,0.3,1.7,0.4,2.3
		c0.1,0.6,0.1,0.9,0.1,1.2c0,0.3,0,0.6,0,0.9c0,0.2,0,0.4-0.2,0.7c-0.2,0.3-0.5,0.7-0.7,0.9c-0.2,0.2-0.3,0.2-0.7,0
		c-0.4-0.1-1-0.4-1.5-0.7c-0.5-0.2-0.8-0.5-1-0.8c-0.2-0.3-0.2-0.7-0.3-1.3c-0.1-0.6-0.2-1.4-0.4-2.2c-0.2-0.7-0.4-1.4-0.5-1.7
		c-0.1-0.3-0.2-0.4-0.5-0.5c-0.3-0.1-0.8-0.3-1.5-0.4c-0.6-0.1-1.3-0.1-1.8,0c-0.5,0-0.7,0.1-0.8,0.2c-0.1,0.1-0.2,0.3-0.3,0.6
		c0,0.4-0.1,1,0,1.5c0,0.5,0.1,0.9,0.2,1.2c0.1,0.3,0.3,0.6,0.5,0.7c0.2,0.2,0.4,0.3,0.7,0.4c0.3,0.1,0.7,0.2,1.2,0.2
		c0.6,0.1,1.3,0.1,1.6,0.1c0.4,0,0.4,0,0.4,0s0,0,0,0.2c0,0.2,0.1,0.5,0.1,0.6c0,0.2,0,0.2,0,0.2s0,0-0.4,0c-0.4,0-1.3,0-2,0
		c-0.7,0-1.4-0.1-2-0.3c-0.6-0.1-1.2-0.4-1.7-0.8c-0.5-0.4-1-1.1-1.3-1.8c-0.3-0.7-0.5-1.5-0.6-2.1c-0.1-0.7,0-1.2,0.2-1.7
		c0.2-0.5,0.6-0.9,1-1.3c0.4-0.3,0.8-0.6,1.2-0.8C408.9,4.6,409.4,4.5,410.3,4.4L410.3,4.4z"/>
	<path fill-rule="evenodd" clip-rule="evenodd" fill="#FFFFFF" d="M413.2,51c0-0.3-0.1-0.8-0.2-1.3c-0.1-0.4-0.2-0.8-0.3-1.1
		c-0.1-0.3-0.2-0.5-0.2-0.6c0-0.1,0-0.1,0-0.1s0,0,0.2,0.1c0.2,0.1,0.6,0.3,1,0.7c0.4,0.3,0.8,0.7,1.2,1.1c0.4,0.4,0.7,0.7,0.9,1.1
		c0.2,0.4,0.4,0.7,0.5,0.9c0.1,0.2,0.1,0.2,0.1,0.2s0,0-0.1,0.1c-0.1,0.1-0.3,0.3-0.5,0.4c-0.2,0.2-0.5,0.3-0.8,0.3
		c-0.3,0.1-0.7,0.1-1,0.1c-0.3,0-0.4,0-0.5-0.1c-0.1,0-0.1,0-0.1,0s0,0,0-0.2c0-0.2-0.1-0.6-0.1-0.9C413.3,51.4,413.2,51.3,413.2,51
		L413.2,51z"/>
	<path fill-rule="evenodd" clip-rule="evenodd" fill="#FFFFFF" d="M430.5,50.5c-0.2-0.5-0.4-1-0.6-1.5c-0.2-0.5-0.4-0.9-0.5-1.1
		c-0.1-0.2-0.1-0.2-0.1-0.2s0,0,0,0.2c0,0.2-0.1,0.6-0.2,1.1c-0.1,0.4-0.2,0.8-0.3,1.3c-0.1,0.4-0.3,0.8-0.4,1.1
		c-0.1,0.3-0.2,0.4-0.2,0.5c0,0.1,0,0.1,0,0.1s0,0,0.1,0.1c0.1,0.1,0.3,0.3,0.6,0.4c0.3,0.1,0.6,0.2,0.9,0.2c0.3,0,0.5,0,0.7-0.1
		c0.2-0.1,0.4-0.2,0.4-0.3c0.1-0.1,0.1-0.1,0.1-0.1s0,0-0.1-0.3C430.8,51.6,430.7,51,430.5,50.5L430.5,50.5z"/>
	<path fill-rule="evenodd" clip-rule="evenodd" fill="#EDC0AD" d="M426,19.6c-0.4-1.1-0.9-2.5-1.3-3.6c-0.4-1.1-0.8-2-1-2.4
		c-0.2-0.4-0.2-0.4-0.2-0.4s0,0-0.1,0.1c-0.1,0.1-0.2,0.2-0.4,0.3c-0.3,0.1-0.7,0.2-1.1,0.3c-0.4,0.1-0.8,0.1-0.9,0.2
		c-0.2,0-0.2,0-0.2,0.1c0,0.1-0.1,0.3-0.3,0.5c-0.1,0.2-0.4,0.5-0.7,0.8c-0.3,0.3-0.6,0.6-0.8,0.7c-0.2,0.1-0.2,0.2-0.2,0.2
		c0,0,0,0,0,0.3c0,0.3,0,0.9,0.1,1.8c0,0.9,0,2.2,0,3.4c0,1.2-0.1,2.2-0.1,2.8c0,0.6,0,0.7,0.1,0.8c0.1,0.1,0.2,0.2,0.6,0.5
		c0.4,0.3,1,0.7,1.6,1.2c0.5,0.5,1,1.1,1.3,1.6c0.4,0.6,0.6,1.1,0.9,1.7c0.2,0.6,0.4,1.2,0.5,2c0.1,0.8,0.1,1.8,0.1,2.6
		c0,0.9-0.1,1.6-0.2,2.7c-0.1,1.1-0.4,2.6-0.6,4c-0.2,1.5-0.5,3-0.7,4.4c-0.3,1.4-0.5,2.6-0.7,3.4c-0.2,0.8-0.3,1.3-0.3,1.5
		c0,0.2,0,0.2,0,0.2s0,0,0.3,0c0.3,0,0.9,0,1.4,0c0.5,0,0.8,0.1,1,0.1c0.2,0,0.2,0,0.2,0s0,0,0.2-0.8c0.2-0.8,0.5-2.3,0.9-4
		c0.4-1.7,0.8-3.5,1.2-5.2c0.4-1.6,0.7-3.1,0.9-4.5c0.3-1.4,0.5-2.8,0.6-4.1c0.1-1.3,0.2-2.5,0.2-3.7c0-1.1-0.2-2.2-0.4-3.2
		c-0.2-1.1-0.5-2.2-0.8-3.3C426.6,21.7,426.3,20.8,426,19.6L426,19.6z"/>
	<path fill-rule="evenodd" clip-rule="evenodd" fill="#EFD4C5" d="M426,19.6c-0.4-1.1-0.9-2.5-1.3-3.6c-0.4-1.1-0.8-2-1-2.4
		c-0.2-0.4-0.2-0.4-0.2-0.4s0,0-0.1,0.1c-0.1,0.1-0.2,0.2-0.4,0.3c-0.3,0.1-0.7,0.2-1.1,0.3c-0.4,0.1-0.8,0.1-0.9,0.2
		c-0.2,0-0.2,0-0.2,0.1c0,0.1-0.1,0.3-0.2,0.5c0.2,0,0.5,0.1,0.7,0.2c0.4,0.1,0.6,0.3,1,0.8c0.3,0.5,0.7,1.3,1.2,2.5
		c0.5,1.2,1,2.7,1.4,4.2c0.4,1.6,0.8,3.2,1,4.7c0.2,1.5,0.4,2.8,0.3,4.3c0,1.6-0.2,3.4-0.4,5.2c-0.2,1.7-0.5,3.3-0.9,5.2
		c-0.4,1.8-0.8,4-1.1,5.6c-0.3,1.6-0.5,2.8-0.6,3.5c0,0.2,0,0.3-0.1,0.4c0.5,0,0.8,0.1,1,0.1c0.2,0,0.2,0,0.2,0s0,0,0.2-0.8
		c0.2-0.8,0.5-2.3,0.9-4c0.4-1.7,0.8-3.5,1.2-5.2c0.4-1.6,0.7-3.1,0.9-4.5c0.3-1.4,0.5-2.8,0.6-4.1c0.1-1.3,0.2-2.5,0.2-3.7
		c0-1.1-0.2-2.2-0.4-3.2c-0.2-1.1-0.5-2.2-0.8-3.3C426.6,21.7,426.3,20.8,426,19.6L426,19.6z"/>
	<path fill-rule="evenodd" clip-rule="evenodd" fill="#B54049" d="M403.9,55.4c0.9-0.3,1.9-0.7,2.8-1c0.9-0.3,1.8-0.6,2.6-0.9
		c0.8-0.3,1.7-0.5,2.1-0.6c0.4-0.1,0.4-0.1,0.4-0.1s0,0,0-0.3c0-0.3,0-0.9,0-1.5c0-0.6-0.1-1.2-0.3-1.8c-0.2-0.6-0.4-1.2-0.6-1.7
		c-0.2-0.5-0.3-0.8-0.4-1c-0.1-0.2-0.1-0.2,0-0.3c0.1,0,0.2,0,0.5,0.1c0.3,0.1,0.8,0.4,1.4,0.7c0.6,0.3,1.2,0.8,1.7,1.2
		c0.5,0.4,0.9,0.7,1.2,1c0.3,0.3,0.5,0.6,0.8,0.9c0.3,0.3,0.6,0.8,0.8,1c0.2,0.2,0.2,0.2,0.2,0.2c0,0,0.1,0.1,0.4,0.1
		c0.3,0,0.8,0,1.2-0.1c0.4-0.1,0.7-0.1,0.9-0.2c0.2,0,0.2-0.1,0.4-1c0.2-1,0.6-2.9,1-5c0.4-2.2,0.8-4.6,1-6.1
		c0.2-1.5,0.3-2.2,0.4-3.1c0-0.9,0-2-0.1-2.8c-0.1-0.8-0.1-1.2-0.3-1.8c-0.2-0.5-0.5-1.2-0.8-1.7c-0.3-0.5-0.6-0.9-1-1.3
		c-0.4-0.4-0.9-0.7-1.3-1c-0.4-0.2-0.7-0.3-0.9-0.3c-0.2,0-0.3,0-0.5,0c-0.2,0.1-0.7,0.2-1.1,0.4c-0.4,0.2-0.9,0.5-1.3,0.9
		c-0.5,0.4-0.9,0.9-1.4,1.4c-0.5,0.6-1,1.2-1.7,2.2c-0.6,0.9-1.3,2.2-2,3.4c-0.7,1.2-1.3,2.5-2,3.8c-0.7,1.3-1.3,2.6-1.9,3.8
		c-0.6,1.2-1.2,2.2-1.8,3.2c-0.6,1-1.3,2-1.9,3.1c-0.7,1.1-1.3,2.2-1.8,3.1c-0.5,0.9-0.9,1.6-1.4,2.5c-0.5,0.8-1.1,1.8-1.5,2.4
		c-0.4,0.6-0.5,0.8-0.6,0.9c-0.1,0.1-0.1,0.1-0.1,0.1s0,0,0.3-0.2c0.3-0.2,0.9-0.5,1.7-0.8c0.7-0.4,1.6-0.8,2.4-1.1
		C402.3,56,403,55.7,403.9,55.4L403.9,55.4z"/>
	<path fill-rule="evenodd" clip-rule="evenodd" fill="#E04E53" d="M412.3,86.7c-0.4,0.7-0.7,1.5-1,2.2c-0.6,1.5-1.1,3-1.4,4.4
		c-0.3,1.4-0.5,2.6-0.7,4.2c-0.2,1.6-0.3,3.5-0.3,5.1c0,1.6,0.2,2.9,0.5,4c0.3,1.1,0.7,2,1.1,2.7c0.4,0.7,0.8,1.1,1.1,1.5
		c0.4,0.4,0.7,0.6,1,0.8c0.3,0.2,0.6,0.3,0.8,0.4c0.2,0.1,0.2,0.1,0.2,0.1s0,0-0.2,0c-0.2,0-0.6,0.1-1.1,0.1c-0.5,0-1.1,0.1-1.7,0
		c-0.6-0.1-1.3-0.2-1.7-0.2c-0.3-0.1-0.3-0.1-0.3-0.1s0,0,0,0.4c0,0.4,0.1,1.3,0.4,2.4c0.3,1.1,0.7,2.5,1.3,3.9
		c0.6,1.3,1.3,2.6,2.2,3.6c0.8,1.1,1.8,2,2.7,2.7c0.8,0.7,1.5,1.2,2.4,1.7c0.8,0.5,1.7,0.9,2.7,1.3c0.9,0.4,1.8,0.7,2.8,0.9
		c1,0.2,2,0.3,2.5,0.4c0.5,0.1,0.5,0.1,0.5,0.1l0,0c0,0,0,0-0.6,0.2c-0.6,0.2-1.7,0.7-2.6,1.1c-1,0.3-1.8,0.5-2.7,0.7
		c-0.8,0.1-1.7,0.2-2.4,0.2c-0.7,0-1.3,0.1-1.6,0.1c-0.3,0-0.3,0-0.3,0s0,0,0.3,0.4c0.3,0.4,0.9,1.2,1.5,2.1c0.6,1,1.3,2.1,2.3,3.8
		c1,1.7,2.4,4.1,3.5,6.1c1.1,2,2,3.6,2.6,5c0.7,1.4,1.2,2.6,1.6,3.5c0.4,0.9,0.7,1.6,1,2.3c0.3,0.8,0.5,1.6,0.6,2.3
		c0.1,0.7,0.2,1.1,0.3,1.3c0,0.2,0,0.2,0,0.2s0,0-0.3-0.3c-0.3-0.3-0.8-0.8-1.7-1.4c-0.8-0.7-2-1.4-3.2-2.1c-1.2-0.7-2.4-1.3-3-1.6
		c-0.6-0.3-0.6-0.3-0.6-0.3l0,0c0,0,0,0,0.1,0.6c0.1,0.6,0.4,1.8,0.5,3c0.1,1.2,0.1,2.6,0.1,4.2c-0.1,1.7-0.3,3.7-0.6,6.1
		c-0.4,2.4-1,5.3-1.9,8.6c-0.9,3.3-2.2,7-3.4,9.9c-1.2,2.9-2.3,5.1-3,6.5c-0.8,1.5-1.2,2.2-1.4,2.6c-0.2,0.4-0.2,0.4-0.2,0.4l0,0
		c0,0,0,0-0.2-0.4c-0.2-0.4-0.5-1.3-1-2.1c-0.5-0.8-1.1-1.6-1.6-2.2c-0.5-0.6-0.8-0.9-0.9-1.1c-0.2-0.2-0.2-0.2-0.2-0.2l0,0
		c0,0,0,0-0.3,0.6s-1,1.7-2.2,3.5c-1.3,1.7-3.2,4-5,6.2c-1.9,2.2-3.7,4.2-5.8,6.4c-2.1,2.2-4.4,4.6-6.4,6.5c-1.9,2-3.5,3.5-5,5.1
		c-1.5,1.6-3,3.1-4.4,4.8c-1.4,1.7-2.8,3.6-4.4,6c-1.6,2.4-3.4,5.3-4.7,7.6c-1.3,2.2-2.2,3.8-3.2,5.8s-2.2,4.7-2.9,6
		c-0.6,1.3-0.6,1.3-0.6,1.3l0,0c0,0,0,0-0.5-0.8c-0.5-0.8-1.6-2.4-2.8-4c-1.2-1.6-2.5-3.1-4.3-5c-1.8-1.8-3.9-3.9-6.1-5.9
		c-2.2-1.9-4.3-3.8-6.5-5.3c-2.2-1.6-4.4-2.9-6.9-4.3c-2.5-1.3-5.3-2.6-7.2-3.4c-1.9-0.8-2.9-1.1-3.3-1.3c-0.5-0.2-0.5-0.2-0.5-0.2
		l0,0c0,0,0,0,0,0.4c0,0.4-0.1,1.3,0,2.7c0,1.4,0.1,3.2,0.1,4.1c0,0.9,0,0.9,0,0.9s0,0-0.8-0.6c-0.8-0.6-2.5-1.9-5.2-3.7
		c-2.7-1.8-6.5-4.2-9.5-6c-3-1.8-5.1-3-7-4.2c-1.9-1.2-3.5-2.5-5-3.9c-1.4-1.4-2.7-2.9-3.7-4.3c-1-1.5-1.9-2.9-2.3-3.6
		c-0.4-0.7-0.4-0.7-0.4-0.7s0,0-0.2,0.4c-0.2,0.4-0.6,1.1-1.1,2.2c-0.4,1.1-0.9,2.5-1.1,3.2c-0.2,0.7-0.2,0.7-0.2,0.7l0,0
		c0,0,0,0-0.4-0.5c-0.4-0.5-1.3-1.4-2.8-3.2c-1.5-1.8-3.7-4.4-5.6-7.2c-1.9-2.8-3.4-5.7-5-9c-1.6-3.3-3.1-7-4.3-10.7
		c-1.2-3.7-2-7.3-2.4-9.8c-0.4-2.5-0.5-3.8-0.6-4.4c0-0.6,0-0.6,0-0.6s0,0-0.9,0.3c-0.9,0.3-2.6,1-4,1.5c-1.5,0.5-2.6,1-3.6,1.4
		c-1,0.4-1.7,0.9-2.4,1.3c-0.6,0.4-1.1,0.7-1.3,0.8c-0.2,0.2-0.2,0.2-0.2,0.2s0,0,0.4-1c0.4-1,1.1-3,1.8-5c0.8-1.9,1.5-3.7,2.5-5.9
		c1-2.1,2.2-4.6,3.1-6.5c0.9-1.9,1.6-3.3,2.6-4.9c0.9-1.6,2.2-3.5,3.4-5.1c1.3-1.7,2.6-3.1,3.3-3.9c0.7-0.7,0.7-0.7,0.7-0.7s0,0,0,0
		c0,0,0,0-0.8-0.1c-0.8-0.2-2.5-0.5-4.1-0.9c-1.5-0.4-2.9-0.9-3.9-1.3c-1-0.4-1.6-0.9-2-1.1c-0.3-0.2-0.3-0.2-0.3-0.2l0,0
		c0,0,0,0,0.7-0.2c0.7-0.2,2.2-0.6,4-1.4c1.8-0.8,4-2,5.7-3c1.7-0.9,2.8-1.5,4-2.3c1.2-0.8,2.4-1.8,3.2-2.5c0.8-0.7,1.3-1.2,1.6-1.4
		c0.2-0.2,0.2-0.2,0.2-0.2s0,0,0.4,0.2c0.4,0.2,1.2,0.5,2.7,1c1.5,0.4,3.8,1,6,1.2c2.1,0.3,4,0.3,5.8,0.3c-0.6,0.6-1.4,1.4-2.3,2.5
		c-1.2,1.4-2.5,3.2-3.6,5c-1.1,1.8-2,3.6-2.8,5.1c-0.8,1.6-1.5,2.9-2.1,4.3c-0.7,1.5-1.3,3-1.8,4.6c-0.5,1.6-0.9,3.2-1.1,4
		c-0.2,0.8-0.2,0.8-0.2,0.8c0,0,0,0,0.4-0.4c0.3-0.4,0.9-1.2,1.7-2c0.8-0.8,1.7-1.5,2.5-2.1c0.8-0.6,1.6-1,2.3-1.4
		c0.8-0.4,1.5-0.7,1.9-0.8c0.4-0.1,0.4-0.1,0.4-0.1s0,0-0.1,0.5c-0.1,0.5-0.2,1.4-0.4,2.6c-0.1,1.2-0.2,2.6-0.2,4.2
		c0,1.6,0.2,3.3,0.5,5.6c0.3,2.2,0.8,5,1.5,8.3c0.7,3.3,1.8,7,2.8,10c1,3,2.1,5.4,3.2,7.6c1.2,2.2,2.4,4.3,3.6,6
		c1.1,1.7,2.1,2.9,2.6,3.5c0.5,0.6,0.5,0.6,0.5,0.6s0,0,0-0.9c0-0.9,0.1-2.6,0.3-4.2c0.2-1.7,0.4-3.4,0.7-4.7
		c0.3-1.4,0.7-2.5,1.1-3.7c0.4-1.3,1-2.7,1.3-3.7c0.4-1,0.7-1.4,0.8-1.6c0.1-0.2,0.1-0.2,0.1-0.2s0,0,0.5,0.8
		c0.5,0.8,1.6,2.5,3.4,4.4c1.8,2,4.3,4.2,7.9,6.5c3.6,2.3,8.2,4.7,12.2,6.7c4,2,7.3,3.7,10.6,5.6c3.3,1.9,6.5,3.9,8.9,5.6
		c2.4,1.7,4.1,3.1,5.6,4.3c1.5,1.3,2.7,2.4,3.9,3.9c1.2,1.5,2.3,3.3,2.9,4.1c0.6,0.9,0.6,0.9,0.6,0.9s0,0,0.3-0.9
		c0.3-0.9,1-2.8,1.9-4.7c0.9-1.9,2-3.9,3.6-6.3s3.9-5.2,5.8-7.7c1.9-2.5,3.4-4.6,4.7-6.5c1.3-1.8,2.3-3.4,3.4-5.2
		c1.1-1.9,2.2-4.1,3.2-6.2c1-2.2,1.9-4.4,2.5-6.4c0.6-2,1.1-3.8,1.3-4.6c0.2-0.9,0.2-0.9,0.2-0.9s0,0,0.4,0.6
		c0.4,0.6,1.2,1.9,1.9,3.1c0.7,1.2,1.2,2.3,1.8,3.5c0.5,1.1,1,2.3,1.3,3.2c0.3,0.9,0.4,1.7,0.5,2c0.1,0.4,0.1,0.4,0.1,0.4
		s0,0,0.4-0.7c0.4-0.7,1.3-2,2.3-3.8c1-1.8,2.2-4.2,3.2-6.3c0.9-2.1,1.6-4,2.1-5.9c0.5-1.9,1-3.8,1.2-6.1c0.2-2.3,0.2-4.9,0-7.1
		c-0.2-2.3-0.6-4.3-1.4-6.9c-0.8-2.6-2-5.9-3.3-9.1c-1.3-3.2-2.7-6.4-3.6-8.4c-0.9-2-1.2-2.7-1.3-3.1c-0.2-0.4-0.2-0.4-0.2-0.4
		s0,0,0.4,0.3c0.4,0.3,1.1,0.9,1.9,1.5c0.7,0.5,1.4,1,2,1.4c0.7,0.4,1.4,0.8,1.7,1c0.3,0.2,0.3,0.2,0.3,0.2s0,0-0.2-0.5
		c-0.2-0.5-0.7-1.4-1.2-2.7c-0.4-1.3-0.8-3.1-1-4.6c-0.2-1.5-0.1-2.9,0.2-5.1c0.4-2.2,1-5.3,1.9-8.2c0.8-2.9,1.8-5.7,3.3-8.8
		c1.5-3.1,3.4-6.5,5.1-9.3c1.7-2.7,3.3-4.8,4.5-6.3c1.2-1.5,2.1-2.4,2.6-2.8c0.4-0.4,0.4-0.4,0.4-0.4s0,0-0.3,0.5
		c-0.3,0.5-1,1.4-1.8,2.4c-0.8,1-1.6,2.1-2.2,3.2c-0.7,1.1-1.2,2.1-1.7,3.3C412.9,84.8,412.6,85.6,412.3,86.7L412.3,86.7z"/>
	<path fill-rule="evenodd" clip-rule="evenodd" fill="#EFD4C5" d="M276.2,112.7c-0.8-0.6-1.5-1.3-2.2-2c-1.3-1.4-2.5-3.1-3.1-4
		c-0.6-0.9-0.6-0.9-0.6-0.9s0,0,0.4-0.1c0.4-0.1,1.1-0.4,2-0.7c0.9-0.3,1.9-0.6,2.4-0.7c0.5-0.1,0.5-0.1,0.5-0.1s0,0-0.2-0.2
		c-0.2-0.2-0.6-0.6-1-1.1c-0.4-0.5-0.7-1.1-0.9-1.4c-0.2-0.3-0.2-0.3-0.2-0.3s0,0,0.7-0.1c0.7-0.1,2.2-0.3,3.9-0.8
		c1.8-0.5,3.9-1.3,6-2.4c2.1-1.1,4.3-2.4,6.4-3.8c2.1-1.4,4.2-2.8,6.2-4.3c2-1.6,4-3.3,5.6-4.8c1.6-1.5,2.9-2.6,3.6-3.2
		c0.6-0.6,0.6-0.6,0.6-0.6l0,0c0,0,0,0-0.2,0c-0.2,0-0.6,0.1-1.2,0.1c-0.5,0-1.2-0.1-1.5-0.1c-0.3,0-0.3,0-0.3,0s0,0,0.4-0.2
		c0.3-0.2,1-0.7,1.8-1.2c0.7-0.5,1.5-1.2,1.9-1.5c0.4-0.3,0.4-0.3,0.4-0.3s0,0-0.3,0c-0.3,0-0.8-0.1-1.3-0.3c-0.5-0.1-1-0.4-1.3-0.5
		c-0.3-0.2-0.5-0.3-0.5-0.3c-0.1-0.1-0.1-0.1-0.1-0.1s0,0,0.6-0.3c0.6-0.3,1.9-0.8,3.5-1.6c1.6-0.9,3.5-2.1,5.1-3.3
		c1.5-1.2,2.7-2.4,4.1-4.1c1.4-1.7,3.1-3.9,4.5-5.8c0.2-0.3,0.4-0.5,0.6-0.8c-0.6,1.2-1.3,2.5-2.1,3.9c-1.3,2-3,4-4.7,5.8
		c-1.7,1.8-3.5,3.4-4.5,4.2c-0.9,0.8-0.9,0.8-0.9,0.8s0,0,0.2,0c0.2,0,0.5,0,0.8,0c0.4,0,0.9-0.1,1.1-0.1c0.2,0,0.2,0,0.2,0
		s0,0-0.3,0.3c-0.3,0.3-0.9,0.8-1.6,1.3c-0.7,0.6-1.6,1.2-2.1,1.5c-0.5,0.3-0.5,0.3-0.5,0.3s0,0,0.3,0c0.3,0,0.9,0,1.5,0
		c0.6,0,1.1-0.1,1.4-0.1c0.3,0,0.3,0,0.2,0c0,0,0,0-0.6,0.6c-0.6,0.6-1.7,1.9-3,3.1c-1.2,1.2-2.5,2.5-4.2,3.9
		c-1.6,1.4-3.6,3.1-6.1,4.8c-2.4,1.7-5.3,3.5-7.8,5c-2.5,1.5-4.8,2.7-6.9,3.7c-2.2,0.9-4.2,1.6-5.3,1.9c-1,0.3-1,0.3-1,0.3
		s0,0,0.1,0.2c0.1,0.2,0.3,0.7,0.6,1c0.3,0.4,0.7,0.6,0.9,0.8s0.2,0.1,0.2,0.1s0,0-0.6,0.3c-0.6,0.3-1.8,0.8-2.9,1.2
		c-1.1,0.4-2.1,0.7-2.6,0.9c-0.5,0.2-0.5,0.2-0.5,0.2s0,0,0.2,0.5c0.2,0.5,0.6,1.4,1.5,2.7C274.6,110.7,275.4,111.8,276.2,112.7
		L276.2,112.7z"/>
	<path fill-rule="evenodd" clip-rule="evenodd" fill="#EFD4C5" d="M389.6,21.6c1.4-1.3,3.3-3.2,5-4.9c1.7-1.7,3.1-3.1,4.2-4.2
		c1.1-1.1,1.9-1.8,2.5-2.4c0.6-0.6,1-1,1.5-1.2c0.4-0.3,0.9-0.4,1.1-0.5c0.2-0.1,0.2-0.1,0.2-0.1s0,0,0,0.4c0,0.3,0.1,0.9,0.3,1.6
		c-0.3,0.1-0.7,0.3-1.2,0.6c-0.7,0.4-1.4,1-2.3,1.8c-0.9,0.9-1.9,2.1-3.7,3.8c-1.8,1.7-4.3,4-6.2,5.8c-1.9,1.8-3.3,3.2-4.7,4.8
		c-1.5,1.6-3,3.4-4.7,5.3c-1.7,2-3.5,4.1-5.4,6.1c-1.9,1.9-3.9,3.6-5.3,4.8c-1.4,1.2-2.3,1.8-3.5,2.2c-1.2,0.4-2.6,0.6-4.4,0.7
		c-1.7,0.1-3.7,0-5.3-0.2c-1.6-0.2-2.8-0.4-3.8-0.6c-0.9-0.2-1.5-0.5-1.8-0.7c-0.3-0.1-0.3-0.1-0.3,0c0,0.1,0.1,0.4,0.2,0.6
		c0.1,0.3,0.2,0.6,0.2,0.8c0,0.2,0,0.2-0.2,0.1c-0.3-0.1-0.9-0.2-1.6-0.3c-0.8-0.1-1.7-0.2-2.9-0.1c-1.2,0.1-2.7,0.3-4.2,0.6
		c-1.5,0.3-3.1,0.8-5,1.5c-1.8,0.7-3.9,1.6-5.8,2.5c-1.9,0.9-3.7,1.8-4.9,2.3c-0.1,0.1-0.2,0.1-0.3,0.2c0.8-0.6,2.2-1.6,3.7-2.6
		c1.6-1.1,3.4-2.1,5-2.9c1.6-0.8,3-1.5,4.5-2.2c1.5-0.7,3.2-1.3,4-1.6c0.8-0.3,0.8-0.3,0.8-0.3s0,0-0.2-0.1
		c-0.2-0.1-0.6-0.4-0.9-0.6c-0.3-0.2-0.5-0.3-0.7-0.4c-0.1-0.1-0.1-0.1-0.1-0.1s0,0,0.4-0.1c0.4-0.1,1.2-0.2,2.2-0.3
		c1-0.1,2.1,0,3.2,0.2c1,0.2,2,0.5,3,0.8c1,0.3,2,0.6,3.1,0.7c1,0.2,2,0.2,3,0c1-0.2,2-0.6,2.5-0.9c0.5-0.2,0.5-0.2,0.5-0.2
		s0,0,0.4,0.1c0.4,0.1,1.2,0.3,1.9,0.4c0.8,0.1,1.5,0.1,2.4-0.1c0.9-0.2,2-0.5,2.9-1c0.9-0.5,1.7-1.2,2.5-2.1
		c0.8-0.9,1.8-2.2,2.9-3.4c1.1-1.3,2.3-2.7,3.4-3.8c1-1.2,1.9-2.1,3-3.2c1.1-1.1,2.5-2.3,3.5-3.1c1-0.8,1.7-1.3,2.4-1.9
		C387.4,23.7,388.2,22.9,389.6,21.6L389.6,21.6z"/>
	<path fill-rule="evenodd" clip-rule="evenodd" fill="#EFD4C5" d="M417.7,23.5c0,0.3-0.1,0.5-0.1,0.7c-0.1,0.4-0.1,0.6-0.3,0.8
		c-0.2,0.2-0.5,0.5-0.9,0.8c-0.4,0.3-1,0.7-1.5,1c-0.5,0.4-1,0.8-1.5,1.3c-0.5,0.5-0.9,1-1.5,1.8c-0.6,0.8-1.3,1.8-2,2.9
		c-0.7,1.1-1.4,2.4-2.2,3.8c-0.8,1.4-1.6,3.1-2.7,5.1c-1.1,2.1-2.5,4.6-3.6,6.6c-1.1,2-2,3.4-3,5c-1,1.6-2,3.3-2.9,4.7
		c-0.9,1.4-1.5,2.4-1.9,3.1c-0.4,0.7-0.6,0.9-0.7,1.1c-0.1,0.1-0.1,0.1-0.1,0.1s0,0,0.7-0.4c0.7-0.4,2-1.1,2.9-1.7
		c0.9-0.5,1.5-0.9,2.5-1.4c1.1-0.5,2.6-1.3,4.3-1.9c1.7-0.6,3.5-1.2,5.2-1.7c1.7-0.5,3.4-0.9,5-1.3c1.6-0.4,3.1-0.8,4.7-1.1
		c1.7-0.2,3.5-0.3,5.2-0.3c1.8,0.1,3.5,0.3,4.9,0.5c1.4,0.2,2.6,0.5,3.5,0.9c0.9,0.4,1.6,0.8,2.1,1.4c0.5,0.6,0.9,1.3,1.2,2.2
		c0.2,0.9,0.3,1.9,0.3,2.9c-0.1,1-0.2,2-0.3,2.5c-0.1,0.5-0.1,0.5-0.1,0.5s0,0-0.1-0.1c-0.1-0.1-0.3-0.4-0.6-0.6
		c-0.3-0.2-0.6-0.4-0.7-0.5c-0.1-0.1-0.1-0.1-0.1-0.1s0,0,0,0.3c0,0.3-0.1,1-0.2,1.7c-0.2,0.8-0.5,1.6-0.9,2.5
		c-0.4,0.8-0.8,1.6-1.4,2.5c-0.6,0.8-1.2,1.7-1.7,2.4c-0.5,0.7-1,1.2-1.2,1.5c-0.2,0.3-0.2,0.3-0.2,0.3s0,0-0.1-0.2
		c-0.1-0.2-0.3-0.7-0.4-1c0-0.1-0.1-0.2-0.1-0.2c0.6-0.6,1.3-1.4,1.9-2.2c0.9-1.2,1.6-2.4,2-3.6c0.5-1.2,0.7-2.5,0.9-3.5
		c0.1-1,0.1-1.7,0.1-2.4c-0.1-0.7-0.2-1.3-0.3-1.6c-0.1-0.3-0.1-0.3-0.1-0.3s0,0-0.1,0.1c-0.1,0.1-0.2,0.4-0.4,0.7
		c-0.2,0.3-0.4,0.6-0.5,0.8c-0.1,0.2-0.1,0.2-0.1,0.2s0,0-0.1-0.3c-0.1-0.3-0.3-0.8-0.8-1.4c-0.5-0.6-1.3-1.2-2.1-1.6
		c-0.7-0.4-1.4-0.7-2.6-0.9c-1.2-0.2-3-0.4-4.6-0.4c-1.5,0-2.8,0.2-4.4,0.4c-1.6,0.2-3.6,0.5-5.7,1.1c-2.1,0.6-4.4,1.4-6.5,2.1
		c-2.1,0.7-3.9,1.4-5.8,2.3c-1.9,0.9-3.7,2-5.3,3c-1.6,1-2.9,1.7-3.5,2.1c-0.6,0.4-0.6,0.4-0.6,0.4s0,0,0.4-0.8
		c0.4-0.8,1.3-2.3,1.9-3.3c0.6-1,0.9-1.5,1.1-1.7c0.2-0.2,0.2-0.2-0.1-0.1c-0.3,0.1-0.8,0.3-1.1,0.5c-0.3,0.1-0.4,0.2-0.4,0.2
		c0,0,0,0,0.6-0.8c0.6-0.8,1.8-2.5,3.5-5.2c1.7-2.7,4-6.3,5.9-9.3c1.9-3,3.3-5.5,4.9-8c1.5-2.5,3.1-5.1,4.4-7
		c1.3-1.9,2.3-3.1,3.2-3.9c0.9-0.9,1.6-1.4,2.3-1.7c0.7-0.3,1.5-0.4,2.1-1.3C417.4,24.1,417.6,23.8,417.7,23.5L417.7,23.5z"/>
</g>
<g>
	<g>
		<path fill="#B24650" d="M55.9,159.3l0.1-6.6c0.1-4.8-0.1-10.4-0.4-16.5c-0.8-14.1-0.2-31.5,1.8-51.8l0.2-2.4l2.1-1.3
			c1.3-0.8,3.2-2,5.7-3.7c0.2-0.2,0.8-0.8,2.1-2.3c1.7-1.8,3.7-3,6-3.7c0.2-0.1,1.4-0.6,4.7-3l9.8-7l-0.7,4.2c0.7-0.5,1.4-1,2.3-1.6
			l7.3-5l0.5,8.8c0.4,6,1.1,12.4,2.1,19.1c2.5-3.8,5.7-7.7,9.7-11.9c7.3-7.6,15.4-14.3,24-20l4.6-3l2.6,4.8c0.1,0.1,0.3,0.5,0.6,1
			l0.1,0.2c0.7,1.2,1.1,2.5,1.1,3.8l0,0.5c0,0.3,0,0.5-0.1,0.9l4.7,0l-2.3,5.4l6.8,2.2l-7.3,5.8c-13.5,10.7-16.8,16.2-17.5,18.4
			c0.1,0,0.2,0.1,0.3,0.1c2.6,0.9,5.2,1.8,7.8,2.6l0.4,0.1l0.3,0.2c4.4,2.2,7.1,5.9,8,10.5c0.2,1.2,0.3,2.6,0.2,4.1
			c-0.3,9.3-6.6,19.8-19.3,31.9l-2.1,2l-2.8-0.8c-0.8-0.2-1.6-0.6-2.2-1.1l-3.9,0.7l-0.4-1.5l-2.8,0.9l1.2-2.3l-15.3,1.8l11.9-10.5
			c7.3-6.5,9.6-9.9,10.3-11.3c-1.6-0.5-3.1-0.9-4.6-1.4c-1.2-0.4-2.3-1-3.2-1.9l-1.5,0.7l-2.1-0.9c-0.2-0.1-0.4-0.2-0.6-0.2
			c0.6,2.3,1.2,4.5,1.9,6.7l1.1,3.7l-3,1.8c-0.3,0.9-0.5,1.3-0.6,1.6l0.7,0.4l-1.3,0.9c-0.4,0.8-0.9,1.5-1.5,2.1
			c-0.4,0.8-1,1.4-1.8,2l-0.7,0.4l-0.8,0.2c-0.8,0.2-1.6,0.3-2.5,0.1c-0.9,0.7-2,1.5-3.3,2.4l-5.4,4l-2.2-6.4
			c-1.1-3-2.1-6.1-3.1-9.4c-1.6,1.2-3.3,2.5-5.2,4c-0.3,3.9-0.5,7.7-0.7,11.5l-0.1,2.1l-1.6,1.4c-0.6,0.6-1.4,1-2.2,1.2
			c-0.3,0.7-0.7,1.3-1.2,1.8l-2.1,2.2l0,0.1l-0.5,0.4l-3.6,3.8l-0.1-0.2l-0.6,1.3l-0.3-1.6c-0.1,0-0.2,0.1-0.2,0.1l0,0L55.9,159.3z
			 M75,140.5C75,140.5,75,140.5,75,140.5C75,140.5,75,140.5,75,140.5z M118.8,122.2L118.8,122.2L118.8,122.2z M118.3,121
			C118.3,121,118.3,121,118.3,121L118.3,121z M126.2,95.5C126.2,95.5,126.2,95.5,126.2,95.5C126.2,95.5,126.2,95.5,126.2,95.5z
			 M125.6,94.1L125.6,94.1L125.6,94.1z M73.7,71C73.7,71,73.7,71,73.7,71C73.7,71,73.7,71,73.7,71z M132.4,60.6L132.4,60.6
			L132.4,60.6z"/>
		<path fill="#B24650" d="M163.6,226.6l-0.7-1.7c-1.8,0.1-3.1,0.1-4.1,0l-3.9-0.2l-0.8-3.8c-4.5-21.1-7.5-42.7-9.2-64.3l-0.2-2.4
			l1.8-1.6c0.2-0.2,0.5-0.5,0.9-0.8c0-0.6,0-1.3,0.1-2.2l0.1-3.5l3.3-1.1c0.2-0.1,0.4-0.1,0.6-0.2l-0.1-0.2l5.4-1.7l2.8-1
			c0.1-0.1,0.3-0.1,0.5-0.2l1.9-0.8l2.4-9.3l4.1,11.3l0.5-0.3l0,1.7l0.8,2.2c1.5,4.1,3,8,4.4,11.5c0-2.4,0-5,0-7.7l0-2.5l2-1.5
			c0.3-0.2,0.6-0.4,0.8-0.6c0.1-0.5,0.1-1.1,0.2-1.8l0.4-3.8l3.8-0.6c0.3,0,1.7-0.3,9-2.3l6.8-1.8l-0.2,3.3l2.5-1.7l-1,10.4
			c-1.9,21.2-2.2,40.6-0.9,57.6l0.2,2.4l-1.7,1.6c-0.7,0.7-1.7,1.6-3.1,2.8l-0.5,0.4l0.6,3.9l-3-0.1l-1.1,5.8l-3.1-3.3l-0.5,2.4
			l-1.4-4.4l-0.8-0.9l-4-0.2l-0.6-4.6c-2.6-2.7-5.1-5.3-7.3-7.7c0.4,3.1,0.9,6.3,1.4,9.7l0.4,2.4l-1.7,1.8c-1.2,1.2-2,2.2-2.6,2.8
			l-0.7,0.8l1,3.8l-4.3,0.1L163.6,226.6z"/>
		<path fill="#B24650" d="M118.9,244.7l-0.9-4.9l-2.3,3l-2.7-9.5c-7.5-26.1-13.2-49.2-16.9-68.5l-0.6-3l2.4-1.9
			c0.8-0.6,1.6-1.3,2.4-2.1l0.5,0.4l0.2-0.9l7.7-7l0.8,1.4l7.9-6.4l0.7,3.4l0.6-0.7c0.9-1.1,2.1-1.8,3.4-2.2
			c0.4-0.1,0.8-0.2,1.3-0.2c0,0,0-0.1,0-0.1c0.3-0.9,0.8-1.9,1.4-2.8l-4.8-7.4l10.7,3.3c1.2-2.8,1.9-3.9,2.6-4.6l7.1-7.4l1.4,10.2
			c4.6,32.5,8.8,56.9,12.4,72.3l0.5,2.1l-1.2,1.8c-0.9,1.4-1.8,2.7-2.9,4l-5,6.5l-2,4.1l-0.3-0.9l-1.3,2.3l-2-5.2l-3.7,1.1l-1.5-5.3
			c-1.1,1.5-2.2,3.1-3.3,4.8c0,0.1,0,0.1,0.1,0.2l1.3,3.5l-3,2.2c-0.1,0.1-0.6,0.5-1.6,1.4l-3.5,3.3l-0.6,0.9l-1.1,3.7l-0.8-0.6
			L118.9,244.7z"/>
		<path fill="#B24650" d="M74.5,252.3c-0.5-0.1-1-0.2-1.5-0.3l-2-0.4l-1.6-2.5l-1.9-0.3l-0.7,0.8c-4-2.4-7.5-6.1-10.4-11.1l-1.7-1.9
			l0.7,0.1c-4.4-8.3-6.7-18.2-6.8-29.5c-0.1-11,1.7-21.1,5.5-30.3c4.2-9.9,9.9-16.6,17.1-20l-2.7-3.4l7.2,1.8
			c3.9-0.9,7.8-0.5,11.6,1.1l1.2,0.5l2.2,2.9l0.9-3l5.9,7.4c2,2.5,3.8,5.4,5.3,8.6c1.2,2.5,2.2,5.1,3,7.9
			c3.6,12.5,3.7,26.1,0.1,40.4c-3.8,15.4-10.6,25.4-20.1,29.7C82.3,252.3,78.5,252.8,74.5,252.3z M80.5,189.1c-0.5-0.1-1,0-1.7,0.3
			c-3.5,1.5-5.9,5.9-7.2,13c-1.4,7.6-0.7,14.2,2.1,19.5c1,2,2.3,3.4,3.6,4.1c0.7,0.4,1.5,0.6,2.7,0c3.4-1.5,5.8-5.7,7.1-12.5l0,0
			c1.5-7.6,0.9-14-1.8-19.5c-1.1-2.2-2.3-3.7-3.7-4.5C81.2,189.3,80.9,189.1,80.5,189.1z"/>
		<path fill="#B24650" d="M155.6,141.7l-2.7-1.1c-0.8-0.3-1.5-0.8-2.1-1.3l-3.9,0.3l-0.3-1.5l-2.9,0.7l1.4-2.2l-15.4,0.4l12.8-9.4
			c7.9-5.8,10.5-9,11.3-10.3c-1.5-0.6-3-1.2-4.5-1.8c-1.2-0.5-2.2-1.2-3-2.1l-1.6,0.6l-2-1.1c-3.3-1.8-5.4-3.2-6.8-4.4
			c-2.9-2.5-4.6-5.7-4.9-9.2l0,0c-0.1-1-0.1-1.9,0-3l0-0.2c1.1-8.2,7-16.9,18.2-26.7c8-6.9,16.6-12.9,25.8-17.8l4.8-2.6l2.1,5
			c0.1,0.1,0.3,0.5,0.5,1l0.1,0.2c0.6,1.3,0.9,2.6,0.8,3.9l0,0.3l0,0.3c0,0.3-0.1,0.5-0.2,0.9l4.6,0.4l-2.8,5.2l6.5,2.8l-7.8,5.1
			c-14.5,9.4-18.2,14.6-19.1,16.7c0.1,0,0.2,0.1,0.2,0.1c2.5,1.1,5,2.2,7.5,3.3l0.3,0.2l0.3,0.2c4.2,2.6,6.6,6.5,7,11.2
			c0.1,1.3,0.1,2.7-0.1,4.1c-1.1,9.3-8.4,19.1-22.1,30L155.6,141.7z M154.2,116.4C154.2,116.4,154.2,116.4,154.2,116.4L154.2,116.4z
			 M164.4,91.7C164.4,91.7,164.4,91.8,164.4,91.7C164.4,91.8,164.4,91.7,164.4,91.7z M164,90.3L164,90.3L164,90.3z M173.8,57.5
			L173.8,57.5L173.8,57.5z"/>
		<path fill="#B24650" d="M45.8,282l-3.1-4.3l-3.4,2.1l-2.6-4.3c-14.2-23.3-26.1-44.8-35.4-63.7L0,209.3l1.4-2.3
			c0.7-1.1,1.5-2,2.5-2.6c0.3-0.2,0.7-0.4,1.1-0.5c0-0.2,0.1-0.4,0.1-0.6l0.3-1.4c-0.1-1.2,0.2-2.3,0.6-3.3l0.9-4.6l1.8,1.8
			c0.5-0.2,0.9-0.4,1.5-0.6c0.4-3.7,0.8-5,1.4-6l5-9.5l1.4,3.3l9.1-12.5l0,0l1.3-1.8l0.2,2.4c0.4-0.4,0.7-0.9,1.2-1.4l6-7.1l1.8,6.3
			l2.3-1.8l2.1,7.2c2.3,7.9,4.4,14.8,6.2,20.7l3.4-4l2.4,9.2c0.4,1.4,0.9,3.9,1.6,7.5l0.4,2.2l-0.4,0.6c0.4,1.2,0.9,2.9,1.6,5
			l0.7,2.2l-1.1,1.7c1.1,2.8,2.5,6.5,4.1,11l0.2,0.5c0.3,1.5,1.4,4.6,4.4,11l1.1,2.3l-1.3,2.2c-0.6,1.1-1.4,2.2-2.3,3.2l-2.2,2.5
			l-0.7-0.2l-0.3,5.6l-3.4-1.2l-3.2,7.9l-1-2l-0.1,0.3c-0.4,1.4-1,3.1-1.9,5.1l-3.1,6.8L45.8,282z"/>
		<path fill="#B24650" d="M188.6,222.6l4.4-13.4l1.1-0.5l-0.6-9.2l3.2-0.5c0.1-6.8,0.3-13.8,0.6-20.9l-8,5.5l3.4-17.9l-0.5-5.1
			l1.4-2.3l-1.3-2.2l-0.6-8.1l2.7-1.6c10.2-5.9,20.3-8.4,30-7.4c13.3,1.4,19,8.3,21.4,13.9l-2.5,1.9l2.5,0.3l-0.3,3l2.4,3.5l0,1.5
			c0.2,5.1-0.7,10.5-2.6,16.1l0.2,4l-1.1-1.5c0,0.1,0,0.1-0.1,0.2c-4.2,10.9-10.8,20.2-19.5,27.5c-8.9,7.4-18.5,11.7-28.7,12.6
			L195,222l0,0L188.6,222.6z M222,171.4c-0.6,3.4-1.2,7-1.7,10.8c1.1-2.3,1.8-4.6,2-6.9c0.1-0.7,0.1-1.3,0.1-1.9
			C222.3,172.6,222.3,172,222,171.4z"/>
		<path fill="#B24650" d="M238.9,202.6l0.7-6.7c1.7-17,3.9-31.5,6.7-43l0.9-3.8l3.9-0.1c0.2,0,0.5,0,0.8,0l0,0l7.2-0.3l1.1-1.2
			l0.2,1.1l2.6-0.1l0.2,1.1c0.8-0.1,1.6-0.1,2.5-0.1l6.4,0.1l-0.8,3l3,0.3l-2.5,6.2c-4.4,11-7.6,20.5-9.6,28.3
			c-0.2,0.8-0.6,1.9-1.1,3.3c-0.2,0.5-0.4,0.9-0.5,1.1c-0.5,1.8-0.8,3.7-0.9,5.5l-0.4,4l-4,0.5c-0.7,0.1-1.7,0.1-2.9,0.1l-2.4,0
			l-0.5-0.6l-2.9,1.7l-1.7-1.7L238.9,202.6z"/>
		<polygon fill="#B24650" points="231,223.8 231.1,223.1 231,223.1 232,215.3 224.4,212.8 232.8,209.5 234,200.5 259.3,201 
			259,204.2 259.2,204.1 258,214.2 258.2,214.4 257.3,223.4 		"/>
		<path fill="#B24650" d="M216.4,143.2l2.9-10.6c4.2-15.3,8-28,11.3-37.9c-2.3,0.6-4.5,1.2-6.7,1.8l-13.6,3.8l8.3-11.5
			c0.6-0.8,1-1.5,1.4-2.2l-1-0.1l1.4-0.7c0.1-0.1,0.1-0.2,0.1-0.3l-0.7-0.6l-7.7-0.6l10.8-5.1c0-0.1,0.1-0.1,0.1-0.2
			c0.4-1,0.7-1.8,1.1-2.6c0-0.3,0-0.6-0.1-1l-0.2-4.1l4-1c2.6-0.6,10-2.2,22.7-4.7c9.1-1.8,16.8-3.1,23-3.7l5.4-0.5l0,2.8l4.1-0.4
			l-2.9,7.6c-0.6,1.6-1.6,4.1-2.9,7.3l-0.3,0.7c-0.2,0.6-0.5,1.3-0.8,2l0.2,0.4l-1.4,1.8l-0.2,0.3l-0.1,0l-0.3,0.4
			c-0.1,0.1-0.7,0.9-1.8,2.4l-1.5,2l-2.5,0c-2.2,0-4.6,0.1-7.3,0.3c-4.7,9-9.5,19.5-14.3,31.4c-0.4,1.1-1,2.3-2,3.9
			c-0.8,1.3-1,1.9-1.1,2.1l-3,9.7l-2.5,0.8c-1.6,0.5-2.8,0.8-3.8,1l-3.1,0.6l-0.7-1c-0.2,0.1-0.3,0.3-0.5,0.4l-3.8,3L226,140
			l-2.4,3.1l0.2-3.4L216.4,143.2z M279.8,69.1c0,0,0,0.1,0,0.1C279.8,69.2,279.8,69.1,279.8,69.1z"/>
		<path fill="#B24650" d="M167.9,144l2.5-10.5c0.3-1.2,0.7-2.3,1.2-3.4l-1.2-0.8l2.6-4.2c0.1-0.1,0.2-0.3,0.2-0.4c0-0.1,0-0.2,0-0.4
			l-0.4-3.6l2-1c0.3-2.2,0.5-4.4,0.9-6.6l-11.3,3.8l9.4-12.8c0.3-0.3,0.6-0.8,0.9-1.2l-1-1.1l0.6-2.5c0.2-0.9,0.5-2.2,0.9-3.8
			l0.1-0.4l-4,1.4l3-13l0.1-0.1l-5.9,0.2l6.6-4.4l-0.9-1.9l0.8-0.1l1.8-7.5l2.1-1.1c1.8-0.9,4.6-2.3,8.1-3.9l0.2-0.1
			c6.8-2.9,15.7-5.8,26.6-8.7l2.9-0.8l1.2,1.3c4.2-1,9-2,14.3-3l12-2.3l-6.9,10.1c0,0-0.2,0.2-0.4,0.9l3.8-0.6l-5.9,9.4
			c-1.2,1.9-2,3.3-2.5,4.2l-1.1,2.1l-1.2,0.3l-2.4,6.2c-1.2,3.2-2.5,6.9-3.7,10.9l-0.8,2.7l-2.8,0.7c-5.4,1.3-11.5,3-18,5
			c-0.5,1.7-1,3.5-1.5,5.4c4.1-1.5,8.1-2.8,12.2-4l11.5-3.4l-1.7,3.2l1.5-0.4l-3.8,9.6c-0.2,0.4-0.2,0.4-0.3,0.8l-0.8,3.8l0.2,0.3
			l-1.1,1.6l-0.1,0.2l-0.1,0l-0.5,0.7c-0.1,0.2-0.4,0.7-0.9,1.7l-1.1,2.1l-2.3,0.5c-6.3,1.3-12.2,3.1-17.5,5.3l-0.6,0.2l-0.2,1.9
			l-3.7,0.6c-0.3,0-0.9,0.2-2.3,0.6l-2.1,0.6c-3,1.4-6.2,3-9.6,4.7L167.9,144z"/>
	</g>
	<g>
		<path fill="#E2575B" d="M59.1,155.5l0-2.6c0.1-4.9-0.1-10.5-0.4-16.7c-0.8-13.9-0.2-31.2,1.8-51.4l0.1-1l0.8-0.5
			c1.3-0.8,3.3-2.1,6-3.8l0,0c0,0,0.5-0.4,2.5-2.7c1.3-1.4,2.8-2.3,4.6-2.8c0.4-0.1,1.7-0.6,5.5-3.4l3.9-2.8l-0.7,4.4
			c0.1-0.1,0.2-0.2,0.2-0.3l0.1-0.1c0.2-0.2,0.5-0.4,0.9-0.7l1.3-0.9c1.2-1,3.1-2.3,5.5-4l2.9-2l0.2,3.5c0.5,8.7,1.8,18.1,3.7,28.1
			c2.2-5.7,6.7-12.1,13.3-19.1c7.1-7.4,15.1-14,23.5-19.6l1.8-1.2l1,1.9c0.1,0.2,0.3,0.6,0.8,1.2c0.5,0.8,0.7,1.6,0.8,2.4l0,0.2
			c0,0.5-0.2,1.2-1.4,4.1l4.4,0l-1.8,4.2l4.6,1.5l-2.9,2.3c-15.4,12.1-18.8,18.5-18.9,21.6c0,0.8,0.8,1.4,2.5,2
			c2.6,0.9,5.2,1.8,7.8,2.6l0.2,0.1c3.6,1.8,5.8,4.7,6.4,8.4c0.2,1,0.2,2.2,0.2,3.5c-0.2,8.4-6.4,18.4-18.4,29.8l-0.8,0.8l-1.1-0.3
			c-1.1-0.3-1.6-1-1.9-1.5c-0.3,0-0.7,0.1-1.1,0.2l-1.8,0.3l-0.8-2.8l-9.6,1.1l4.8-4.2c10.4-9.2,11.6-13,11.7-14.2
			c0-0.4,0.1-1.1-1.8-2c-1.8-0.5-3.5-1.1-5.3-1.6c-1.4-0.4-2.4-1.3-3.2-2.6c-0.3,0.1-0.9,0.3-1.7,0.7l-0.8,0.4l-0.8-0.4
			c-2.6-1.1-4.4-2-5.7-2.8l-0.4,0.3c1,4.4,2.2,8.6,3.4,12.6l0.4,1.5l-1.9,1.1c-0.5,1.4-0.7,2.2-0.9,2.6c-0.5,1-1.1,1.9-1.8,2.7
			c-0.1,0.4-0.4,0.8-0.9,1.1l-0.6,0.3c-0.7,0.2-1.4,0.1-2.2-0.3c-1.1,0.8-2.7,1.9-4.6,3.3l-2.2,1.6l-0.9-2.5
			c-1.5-4.2-2.9-8.6-4.4-13.3c-2.6,1.9-5.9,4.4-9.7,7.4c-0.4,4.4-0.6,8.7-0.8,12.9l0,0.8l-0.6,0.6c-0.3,0.3-0.7,0.5-1.2,0.6
			c-0.4,0.1-0.9,0.1-1.3,0c-0.3,1.3-0.6,2-1.1,2.6l-2.4,2.5l0-0.1c-0.4,0.5-0.5,0.6-0.6,0.7l-0.6,0.6l0,0l-0.2,0.2
			c-0.8,0.7-1.5,1.1-2.3,1.3c-0.4,0.1-0.8,0.1-1.3,0.1l-0.1,0.3L59.1,155.5z M79.1,101.6c-0.5,3.6-0.9,6.8-1.3,9.5
			c1.1-0.9,2.1-1.7,3.1-2.5C80.2,106.3,79.6,103.9,79.1,101.6z"/>
		<path fill="#E2575B" d="M157.7,222l-0.3-1.5c-4.4-21-7.5-42.5-9.1-63.9l-0.1-1l0.7-0.7c0.4-0.4,1-1,1.8-1.7c0-0.6,0-1.7,0.1-3.4
			l0-1.4l1.3-0.4c0.9-0.3,2.3-0.8,4.1-1.4l0,0l4.8-1.7c0.2-0.1,0.3-0.1,0.5-0.2l2.8-1.1l0,1.9l0.9-3.6l2.2,6
			c3.9,10.7,7.5,19.5,10.7,26c-0.1-1.9-0.2-3.9-0.3-6.1c-0.2-4.7-0.2-10.4-0.2-17.1l0-1l0.8-0.6c0.7-0.5,1.3-1,1.8-1.5
			c0.1-0.8,0.2-1.8,0.4-3.1l0.1-1.5l1.5-0.3c0.6-0.1,2.6-0.6,9.3-2.4l2.7-0.7l-0.2,2.8c-0.1,0.9-0.1,1.7-0.2,2.4l2.4-1.6l-0.4,4.2
			c-2,21.4-2.3,40.9-0.9,58.1l0.1,0.9l-0.7,0.7c-0.7,0.7-1.7,1.5-3,2.7l-1.8,1.5l0.3,1.9l-2-0.1l-0.5,2.6l-2.6-2.7l-2.7-0.1
			l-0.4-3.1c-5.7-5.8-10.5-11.1-14.2-15.7c0.5,5.7,1.4,12.3,2.5,19.5l0.1,1l-0.7,0.7c-1.2,1.3-2.1,2.3-2.7,3l-1.7,2l0.4,1.6
			l-2.5,0.1c-1.7,0.1-3,0.1-3.9,0L157.7,222z"/>
		<path fill="#E2575B" d="M117.2,236.4l-1.1-3.8c-7.5-26.1-13.1-49-16.8-68.3l-0.2-1.2l1-0.8c0.9-0.7,1.8-1.4,2.6-2.3l0.6-0.5
			l0.7,0.4l0.2-1.1l4.2-3.8l0.9,1.6c0-0.1,0.1-0.2,0.1-0.3l0.2-0.5l6.2-5l0.6,3.2c0.1,0.6,0.2,1.1,0.3,1.6l2.3-1.7l0.3,3.5
			c1.7,17.5,3.4,31.5,5.1,41.7c1.6-2.2,3.6-4.8,5.9-7.8c-3.1-10.5-6.3-23.8-9.5-39.6l-0.2-1l0.6-0.7c0.5-0.6,1.2-1,1.9-1.2
			c0.5-0.1,1.1-0.1,1.8-0.1c0.2,0,0.3,0,0.4,0c0.1-0.1,0.6-0.6,1.1-2.1c0.7-1.8,1.4-3,2.3-3.7l-1.5-2.3l3.9,1.2l1.9-0.5
			c0.1-0.2,0.2-0.5,0.3-0.8c1.3-3.1,1.9-4,2.3-4.5l2.8-3l0.6,4.1c4.6,32.6,8.8,57,12.5,72.6l0.2,0.8l-0.5,0.7
			c-0.8,1.3-1.7,2.6-2.7,3.8l-2.3,3l-0.4-1.2l-1.2,2.4l-0.1-0.5l-1.7,2.9l-0.7-1.8l-3.5,1l-2.4-8.3c-2.5,3.2-5.1,6.9-7.7,10.9
			c0.1,0.6,0.3,1.2,0.5,1.7l0.5,1.4l-1.2,0.9c-0.4,0.3-1,0.9-1.9,1.6l-1.4,1.3l-0.6-0.6c-0.3,0.5-0.7,1.1-1.1,1.8l-2.7,4.5l-0.6-3.2
			l-0.3-0.3L117.2,236.4z M132.4,143.4L132.4,143.4L132.4,143.4z"/>
		<path fill="#E2575B" d="M75.2,249.4L75.2,249.4c-0.4-0.1-0.9-0.1-1.3-0.2l-0.8-0.2l-1.6-2.6l-1.1-0.2l-1.1,1.3l-0.7-0.4
			c-4-2.4-7.4-6.3-10.2-11.6c-4.2-7.9-6.4-17.4-6.5-28.3c-0.1-10.5,1.6-20.3,5.3-29.1c4-9.5,9.4-15.8,16.3-18.7
			c4.4-1.9,8.8-2,13.1-0.2l0.5,0.2l5.2,6.8l1-3.2l2.4,2.9c1.9,2.3,3.5,5,5,8c1.1,2.3,2.1,4.8,2.9,7.5c3.5,12,3.5,25,0.1,38.8
			c-3.6,14.4-9.8,23.8-18.5,27.7C81.8,249.4,78.5,249.9,75.2,249.4z M92.1,166.3l-1.2,0.4l1.1,0.1L92.1,166.3z M73.3,241.7l-4.5-1.7
			l-1.9-2.3l4.4,0.7L73.3,241.7z M81.2,186.2c-1-0.2-2.2,0-3.3,0.5c-4.5,2-7.5,7.1-9,15.2c-1.5,8.3-0.7,15.5,2.3,21.4
			c1.3,2.5,3,4.4,4.9,5.4c1.7,0.9,3.5,1,5.4,0.1c4.3-1.9,7.3-6.9,8.8-14.7c1.6-8.1,0.9-15.3-2.1-21.4c-1.3-2.7-3-4.7-4.9-5.8
			C82.6,186.6,81.9,186.3,81.2,186.2z"/>
		<path fill="#E2575B" d="M155.3,138.4l-1.1-0.4c-1.1-0.4-1.5-1.1-1.7-1.7c-0.3,0-0.6,0-1.1,0.1l-1.8,0.2l-0.5-2.9l-9.7,0.2l5.1-3.8
			c11.2-8.3,12.8-11.9,12.9-13.1c0.1-0.4,0.2-1.1-1.6-2.1c-1.7-0.7-3.4-1.4-5.1-2.1c-1.3-0.6-2.3-1.5-2.9-2.9
			c-0.4,0.1-1,0.3-1.7,0.5l-0.8,0.3l-0.8-0.4c-3-1.7-5.1-3-6.2-4c-2.4-2-3.7-4.5-3.9-7.2c-0.1-0.8-0.1-1.6,0-2.4
			c1-7.4,6.8-15.8,17.2-24.9c7.8-6.7,16.3-12.6,25.2-17.4l1.9-1l0.9,2c0.1,0.2,0.3,0.6,0.6,1.3c0.4,0.9,0.6,1.7,0.5,2.5l0,0.2
			c-0.1,0.5-0.3,1.2-1.8,4l4.3,0.4l-2.2,4.1l4.4,1.9l-3.1,2C166,82.4,162,88.4,161.6,91.5c-0.1,0.7,0.7,1.5,2.3,2.2
			c2.5,1.1,5.1,2.3,7.6,3.3l0.2,0.1c3.4,2.2,5.3,5.2,5.7,9c0.1,1,0,2.2-0.1,3.5c-1,8.3-8.1,17.8-21,28L155.3,138.4z"/>
		<path fill="#E2575B" d="M40.4,275.8l-1-1.7c-14.2-23.3-26-44.6-35.3-63.5l-0.5-1l0.6-0.9c0.4-0.7,0.9-1.2,1.5-1.6
			c0.4-0.3,0.9-0.4,1.6-0.6c0.1,0,0.2,0,0.2-0.1c0.1-0.2,0.4-0.9,0.7-2.6l0.3-1.8l0-0.3c-0.1-2,0.9-2.9,1.6-3.3
			c0.6-0.3,1.3-0.6,2.2-0.7c0.2,0,0.4-0.1,0.5-0.1c0.1-0.2,0.3-0.8,0.4-2.1c0.4-3.5,0.8-4.5,1.1-5.1l2-3.8l1.6,4
			c2.8,6.7,6.8,16.4,12.1,28.8c0.7-1.2,1.6-2.5,2.4-3.8c-3.7-7.8-7.9-17.5-12.4-28.8l-0.4-1l7.7-10.5l0.8,1c0,0,0.2,0.2,0.4,0.5
			l0.2-1l0.3-0.4c0.7-0.9,1.7-2.1,3.1-3.8l2.4-2.8l1,3.6c0.1,0.4,0.3,1,0.5,1.6l2.3-1.8l0.8,2.9c3,10.2,5.6,18.9,7.9,25.8l3.2-3.7
			l1,3.7c0.4,1.4,0.9,3.8,1.6,7.3l0.2,0.9l-0.5,0.7c-0.1,0.1-0.2,0.2-0.2,0.3l0.4,0.3l0.2,0.6c0.4,1.2,1,3,1.7,5.3l0.3,0.9l-0.5,0.8
			c-0.2,0.3-0.5,0.7-0.7,1c1.2,3,2.8,7.1,4.7,12.4l0,0.2c0.6,2.4,2.1,6.3,4.6,11.7l0.4,0.9l-0.5,0.9c-0.5,0.9-1.2,1.8-1.9,2.7
			l-0.9,1l-1.3-0.4c-0.2-0.1-0.3-0.1-1.2-0.6l-0.4,5.8l-2.3-0.8c-0.1,0.2-0.1,0.3-0.2,0.5l-1.6,4l-2-3.8c-2.1-4-5.2-10-9.1-17.8
			c-0.7,1.3-1.6,2.9-2.7,4.9c3.2,6.9,6.6,13.6,9.9,20l0.4,0.7l-0.2,0.7c-0.3,1.2-0.9,2.7-1.8,4.6l-2.3,5.1l-0.3-1.3l-0.8,4.5
			l-0.7-0.9l0,0.1L40.4,275.8z"/>
		<path fill="#E2575B" d="M193.1,219.3l2.6-7.8l1.8-0.8l-0.5-8.6l3-0.5c0-9.5,0.3-19.3,0.9-29.2c-1,0.6-2,1.3-3.1,2l-4,2.7l1.8-9.3
			l-0.1,0l0.2-0.1l0.3-1.7l-0.4-4.5l1.8-2.9l-1.8-3.1l-0.4-5.5l1.1-0.6c9.6-5.6,19.1-8,28.1-7.1c9.5,1,15.9,5.1,19,12.1l0.3,0.7
			l-0.6,0.5l-0.4,3.5l2.6,3.6l0,0.6c0.2,5.5-0.9,11.4-3.3,17.6c-4,10.4-10.3,19.3-18.6,26.3c-8.4,7-17.5,11-27.1,11.9L193.1,219.3z
			 M220,166.9c-1.5,7.7-2.8,16.5-3.9,26.4c1.8-1.7,3.4-3.6,4.8-5.7c2.7-3.9,4.2-7.9,4.6-11.8c0.1-0.8,0.1-1.7,0.1-2.4
			C225.4,169.7,223.6,167.6,220,166.9z"/>
		<path fill="#E2575B" d="M242.5,199l0.3-2.7c1.7-16.9,3.9-31.2,6.7-42.5l0.4-1.5l1.5,0c0.7,0,1.8,0,3.1-0.1l0.2,0l0.7-0.1l5.2-0.2
			l0.2,1.5c1.5-0.5,3.1-0.7,5-0.7l2.5,0l-0.7,2.8l2.5,0.2l-1,2.5c-4.4,11.1-7.7,20.8-9.7,28.7c-0.2,0.7-0.5,1.7-1,2.8
			c-0.5,1.1-0.6,1.4-0.6,1.5l0,0c-0.5,2-0.8,4-1,6l-0.2,1.6l-1.6,0.2c-0.6,0.1-1.5,0.1-2.6,0.1l-1,0l-0.6-0.8
			c-0.2-0.3-0.5-0.6-0.7-0.9c-0.7,0.6-1.3,1-1.8,1.3l-1.3,0.8l-1.2-1.2c-0.3,0.1-0.5,0.1-0.8,0.2L242.5,199z"/>
		<path fill="#E2575B" d="M234.6,220.9l0.9-7.2l0.1,0l1.3-10l19.3,0.4l-0.4,4l0,0l-0.1,1.4l-0.4,3.6l-1.1,1.1l1,1.3l-0.5,5.1
			L234.6,220.9z"/>
		<path fill="#E2575B" d="M221.2,137.8l1.2-4.2c5-18.2,9.4-32.6,13.1-43c-4.1,1-8.2,2.1-12.2,3.2l-5.5,1.5l3.3-4.6
			c1.1-1.6,2-3,2.5-4.2l0.2-0.6l1-0.7l-1.4-1.1l1.4-1.6c0.2-0.2,0.6-0.7,1.1-2.3c0.4-1.2,0.9-2.1,1.4-2.9c-0.1-0.5-0.1-1.2-0.1-1.9
			l-0.1-1.6l1.6-0.4c2.5-0.6,10.1-2.2,22.6-4.7c9-1.8,16.6-3,22.7-3.6l2.2-0.2l0,2.5c0.1,0.1,0.2,0.2,0.3,0.4l2.1-0.2l-1,3
			c-0.6,1.6-1.6,4.1-2.9,7.3l-0.3,0.6c-0.2,0.6-0.4,1.2-0.8,1.8l-0.5,1l-0.3,0l0.2,0.4l-0.7,1c-0.1,0.1-2.1,2.8-2.1,2.8l-0.3,0.4
			l-1,0c-2.7,0-5.8,0.1-9.1,0.4c-5,9.4-10.1,20.6-15.2,33.2c-0.3,0.8-0.9,1.9-1.7,3.4c-0.9,1.5-1.3,2.3-1.4,2.7l-2.6,8.3l-1,0.3
			c-1.4,0.5-2.5,0.8-3.4,0.9l-1.3,0.2l-0.7-1c-0.2-0.3-0.4-0.7-0.6-1.1c-0.8,0.6-1.8,1.5-3.1,2.5l-1.5,1.2l-1.2-1.4
			c-0.3,0.1-0.6,0.3-1,0.4L221.2,137.8z"/>
		<path fill="#E2575B" d="M172.5,138.5l1-4.2c0.5-2,1.2-3.6,2.3-5l-1.2-0.8l1-1.7c0.3-0.5,0.6-0.9,0.9-1.3c-0.1-0.4-0.2-0.9-0.3-1.4
			l-0.2-1.4l1.6-0.8c0.5-4.3,1.1-8.7,1.7-13.1c-0.3,0.1-0.6,0.2-0.9,0.3l-6,2l3.8-5.1c0.6-0.8,1.3-1.8,2.3-3.2
			c-0.3-0.3-0.6-0.6-0.8-0.9l-0.7-0.8l0.2-1c0.2-0.9,0.5-2.2,0.9-3.9l0.2-0.9l0.8-0.4c0.8-0.5,1.8-1,2.9-1.6
			c0.2-1.3,0.5-2.7,0.8-4.1c-1.3,0.5-2.5,1-3.7,1.4l-3.5,1.3l1.6-6.9l2.5-3.1l-0.9-1.9l0.1,0c0-0.1-0.1-0.2-0.1-0.3l-0.5-1.1
			l0.8-0.9c0,0,0,0,0,0c0,0,0.2-0.4,0.5-1.7c0-0.1,0-0.2,0.1-0.3l-1.1,0l0.9-3.8l0.8-0.4c1.8-0.9,4.5-2.2,8-3.9
			c6.7-2.8,15.5-5.7,26.3-8.6l1.2-0.3L217,60c4.5-1.1,9.8-2.2,15.9-3.4l4.8-0.9l-2.8,4c-0.2,0.4-0.6,1.1-1.1,2.8
			c-0.4,1.6-0.9,2.8-1.5,3.7c0.1,0,0.2,0,0.2,0l2.2-0.4l-2.3,3.8c-1.2,1.9-2.1,3.4-2.6,4.4l-0.4,0.8l-0.9,0.2
			c-8,1.7-15.2,3.5-21.5,5.4c-0.3,0.8-0.7,1.8-1.1,3c2-0.7,4.5-1.5,7.3-2.5l3.3-1.2l-0.4,2.1c2.1-0.5,4.3-1.1,6.6-1.6l3.7-0.9
			l-1.4,3.5c-1.3,3.3-2.5,7-3.7,11.1L221,95l-1.1,0.3c-5.9,1.5-12.5,3.3-19.7,5.5c-1.1,3.7-2.3,8-3.5,12.7c5.8-2.3,11.6-4.3,17.4-6
			l4.6-1.4l-1.6,2.9l2.5-0.7l-1.6,4c-0.2,0.5-0.3,0.7-0.4,1.3l-0.4,1.8l-0.2,0l-0.7,2.3l-0.1,0l0.2,0.4l-0.7,1
			c-0.3,0.4-0.7,1.1-1.1,2l-0.4,0.9l-0.9,0.2c-6.5,1.4-12.5,3.2-18,5.5l-2.2,0.9l-0.2,1.4l-1.5,0.2c-0.6,0.1-1.5,0.3-2.6,0.6
			l-1.2,0.3l-0.1-0.1c-3.4,1.5-7.1,3.3-11,5.3L172.5,138.5z"/>
	</g>
	<g>
		<path fill="#EACDBD" d="M61.4,152.6l0.2-0.1c0.4-1.5,0.7-2.2,1-2.3c0.1,0,0.2,0.3,0.4,0.9c0.2,0.6,0.6,0.9,1.1,0.7
			c0.4-0.1,0.9-0.4,1.5-0.9l-0.6-3.7l1.8-3.4l0.8,1.4l-0.5,0.9c0.1,1.8-0.1,3.1-0.6,4c0.1-0.1,0.6-0.6,1.4-1.6
			c0.8-1,1.3-1.5,1.4-1.5c0.1,0,0.1,0,0.1,0.2c0.3-0.3,0.5-1,0.7-2.2c0.2-1.2,0.5-1.8,0.9-1.9c0.2-0.1,0.5,0.1,0.8,0.5
			c0.3,0.4,0.6,0.5,0.9,0.5c0.1,0,0.2-0.1,0.4-0.2c0.2-4.6,0.5-9.2,0.9-13.9c5.4-4.3,9.6-7.5,12.8-9.6c1.7,5.7,3.4,11,5.1,15.9
			c2.3-1.7,4.1-2.9,5.3-3.7c-0.1,0-0.1-0.1,0-0.2c0.2-0.1,0.5,0.1,1,0.3c0.5,0.3,0.9,0.4,1.1,0.3c0.2-0.1,0.2-0.2,0-0.3
			c0.9-0.8,1.5-1.7,2-2.7c0.2-0.4,0.5-1.4,1.1-3.1l1.2-0.7c-1.4-4.5-2.6-9.2-3.7-14.1l1.2-0.7c0-0.9,0-1.7,0.1-2.3
			c0.5,0.6,1.1,1.1,1.8,1.6c1.1,0.8,3.1,1.9,6.1,3.2c1.2-0.5,2-0.9,2.6-1c0.6-0.1,1.2,0.2,1.6,0.9c0.5,1,1.2,1.6,2.1,1.9
			c1.7,0.5,3.5,1.1,5.3,1.6c2.2,0.9,3.2,2.2,3.1,3.9c-0.1,3.3-4.2,8.5-12.3,15.7l4.6-0.5l0.3-0.5l0.6-0.2l1.7-1.6l2-1l-3.1,3.6
			l-0.8,0.3l0.6,2.1c1-0.2,1.8-0.3,2.3-0.2c0.3,0,0.5,0.1,0.7,0.3c0.1,0.2,0.2,0.4,0.2,0.7c0,0.3,0.3,0.4,0.7,0.6
			c11.6-11.1,17.5-20.6,17.8-28.5c0.1-1.1,0-2.1-0.2-3c-0.6-3.1-2.3-5.5-5.3-7c-2.6-0.9-5.2-1.7-7.9-2.6c-2.6-0.9-3.9-2.2-3.8-4
			c0.2-5.2,6.7-13,19.6-23.1l-2.9-1l-1.8,2.5l-1.9,0.1l0.9-1.6l0.6-0.2l1.6-1.7l1-0.4l1-2.3l-4.4,0c1.6-3.6,2.4-5.7,2.5-6.2
			c0-0.5-0.2-0.9-0.5-1.4c-0.5-0.7-0.7-1.2-0.8-1.3c-8.4,5.5-16.1,12-23.2,19.3c-8,8.4-12.7,15.8-14,22.1c-0.7,0.4-1.3,0.8-1.7,1.1
			c-2.5-12-4.1-23.1-4.7-33.4c-2.6,1.8-4.5,3.2-5.7,4.2l0.4,0.4l-0.1,0.9l0.9,2.4L88,79.1l-2.7-3.8l0.7-2.7
			c-0.3,0.2-0.6,0.4-0.7,0.5c-0.8,0.9-1.4,1.6-1.6,2.2c-1.2,0.8-2.1,1.4-2.8,1.8c0.2-1.7,0.4-3.3,0.7-5c-3.1,2.2-5.1,3.4-6.2,3.7
			c-1.4,0.4-2.7,1.1-3.6,2.2c-1.5,1.7-2.5,2.7-2.9,3c-2.7,1.7-4.7,3-6,3.9c-2,20.1-2.6,37.1-1.8,51C61.3,142,61.4,147.6,61.4,152.6z
			 M124.5,129c1-0.8,1.7-1.5,2.1-2.1l-1.3,2.3l-1.2,0.6L124.5,129z M123.7,132.7l-2,2.3l-1.3,0.4l0.5-1l0.4-0.2l1-1L123.7,132.7z
			 M128.1,74.2l0.4-0.1l1.3-1.1l1.6-0.6l-2.5,2.6l-1.5,0.3L128.1,74.2z M124.5,78.8l0.3-0.1l0.9-0.9l1-0.4l-1.7,1.9l-1.1,0.2
			L124.5,78.8z M86.2,81.1l0.8,0.6l0,0.6l0.6,1.5L87.2,86l-1.7-2.4L86.2,81.1z M78.8,90.6c1.4,6.2,2.9,12.4,4.5,18.5
			c-2.4,1.8-5.1,4-7.9,6.6C76,110,77.1,101.6,78.8,90.6z M68.9,136l0.5,1.1l-0.2,0.6c0.1,1.2-0.2,2.6-0.9,4.2l-0.6-3.4L68.9,136z
			 M66,133.4l0.3,0.6l-0.3,0.5l0,1.2l-0.6,1.6l-0.3-2.3L66,133.4z"/>
		<path fill="#EACDBD" d="M192,148c0-1.5,0.1-3.5,0.2-6c-5.4,1.4-8.5,2.2-9.4,2.4c-0.2,1.7-0.3,3-0.5,3.9c-0.7,0.6-1.5,1.3-2.5,2.1
			c0,6.7,0,12.4,0.2,17c0.3,6.7,0.6,11.8,0.9,15.2c-4.2-6.8-9.3-18.1-15.1-34.3c-0.4,1.6-0.7,2.8-1,3.6l0-0.4
			c-1,0.6-1.7,1.1-2.1,1.4c-0.2-2.8-0.2-5.1-0.2-6.6c-1.4,0.6-2.4,1-3.1,1.2l0.4,0.7l-0.2,0.9l0.3,2.7l-0.6,3.1l-1.6-5.1l0.7-2.1
			c-2.5,0.9-4.3,1.5-5.5,1.9c-0.1,2.7-0.1,4.1-0.1,4.2c-1.1,1.1-1.9,1.8-2.5,2.3c1.6,21.6,4.7,42.8,9.1,63.6c0.9,0,2.1,0,3.7,0
			c-0.3-1.3-0.7-2.6-1-4c1-2.2,1.5-3.3,1.5-3.5c0.8,2,1.4,3.5,1.8,4.4c0.6-0.8,1.6-1.8,2.8-3.1c-1.6-10.4-2.6-19.2-3-26.5
			c4,5.8,10.2,12.9,18.6,21.4l0.3,2.1l1.9,0.1l0.4,0.5l0.1-0.4l1.3,0.1c-0.2-1.7-0.5-3-0.7-3.9l1-2l-0.7-2.3l1.1-3.1l0.9,1.6
			l-0.2,0.9l0.4,2.6l-0.2,1c0.4,1.3,0.7,2.1,0.9,2.5c1.3-1.1,2.2-2,2.9-2.6c-1.4-17.3-1.1-36.8,0.9-58.5
			C193.3,147.4,192.6,147.8,192,148z M157.7,162.6l-1.2-3.7l0.8-2.2l0.6,1.1l-0.1,0.6l0.3,1.9L157.7,162.6z M185.2,201.6l-1.1-3.4
			l0.8-2.2l0.6,1.1l-0.2,0.5l0.3,1.8L185.2,201.6z"/>
		<path fill="#EACDBD" d="M135.4,141.1c-0.7,1.8-1.4,2.7-2.2,2.9c-0.3,0.1-0.7,0.1-1.1-0.1l0.2,0.3l-0.1,1l0.6,2.8l-0.3,3.5
			l-2.2-5.4l0.6-2.3c-0.8,0.2-1.7,1.3-2.4,3.3c-0.8,2-1.6,3.1-2.5,3.4c-0.2,0.1-0.6,0.1-1.1,0c-0.5-0.1-0.9-0.1-1.1,0
			c-0.3,0.1-0.6,0.3-0.9,0.6c3.3,16.4,6.6,29.8,9.7,40.4c-4.1,5.5-7.2,9.6-9.3,12.4c-1.9-10.5-3.8-25.9-5.9-46.5
			c-0.7,0.5-1.4,0.9-2.2,1.3c-0.1-1.1-0.3-2.6-0.7-4.5c-1.9,1.5-2.9,2.4-3.2,2.6c-0.8,1.8-1.3,3.2-1.6,4.2l-1.8-3.1l-1.8,1.7
			l-0.2,0.9l0.8,2.9l-0.3,3.4l-2.2-5.3l0-0.1c-0.9,0.9-1.8,1.7-2.8,2.4c3.7,19.4,9.3,42.2,16.8,68.1l1.4-1.8l1.4,1l0.6-2.1l0.3,1.9
			c1.1-1.8,1.9-3.1,2.5-4l1,1c0.9-0.8,1.6-1.4,2-1.8c-0.3-0.9-0.5-1.8-0.7-2.9c3.7-5.8,7.2-10.7,10.7-14.7l2.9,10l0.5-0.2
			c-0.1-3-0.2-6.1-0.2-9.1c1.1,3.4,2.1,6,2.8,7.9l1.1-1.9l-0.7-2l0.4-2.5l0.9,1.1l-0.1,0.7l0.4,1.4l1.1-2.3l0.7,2.3
			c0.9-1.2,1.8-2.4,2.6-3.7c-3.7-15.6-7.9-39.7-12.5-72.8C136.9,137.7,136.3,138.9,135.4,141.1z M108.4,168.7l0.4-2.1l0.7,0.9
			l-0.1,0.6l0.5,1.6l-0.1,1.9L108.4,168.7z M145.5,203.1l0.8,1.1l-0.1,0.7l0.5,1.9l-0.2,2.3l-1.6-3.6L145.5,203.1z M141.9,199.4
			l0.6,0.8l-0.1,0.6l0.4,1.4l0,1.9l-1.4-2.8L141.9,199.4z"/>
		<path fill="#EACDBD" d="M98.8,174.7c-1.4-2.9-3-5.4-4.7-7.7l-0.5,1.6l-4.6-0.4l1.4,1.8l-1.7,1.5l0.8,1.5l1.5,0.2l1.2,2.1l-1,0.1
			l-0.3-0.5l-1.5-0.6l-0.5-0.5l-3.7,2l-2.1,4l0.7-4.9l1.5-2.2l-0.2-0.3l-2.2-1.1l-2-2.4l4.5,0.9l0.9,1.5l0.4-0.7l-1.3-4.6l1-0.3
			l-0.4-0.5l-2.1-1.1l-2-2.5l4.5,1.1l1.5,2.5l1.1-0.4l-3.2-4.2c-3.8-1.6-7.6-1.5-11.5,0.2c-6.3,2.8-11.4,8.7-15.2,17.7
			c-3.6,8.5-5.3,18-5.2,28.3c0.1,10.6,2.3,19.7,6.3,27.3c2.7,5,5.8,8.6,9.5,10.8l-1.4-1.5l4.4,0.7l1.7,2.6c3.4,0.7,6.7,0.4,9.8-1
			c8.1-3.7,13.9-12.4,17.4-26.3c3.3-13.5,3.3-26,0-37.7C100.8,179.3,99.9,176.9,98.8,174.7z M90,178.5l0.9,1.5l-0.8,0.1l-0.2-0.4
			l-1-0.4l-1-1.2L90,178.5z M81.3,172.6l1.1,2l-1,0.2l-0.3-0.5l-1.5-0.7l-1.3-1.6L81.3,172.6z M71.6,241.3l-0.5-0.7l-2.2-0.8l-2-2.4
			l4.5,0.8l1.8,2.9L71.6,241.3z M73.6,235.1l-0.3-0.4l-1.2-0.5l-1.1-1.3l2.5,0.4l1,1.7L73.6,235.1z M76.7,241.9l-0.3-0.3l-1.2-0.5
			l-1.1-1.3l2.5,0.4l1,1.7L76.7,241.9z M92.4,214.2c-1.7,8.5-5,13.9-10,16.1c-2.5,1.1-4.9,1.1-7.2-0.2c-2.3-1.2-4.2-3.3-5.7-6.2
			c-3.3-6.3-4.1-13.9-2.5-22.7c1.6-8.9,5-14.4,10.1-16.7c2.6-1.1,5-1,7.3,0.3c2.3,1.3,4.2,3.6,5.7,6.6
			C93.4,198.1,94.1,205.6,92.4,214.2z"/>
		<path fill="#EACDBD" d="M136.5,98.7c0.2,2.2,1.3,4.2,3.3,5.9c1,0.9,2.9,2.1,5.8,3.7c1.2-0.4,2.1-0.7,2.7-0.7
			c0.6-0.1,1.1,0.3,1.5,1c0.4,1,1.1,1.7,1.9,2.1c1.7,0.7,3.4,1.4,5.2,2.1c2.1,1.1,3,2.5,2.7,4.2c-0.4,3.2-4.9,8.1-13.7,14.5l4.6-0.1
			l0.3-0.5l0.6-0.1l1.8-1.4l2.1-0.8l-3.4,3.3L151,132l0.4,2.1c1-0.1,1.8-0.1,2.3,0c0.3,0,0.5,0.2,0.6,0.4c0.1,0.2,0.1,0.5,0.2,0.7
			c0,0.3,0.2,0.5,0.6,0.6c12.6-10,19.3-18.9,20.3-26.7c0.2-1.1,0.2-2.1,0.1-3c-0.3-3.2-1.8-5.6-4.7-7.4c-2.5-1.1-5-2.2-7.6-3.3
			c-2.5-1.1-3.7-2.6-3.5-4.3c0.7-5.2,7.9-12.3,21.6-21.3l-2.8-1.2l-2,2.3l-1.9,0l1-1.6l0.6-0.1l1.7-1.5l1.1-0.3l1.2-2.2l-4.3-0.4
			c1.9-3.4,2.9-5.4,3-5.9c0-0.5-0.1-0.9-0.3-1.4c-0.4-0.7-0.6-1.2-0.7-1.4c-8.9,4.8-17.1,10.5-24.8,17.2
			c-10.1,8.9-15.6,16.7-16.5,23.6C136.5,97.3,136.5,98,136.5,98.7z M159.7,124.9c1-0.7,1.8-1.4,2.3-1.9l-1.5,2.2l-1.2,0.5
			L159.7,124.9z M158.5,128.5l-2.2,2.1l-1.3,0.3l0.6-0.9l0.4-0.1l1.1-0.9L158.5,128.5z M168.3,70.6l0.4,0l1.4-1l1.6-0.4l-2.7,2.4
			l-1.6,0.1L168.3,70.6z M164.2,74.9l0.3,0l1-0.8l1.1-0.3l-1.9,1.7l-1.1,0.1L164.2,74.9z"/>
		<path fill="#EACDBD" d="M51.6,218.2c0.5-0.6,1-1.2,1.4-1.8c-0.7-2.3-1.3-4-1.7-5.2l-1.6-1.1c0.4-0.4,0.9-1.1,1.6-1.9
			c-0.7-3.5-1.2-5.9-1.6-7.2l-3,3.5c-2.6-7.4-5.6-17.1-9.1-29.2c-0.5,0.4-1.2,1.1-2,2c-0.7-2.1-1.3-3.6-1.6-4.6
			c-1.3,1.6-2.3,2.8-3,3.7l-0.8,4.7c-0.7-0.8-1.5-1.7-2.4-2.7l-2.2,3l0.9,0.6l0.3,1.2l1.8,3l1,4.1L25,185l-0.2-2.8l-2.6,3.6
			c4.8,11.9,9,21.8,12.8,29.7c-3,4.8-4.7,7.5-5,8.1c-6-14.2-10.6-25-13.6-32.4c-0.3,0.5-0.6,2-0.9,4.4c-0.2,2-0.6,3.1-1.2,3.5
			c-0.3,0.2-0.8,0.3-1.4,0.4c-0.7,0.1-1.1,0.2-1.4,0.4c-0.5,0.3-0.7,0.8-0.6,1.5l0.5,0.3l0.2,0.9l1.4,1.9l0.9,2.8l-3.2-3.2
			c-0.4,2.2-0.9,3.5-1.6,3.9c-0.2,0.1-0.5,0.2-1,0.3c-0.4,0.1-0.8,0.2-1,0.3c-0.3,0.2-0.6,0.5-0.9,0.9c9.3,19,21.1,40.2,35.2,63.3
			l0.2-0.1c-1.3-4.5-2.2-7.9-2.8-10.2c1.3,2.2,2.9,4.5,4.7,7c0.3-1.5,0.7-3,1.2-4.6l-1.8-1.8l-0.5-3.6l1.6,0.9l0.2,1l1.6,2.3
			l0.4,1.5c0.8-1.8,1.4-3.2,1.6-4.3c-3.5-6.7-7-13.7-10.4-21c2.6-4.9,4.3-7.9,5.1-9c4.7,9.4,8.3,16.4,10.6,21c0.4-1,0.7-1.8,1-2.3
			l1.6,0.5l0.3-5.6l-1.5-1.6l-0.3-2.9l1.2,0.8l0.1,0.8c0.9,1.3,1.4,2.2,1.4,2.7c1.6,1,2.5,1.5,2.6,1.6c0.7-0.8,1.2-1.5,1.7-2.3
			c-2.6-5.5-4.2-9.5-4.8-12C54.5,225.7,52.9,221.2,51.6,218.2z M31.9,187.6l1.2,0.9l0.2,0.8l1.3,2.1l0.7,2.9l-3.1-3.6L31.9,187.6z
			 M33.9,198.5l-0.2-2.2l0.9,0.7l0.2,0.6l0.9,1.4l0.4,1.9L33.9,198.5z M36,251.9l0.2,0.8l1.3,1.9l0.7,2.6l-3-3.1l-0.4-3L36,251.9z"
			/>
		<path fill="#EACDBD" d="M240.7,159.3l0.5-4.8l0.4,0.4c-2.8-6.4-8.6-10-17.4-10.9c-8.6-0.9-17.6,1.4-26.9,6.8l0.3,3.8l2.2,3.8
			l-2,3.4l0.4,4l2-1.5l2.8-0.4l-3.9,4l-1.3-0.1l-0.9,4.8c2.4-1.6,4.6-3,6.4-4c-0.8,11.9-1.2,23.4-1.2,34.5l-2.9,0.5l0.3,5.1l0.1-0.1
			l0.7-0.1l1.7-1.3l2.4-0.3l-3.1,3.2l-1.6-0.1l0.1,1.7l-2.2,0.9l-1.3,4c9.2-0.8,17.9-4.6,26-11.4c8.1-6.8,14.1-15.3,18-25.4
			c2.3-5.9,3.3-11.5,3.2-16.8L240.7,159.3z M203.2,159.3l-2-0.2l0.7-1.2l0.6,0.1l1.4-1l1.9-0.2L203.2,159.3z M207.3,155l-1.4-0.1
			l0.5-0.8l0.4-0.1l1-0.7l1.3-0.1L207.3,155z M206.1,209.8l-1.7-0.1l0.6-0.8l0.4-0.1l1.2-0.8l1.5-0.2L206.1,209.8z M222.7,188.4
			c-2.5,3.7-5.5,6.8-9,9.3c1.3-12.8,2.9-23.9,4.9-33.3c5.8,0.5,8.8,3.3,9.1,8.5c0.1,0.9,0,1.8-0.1,2.7
			C227.2,179.9,225.6,184.2,222.7,188.4z M237.8,163.7l0.3-2.6l0.9,0.8l0,0.7l0.8,1.8l0.1,2.4L237.8,163.7z"/>
		<path fill="#EACDBD" d="M259.5,155.9c-0.2-1-0.3-1.8-0.4-2.3l-2.6,0.1l-0.4,2.3l-1.5,2.4l0.1-4.5c-1.4,0-2.4,0.1-3.2,0.1
			c-2.8,11.3-5,25.4-6.6,42.3c0.4-0.1,1-0.2,1.7-0.5l0.9,0.9c0.4-0.2,0.9-0.6,1.7-1.2c0.7-0.6,1.3-1,1.7-1.2c0.5,0.9,1,1.8,1.7,2.6
			c1,0,1.8,0,2.4-0.1c0.2-2.1,0.5-4.1,1.1-6.3c0-0.1,0.2-0.7,0.7-1.8c0.5-1.1,0.8-1.9,0.9-2.6c2-8,5.3-17.7,9.8-28.9l-2.2-0.2
			c0.3-1.2,0.5-2,0.7-2.6C263.3,154.3,261.2,154.8,259.5,155.9z M257.1,160.3l-0.4,1.5l-0.9,1.6l0.1-3.3l1.2-1.4l0.2,1.2
			L257.1,160.3z M257.5,166.8l-0.3,1.4l-0.8,1.3l0-2.8l1.1-1.1l0.3,1L257.5,166.8z"/>
		<path fill="#EACDBD" d="M251.8,213.7l1.8-1.9l0.2-1.5l-2.1,0.5l-2.4-0.7l4.2-1.7l0.4,0.2l0.3-2.9l-15.4-0.3l-1.3,9.8l2.3-0.9
			l1.7,0.9l-1,0.7l-0.4-0.2l-1.6,0.3l-1-0.2l-0.3,2.7l16.1-0.2l0.3-2.5L251.8,213.7z M242.4,212.4l-0.4-0.1l-1.1,0.2l-1.2-0.4
			l2.2-0.8l1.3,0.6L242.4,212.4z"/>
		<path fill="#EACDBD" d="M229.7,77.7c-0.6,0.6-1.1,1.5-1.6,2.9c-0.5,1.4-1,2.4-1.5,3c0.5,0.4,1,0.9,1.4,1.3l2.7-1.3l3,0.9l-1.6,1.2
			l-0.9-0.2l-2.7,0.8l-1.7-0.2l-1.2,0.8c-0.6,1.4-1.5,2.9-2.7,4.6c5.3-1.5,10.6-2.8,15.9-4.2c-4,10.5-8.7,26-14.3,46.4
			c1-0.5,1.8-0.8,2.4-1.1l0.9,1c1.6-1.3,2.8-2.3,3.6-2.9l0-1l2.6-2.4l0.4,1.7l-0.6,0.7l-0.3,1c0.3,0.8,0.6,1.5,0.9,1.9
			c0.7-0.1,1.8-0.4,3.1-0.8l2.3-7.4c0.3-0.7,0.8-1.7,1.6-3c0.8-1.3,1.3-2.3,1.6-3.1c5.3-13.2,10.6-24.6,15.8-34.4
			c3.9-0.3,7.3-0.5,10.4-0.5c1.1-1.5,1.7-2.2,1.8-2.4c-0.3-0.7-0.6-1.3-0.7-2l1.9-0.2c0.3-0.6,0.5-1.2,0.7-1.7l0.3-0.6
			c1.3-3.2,2.2-5.6,2.8-7.2c-0.5,0.1-0.7-0.1-0.7-0.5c0-0.4-0.1-0.6-0.3-0.6l-0.5-0.1l0-1.6c-6,0.6-13.6,1.8-22.5,3.6
			c-12.5,2.5-20,4.1-22.5,4.7C229.5,76.2,229.6,77.1,229.7,77.7z M232,123.6l-0.5,1.8l-1.5,1.9l0.2-3.6l2-1.8l0.2,1.2L232,123.6z
			 M235.9,118.1l-0.3,1.4l-1.1,1.4l0.2-2.7l1.4-1.4l0.2,0.9L235.9,118.1z M239.8,82.1l1.2,0.4l-0.7,0.5l-0.4-0.1l-1.1,0.4l-1.4-0.1
			L239.8,82.1z M235.2,79l2.1,0.7l-1.1,0.9l-0.6-0.2l-1.9,0.6l-2.1-0.2L235.2,79z"/>
		<path fill="#EACDBD" d="M178.6,88.6c2.3-0.8,4.7-1.8,7.2-2.9c-0.7,3-1.3,5.9-1.7,8.7c-1.4,0.7-2.6,1.4-3.7,2
			c-0.4,1.7-0.7,3.1-0.9,4c0.6,0.7,1.2,1.3,2,1.9c-1.5,2.1-2.6,3.7-3.4,4.7c1.1-0.4,2.4-0.9,4.1-1.7c-1,6-1.8,11.9-2.4,17.7
			l-1.3,0.6c0.1,0.9,0.3,1.5,0.5,2c-0.4,0.4-0.9,1.1-1.4,2c0.6,0.4,1.2,0.7,1.6,0.7l0,0.4c-1.7,1.3-2.9,3.2-3.5,5.7
			c4.4-2.3,8.6-4.2,12.4-5.9l0.3,0.3c1.2-0.4,2.2-0.6,2.9-0.7l0.1-1.1c1.5-0.6,2.5-1.1,3.3-1.4c5.6-2.3,11.7-4.1,18.3-5.6
			c0.5-1,0.9-1.7,1.2-2.2c-0.4-0.7-0.6-1.2-0.8-1.5l1.5-0.4l0.4-1.5l-0.5,0l-2.4,1.1l-2.9,0.2l4.6-2.9l1.7,0.3c0.2-1,0.4-1.3,0.7-2
			c-1.3,0.3-2.3,0.5-2.9,0.6c0.6-1.1,1-2,1.4-2.6c-7,2.1-13.9,4.5-20.9,7.4c1.7-6.8,3.3-12.6,4.9-17.6c7.6-2.4,14.5-4.3,20.8-5.9
			c1.2-4.2,2.5-8,3.8-11.3c-3.3,0.8-6.6,1.6-9.6,2.4l0.3-1.7c-4.9,1.7-8.7,3-11.2,3.8c1.3-3.9,2.2-6.5,2.8-7.8
			c6.6-2,14.1-3.9,22.5-5.7c0.6-1.1,1.5-2.6,2.7-4.6c-1.3,0.2-2.3,0.4-2.9,0.6c0.6-0.9,1.3-1.8,2-2.9l-1.4,0.7l-1.9,0l2.9-1.9
			l1.1,0.2c0.5-0.7,0.9-1.8,1.4-3.4c0.4-1.5,0.9-2.7,1.4-3.4c-6.5,1.3-12.2,2.5-16.9,3.7l-1.1-1.2c-10.7,2.8-19.3,5.7-25.9,8.4
			c-3.5,1.6-6.1,2.9-7.9,3.8l-0.1,0.5l1.5,0c-0.3,0.4-0.7,1.3-1,2.7c-0.3,1.3-0.6,2.2-1,2.6c0.4,1.1,0.8,1.8,1,2.4l2.2-1.5l1.9,0.4
			l-0.8,0.9l-0.6,0l-1.7,0.7l-0.9,0.1l0.2,0.4c-1.4,1.6-2.4,2.9-3,3.7L178.6,88.6z M204.1,117.5l1.7,0.3l-0.8,1.1l-0.5,0.1l-1.5,0.7
			l-1.7-0.2L204.1,117.5z M186.3,77.9l4.6-3.1l2.9,0.5l-1.4,1.4l-0.8,0l-2.5,1.1L186.3,77.9z"/>
	</g>
</g>
</svg>
